<svg id="Group_67090" data-name="Group 67090" xmlns="http://www.w3.org/2000/svg" width="81.021" height="78.479" viewBox="0 0 81.021 78.479">
  <g id="Group_67086" data-name="Group 67086" transform="translate(0 0)">
    <g id="XMLID_1083_">
      <g id="XMLID_169_">
        <path id="XMLID_191_" d="M75.433,43.062a1.583,1.583,0,0,0,0,3.165,2.423,2.423,0,1,1,0,4.845h-3a28.788,28.788,0,0,0-15.146-23.8,17.156,17.156,0,0,0,.156-2.295,16.932,16.932,0,1,0-33.864,0c0,.364.015.725.038,1.087l-.085.034-7.009-4.065a2.879,2.879,0,0,0-4.324,2.49V34.666A28.55,28.55,0,0,0,7.464,43.24H4.391A4.4,4.4,0,0,0,0,47.63V57.684a4.4,4.4,0,0,0,4.391,4.391H7.465A28.912,28.912,0,0,0,17.987,76.119v7.039a3.362,3.362,0,0,0,3.359,3.358h5.9A3.345,3.345,0,0,0,30.225,84.7l1.734-3.37c.909.086,1.822.128,2.726.128h8.986c.9,0,1.819-.043,2.726-.128l1.735,3.37a3.346,3.346,0,0,0,2.986,1.822h5.9a3.362,3.362,0,0,0,3.359-3.358V76.125A28.765,28.765,0,0,0,72.43,54.237h3a5.59,5.59,0,0,0,0-11.179ZM40.51,11.207A13.767,13.767,0,0,1,52.457,31.818a24.739,24.739,0,0,0-7.261-2.6c.359-.665-3.537-.852-4.686-.852s-5.044.193-4.682.858a24.739,24.739,0,0,0-7.259,2.611A13.767,13.767,0,0,1,40.51,11.207Zm17.4,62.766a1.583,1.583,0,0,0-.7,1.316v7.867a.194.194,0,0,1-.194.194h-5.9a.193.193,0,0,1-.172-.1L48.717,78.9a1.582,1.582,0,0,0-1.616-.845,26.022,26.022,0,0,1-3.425.228H34.689a26.02,26.02,0,0,1-3.425-.228,1.58,1.58,0,0,0-1.616.845l-2.234,4.347a.193.193,0,0,1-.172.1h-5.9a.194.194,0,0,1-.194-.194V75.294a1.583,1.583,0,0,0-.7-1.316A25.721,25.721,0,0,1,10.133,60.033a1.583,1.583,0,0,0-1.515-1.127H4.391a1.228,1.228,0,0,1-1.227-1.227V54.237H5.383a1.583,1.583,0,1,0,0-3.165H3.165V47.63A1.228,1.228,0,0,1,4.391,46.4H8.617a1.583,1.583,0,0,0,1.515-1.127A25.434,25.434,0,0,1,15,36.24a1.583,1.583,0,0,0,.367-1.013V25.019l7.273,4.218a1.583,1.583,0,0,0,1.449.071l.048-.021A16.74,16.74,0,0,0,25.9,33.532a24.9,24.9,0,0,0-2.929,2.508,1.583,1.583,0,1,0,2.238,2.238,21.692,21.692,0,0,1,30.639,0,1.583,1.583,0,1,0,2.238-2.238,24.907,24.907,0,0,0-2.957-2.528,16.762,16.762,0,0,0,1.4-3.041,25.64,25.64,0,0,1,1.387,43.5Z" transform="translate(0 -8.043)" fill="#00b1c4"/>
        <path id="XMLID_733_" d="M115.254,219.96a1.583,1.583,0,1,0,1.119.464,1.583,1.583,0,0,0-1.119-.464Z" transform="translate(-95.683 -186.425)" fill="#00b1c4"/>
      </g>
    </g>
    <path id="_" data-name="৳" d="M6.967-19.7a1.639,1.639,0,0,0,.629-.139,3.276,3.276,0,0,0,.654-.371,4.451,4.451,0,0,0,.616-.539,4.69,4.69,0,0,0,.518-.647,3.434,3.434,0,0,0,.356-.688,1.9,1.9,0,0,0,.131-.668,2.2,2.2,0,0,0-.214-.948l-.145.041a1.63,1.63,0,0,1-.111.4,1.2,1.2,0,0,1-.235.363,1.185,1.185,0,0,1-.381.266,1.313,1.313,0,0,1-.547.1,1.559,1.559,0,0,1-.616-.118,1.449,1.449,0,0,1-.474-.318,1.411,1.411,0,0,1-.3-.467,1.5,1.5,0,0,1-.1-.564,1.913,1.913,0,0,1,.083-.518,1.368,1.368,0,0,1,.311-.543,1.792,1.792,0,0,1,.621-.425,2.62,2.62,0,0,1,1.035-.173,3.014,3.014,0,0,1,1.287.253,2.56,2.56,0,0,1,.889.668,2.741,2.741,0,0,1,.518.954,3.718,3.718,0,0,1,.17,1.121,3.906,3.906,0,0,1-.222,1.325,4.7,4.7,0,0,1-.591,1.139,5.363,5.363,0,0,1-.844.938,6.121,6.121,0,0,1-.979.706,4.929,4.929,0,0,1-1,.443,3.061,3.061,0,0,1-.9.152,2.967,2.967,0,0,1-.57-.065,3.075,3.075,0,0,1-.681-.229,3.178,3.178,0,0,1-.691-.443,2.939,2.939,0,0,1-.609-.709,3.861,3.861,0,0,1-.436-1.028A5.24,5.24,0,0,1,3.97-21.82v-4.4H2.051v-1.553H3.965v-2.29l-.041-.021a.771.771,0,0,1-.135.031.959.959,0,0,1-.135.01.854.854,0,0,1-.346-.072.939.939,0,0,1-.291-.2.977.977,0,0,1-.2-.294.877.877,0,0,1-.077-.363,1.062,1.062,0,0,1,.083-.394,1.154,1.154,0,0,1,.253-.381A1.366,1.366,0,0,1,3.5-32.03a1.468,1.468,0,0,1,.6-.114,1.377,1.377,0,0,1,.8.218,1.631,1.631,0,0,1,.512.57,2.66,2.66,0,0,1,.276.8,4.833,4.833,0,0,1,.083.892v1.9h6.143v1.553H5.773v4.179a5.8,5.8,0,0,0,.065.944,3.051,3.051,0,0,0,.173.65,1.4,1.4,0,0,0,.242.408,1.139,1.139,0,0,0,.266.225.708.708,0,0,0,.249.093,1.382,1.382,0,0,0,.2.021Z" transform="translate(33.527 38.389)" fill="#00b1c4"/>
  </g>
  <g id="Group_67087" data-name="Group 67087" transform="translate(25.328 31.229)">
    <path id="_2" data-name="৳" d="M8.459-15.907a2.139,2.139,0,0,0,.822-.18,4.274,4.274,0,0,0,.853-.484,5.8,5.8,0,0,0,.8-.7,6.12,6.12,0,0,0,.677-.844,4.481,4.481,0,0,0,.465-.9,2.473,2.473,0,0,0,.172-.872,2.877,2.877,0,0,0-.28-1.237l-.189.054a2.127,2.127,0,0,1-.145.524,1.564,1.564,0,0,1-.311.474,1.546,1.546,0,0,1-.5.348,1.713,1.713,0,0,1-.713.136,2.034,2.034,0,0,1-.8-.153,1.894,1.894,0,0,1-.621-.414,1.84,1.84,0,0,1-.4-.61,1.951,1.951,0,0,1-.14-.736,2.5,2.5,0,0,1,.1-.677,1.786,1.786,0,0,1,.406-.709,2.338,2.338,0,0,1,.817-.555,3.416,3.416,0,0,1,1.346-.226,3.933,3.933,0,0,1,1.679.329,3.339,3.339,0,0,1,1.16.872,3.576,3.576,0,0,1,.677,1.242,4.852,4.852,0,0,1,.222,1.463,5.1,5.1,0,0,1-.289,1.729,6.134,6.134,0,0,1-.772,1.49,7,7,0,0,1-1.1,1.224,7.985,7.985,0,0,1-1.277.921,6.431,6.431,0,0,1-1.3.578,3.993,3.993,0,0,1-1.174.2,3.87,3.87,0,0,1-.744-.086,4.012,4.012,0,0,1-.889-.3,4.14,4.14,0,0,1-.9-.578,3.83,3.83,0,0,1-.794-.925,5.037,5.037,0,0,1-.568-1.346,6.832,6.832,0,0,1-.216-1.819v-5.741H2.051v-2.031h2.5v-2.988L4.5-29.464a1.006,1.006,0,0,1-.176.04,1.25,1.25,0,0,1-.176.013,1.115,1.115,0,0,1-.451-.1,1.226,1.226,0,0,1-.379-.258,1.275,1.275,0,0,1-.262-.384,1.139,1.139,0,0,1-.1-.474,1.386,1.386,0,0,1,.1-.518,1.506,1.506,0,0,1,.329-.5,1.784,1.784,0,0,1,.564-.359,1.915,1.915,0,0,1,.786-.149,1.8,1.8,0,0,1,1.035.285,2.128,2.128,0,0,1,.668.744A3.471,3.471,0,0,1,6.8-30.08a6.3,6.3,0,0,1,.1,1.164v2.473h8.016v2.031H6.907v5.452a7.567,7.567,0,0,0,.086,1.232,3.98,3.98,0,0,0,.226.849,1.83,1.83,0,0,0,.316.533,1.489,1.489,0,0,0,.348.293.924.924,0,0,0,.327.124,1.8,1.8,0,0,0,.25.022Z" transform="translate(6.696 37.61)" fill="#00b1c4"/>
    <path id="Path_21273" data-name="Path 21273" d="M30.183,2A15.183,15.183,0,1,0,45.367,17.183,15.183,15.183,0,0,0,30.183,2Zm0,28.58a13.4,13.4,0,1,1,13.4-13.4,13.4,13.4,0,0,1-13.4,13.4Z" transform="translate(-15.001 -2)" fill="#00b1c4"/>
  </g>
</svg>
