<svg xmlns="http://www.w3.org/2000/svg" width="82.073" height="77.148" viewBox="0 0 82.073 77.148">
  <g id="Group_67088" data-name="Group 67088" transform="translate(0.004 0)">
    <g id="_003-genuine" data-name="003-genuine" transform="translate(-0.004 -0.001)">
      <g id="Group_67081" data-name="Group 67081">
        <path id="Path_21249" data-name="Path 21249" d="M1.647,28.027H80.521a1.509,1.509,0,1,0,0-3.013H77.826c.087-2.177.13-4.456.13-6.931a1.557,1.557,0,0,0-1.6-1.507c-8.84,0-16.032-6.759-16.032-15.068A1.557,1.557,0,0,0,58.719,0H23.45a1.557,1.557,0,0,0-1.6,1.507c0,8.308-7.192,15.068-16.032,15.068a1.557,1.557,0,0,0-1.6,1.507c0,2.48.043,4.759.129,6.931H1.647a1.509,1.509,0,1,0,0,3.013Zm5.777-8.5c9.33-.729,16.79-7.743,17.561-16.512h32.2c.774,8.769,8.234,15.783,17.561,16.512-.014,1.931-.055,3.743-.127,5.488h-3.2c.022-.558.043-1.125.059-1.694a1.521,1.521,0,0,0-1.171-1.49,21.907,21.907,0,0,1-15.585-14.7,1.6,1.6,0,0,0-1.545-1.1H48.3a1.509,1.509,0,1,0,0,3.013h3.684A25.064,25.064,0,0,0,68.233,24.381q-.012.319-.024.632H13.961q-.013-.319-.024-.632a25.064,25.064,0,0,0,16.25-15.34h3.683a1.509,1.509,0,1,0,0-3.013H29a1.6,1.6,0,0,0-1.541,1.1,21.906,21.906,0,0,1-15.591,14.7,1.521,1.521,0,0,0-1.171,1.49c.016.57.036,1.137.059,1.694h-3.2c-.071-1.741-.113-3.554-.127-5.488Z" transform="translate(-0.048 0.001)" fill="#00b1c4"/>
        <path id="Path_21250" data-name="Path 21250" d="M80.521,326H1.647a1.509,1.509,0,1,0,0,3.013h7.92c5.548,12.922,15.729,21.09,31.1,24.961a1.7,1.7,0,0,0,.83,0c15.375-3.872,25.555-12.04,31.1-24.961h7.919a1.509,1.509,0,1,0,0-3.013Zm-18.5,3.013c-.426.768-.879,1.509-1.348,2.214-4.3,6.446-10.707,10.844-19.6,13.451-8.883-2.6-15.294-7.006-19.591-13.451q-.7-1.057-1.348-2.214ZM41.08,350.958c-13.648-3.534-22.841-10.724-28.042-21.944h3.521a36.463,36.463,0,0,0,2.213,3.813c4.8,7.2,11.947,12.065,21.846,14.87a1.7,1.7,0,0,0,.925,0c9.9-2.8,17.045-7.663,21.846-14.87a36.482,36.482,0,0,0,2.213-3.814h3.522C63.926,340.234,54.733,347.424,41.08,350.958Z" transform="translate(-0.048 -276.878)" fill="#00b1c4"/>
        <path id="Path_21251" data-name="Path 21251" d="M23.874,208.06a.958.958,0,0,1,.958.958.958.958,0,0,0,1.916,0,2.878,2.878,0,0,0-5.756,0v3.837a2.878,2.878,0,0,0,5.756,0V211.9a.958.958,0,0,0-.958-.958h-.958a.958.958,0,1,0,0,1.916.958.958,0,1,1-1.916,0v-3.837a.958.958,0,0,1,.958-.958Z" transform="translate(-19.033 -176.759)" fill="#00b1c4"/>
        <path id="Path_21252" data-name="Path 21252" d="M100.315,207.916a.958.958,0,1,0,0-1.916H96.958a.958.958,0,0,0-.958.958v7.675a.958.958,0,0,0,.958.958h3.358a.958.958,0,1,0,0-1.916h-2.4v-1.916h1.055a.958.958,0,0,0,0-1.916H97.916v-1.916Z" transform="translate(-81.341 -176.617)" fill="#00b1c4"/>
        <path id="Path_21253" data-name="Path 21253" d="M170.316,206.958v4.012l-2.521-4.483a.958.958,0,0,0-1.794.47v7.675a.958.958,0,0,0,1.916,0V210.62l2.521,4.483a.958.958,0,0,0,1.8-.47v-7.675a.958.958,0,1,0-1.917,0Z" transform="translate(-139.242 -176.616)" fill="#00b1c4"/>
        <path id="Path_21254" data-name="Path 21254" d="M246.958,206a.958.958,0,0,0-.958.958v5.756a2.878,2.878,0,0,0,5.756,0v-5.756a.958.958,0,0,0-1.916,0v5.756a.958.958,0,0,1-1.916,0v-5.756a.958.958,0,0,0-.966-.958Z" transform="translate(-206.206 -176.617)" fill="#00b1c4"/>
        <path id="Path_21255" data-name="Path 21255" d="M321,207.007v7.675a.958.958,0,1,0,1.916,0v-7.675a.958.958,0,1,0-1.916,0Z" transform="translate(-268.814 -176.665)" fill="#00b1c4"/>
        <path id="Path_21256" data-name="Path 21256" d="M360.32,206.959v4.012l-2.521-4.483a.958.958,0,0,0-1.8.47v7.675a.958.958,0,0,0,1.916,0v-4.012l2.521,4.483a.958.958,0,0,0,1.8-.47v-7.675a.958.958,0,0,0-1.913,0Z" transform="translate(-295.079 -176.616)" fill="#00b1c4"/>
        <path id="Path_21257" data-name="Path 21257" d="M440.321,207.916a.958.958,0,0,0,0-1.916h-3.358a.958.958,0,0,0-.958.958v7.675a.958.958,0,0,0,.958.958h3.358a.958.958,0,0,0,0-1.916h-2.4v-1.916h1.055a.958.958,0,0,0,0-1.916h-1.055v-1.916Z" transform="translate(-361.906 -176.617)" fill="#00b1c4"/>
        <path id="Path_21258" data-name="Path 21258" d="M247.548,43.013a1.507,1.507,0,0,0,0-3.013h0a1.507,1.507,0,0,0,0,3.013Z" transform="translate(-206.511 -33.972)" fill="#00b1c4"/>
      </g>
    </g>
    <path id="Path_21274" data-name="Path 21274" d="M9.5-25.675H7.8l-2,4.99H5.757l-2-4.99h-1.7v7.036H3.362v-4.748H3.4L5.317-18.7h.926l1.916-4.683H8.2v4.749H9.5Zm3.458,2.64a1.111,1.111,0,0,1,.823.332,1.111,1.111,0,0,1,.318.829H11.788A1.171,1.171,0,0,1,12.959-23.036Zm1.16,2.76a1.08,1.08,0,0,1-1.093.667,1.207,1.207,0,0,1-.917-.368,1.207,1.207,0,0,1-.335-.93v-.086h3.706v-.438a2.427,2.427,0,0,0-.654-1.914,2.427,2.427,0,0,0-1.877-.753,2.518,2.518,0,0,0-1.929.811,2.518,2.518,0,0,0-.65,1.988,2.493,2.493,0,0,0,.676,1.989A2.493,2.493,0,0,0,13-18.545a2.235,2.235,0,0,0,2.433-1.731Zm4.12,1.7a1.756,1.756,0,0,0,1.672-.98h.024v.916h1.4V-26.01H19.921v2.92h-.029a1.724,1.724,0,0,0-1.643-.98c-1.336,0-2.2,1.058-2.2,2.741s.863,2.753,2.2,2.753Zm.473-4.345c.737,0,1.214.629,1.214,1.6s-.478,1.6-1.214,1.6-1.214-.614-1.214-1.6.478-1.6,1.219-1.6Zm3.642,4.281h1.424v-5.368H22.359Zm.712-5.954a.751.751,0,0,0,.541-.211.751.751,0,0,0,.229-.534.745.745,0,0,0-.227-.536.745.745,0,0,0-.543-.209.745.745,0,0,0-.54.211.745.745,0,0,0-.225.534.75.75,0,0,0,.229.533.75.75,0,0,0,.541.211Zm6.553,2.565a2.222,2.222,0,0,0-.777-1.552,2.222,2.222,0,0,0-1.656-.52,2.519,2.519,0,0,0-1.945.788,2.519,2.519,0,0,0-.674,1.987,2.514,2.514,0,0,0,.675,2,2.514,2.514,0,0,0,1.958.781,2.191,2.191,0,0,0,1.652-.5,2.191,2.191,0,0,0,.776-1.542H28.3a1.012,1.012,0,0,1-1.088.916c-.737,0-1.2-.6-1.2-1.653,0-1.029.463-1.653,1.194-1.653a1.043,1.043,0,0,1,1.088.95Zm.745,3.389h1.424v-5.368H30.365Zm.712-5.954a.751.751,0,0,0,.541-.211.751.751,0,0,0,.229-.534.745.745,0,0,0-.227-.536.745.745,0,0,0-.543-.209.745.745,0,0,0-.54.211.745.745,0,0,0-.225.534.75.75,0,0,0,.228.532.75.75,0,0,0,.539.212Zm1.7,5.954H34.2V-21.7a1.075,1.075,0,0,1,.273-.848,1.075,1.075,0,0,1,.819-.351c.673,0,1,.4,1,1.116v3.145h1.424v-3.442a1.769,1.769,0,0,0-.457-1.443,1.769,1.769,0,0,0-1.406-.561,1.687,1.687,0,0,0-1.677,1.039h-.029V-24H32.779Zm8.278-4.4a1.111,1.111,0,0,1,.823.332,1.111,1.111,0,0,1,.318.829H39.886a1.171,1.171,0,0,1,1.171-1.16Zm1.16,2.76a1.08,1.08,0,0,1-1.1.667,1.207,1.207,0,0,1-.917-.368,1.207,1.207,0,0,1-.335-.93v-.086h3.706v-.438a2.427,2.427,0,0,0-.654-1.914,2.427,2.427,0,0,0-1.877-.753,2.518,2.518,0,0,0-1.929.811,2.518,2.518,0,0,0-.65,1.988,2.493,2.493,0,0,0,.676,1.989,2.493,2.493,0,0,0,1.956.766,2.235,2.235,0,0,0,2.433-1.731Z" transform="translate(19.746 66.51)" fill="#00b1c4"/>
  </g>
</svg>
