<svg id="Group_67089" data-name="Group 67089" xmlns="http://www.w3.org/2000/svg" width="72.402" height="75.814" viewBox="0 0 72.402 75.814">
  <g id="_001-package" data-name="001-package" transform="translate(16.396)">
    <path id="Path_21243" data-name="Path 21243" d="M34.58,155.269l-14.764-4.894L5.051,155.269.01,163.277l4.641,1.538v8.511l15.164,5.027,15.164-5.027v-8.511l4.641-1.538Zm-4.449.971-10.315,3.419L9.5,156.24l10.315-3.419ZM3.553,162.006l2.756-4.378,11.735,3.89L15.288,165.9Zm3.419,3.579,9.311,3.086,2.372-3.767v10.619L6.972,171.65Zm14,9.938V164.9l2.372,3.767,9.311-3.086v6.066Zm3.367-9.627-2.756-4.378,11.735-3.89,2.756,4.378Z" transform="translate(-0.01 -138.741)" fill="#00b1c4"/>
    <path id="Path_21244" data-name="Path 21244" d="M241,0h2.321V7.75H241Z" transform="translate(-222.35)" fill="#00b1c4"/>
    <path id="Path_21245" data-name="Path 21245" d="M0,0H2.321V7.75H0Z" transform="matrix(0.866, -0.5, 0.5, 0.866, 7.73, 3.547)" fill="#00b1c4"/>
    <path id="Path_21246" data-name="Path 21246" d="M0,0H7.75V2.321H0Z" transform="matrix(0.5, -0.866, 0.866, 0.5, 25.995, 9.099)" fill="#00b1c4"/>
  </g>
  <g id="support-money-financial-capital_money-hands" data-name="support-money-financial-capital money-hands" transform="translate(0 3.411)">
    <path id="Path_21261" data-name="Path 21261" d="M61.514,6a4.827,4.827,0,0,0-4.827,4.827V32.982a4.665,4.665,0,0,0-2.341.024,4.811,4.811,0,0,0-2.932,2.244L44.222,47.716a6.044,6.044,0,0,0-.808,3.017v15.6H42.207A1.207,1.207,0,0,0,41,67.542v4.827a1.207,1.207,0,0,0,1.207,1.207H61.514a1.207,1.207,0,0,0,1.207-1.207V67.542a1.207,1.207,0,0,0-1.207-1.207H60.307V61.882a3.655,3.655,0,0,1,.869-2.353L64.893,55.2a6.054,6.054,0,0,0,1.448-3.922V10.827A4.827,4.827,0,0,0,61.514,6ZM60.307,71.162H43.413V68.749H60.307Zm3.62-19.886a3.631,3.631,0,0,1-.869,2.353l-3.717,4.332a6.078,6.078,0,0,0-1.448,3.922v4.453H45.827v-15.6a3.7,3.7,0,0,1,.483-1.81l7.2-12.465a2.411,2.411,0,0,1,4.175,2.413l-7.84,13.584,2.088,1.207,7.844-13.587a4.817,4.817,0,0,0-.676-5.7V10.827a2.413,2.413,0,1,1,4.827,0Z" transform="translate(6.061 -1.173)" fill="#00b1c4"/>
    <path id="Path_21262" data-name="Path 21262" d="M26.134,66.335H24.927v-15.6a6.044,6.044,0,0,0-.808-3.017L16.927,35.25a4.787,4.787,0,0,0-5.273-2.269V10.827a4.827,4.827,0,0,0-9.654,0V51.275A6.054,6.054,0,0,0,3.448,55.2l3.717,4.332a3.655,3.655,0,0,1,.869,2.353v4.453H6.827a1.207,1.207,0,0,0-1.207,1.2v4.827a1.207,1.207,0,0,0,1.207,1.207H26.134a1.207,1.207,0,0,0,1.207-1.207V67.542A1.207,1.207,0,0,0,26.134,66.335ZM5.282,53.629a3.631,3.631,0,0,1-.869-2.353V10.827a2.413,2.413,0,0,1,4.827,0V34.382a4.817,4.817,0,0,0-.676,5.7l7.844,13.587L18.5,52.458,10.652,38.871a2.411,2.411,0,1,1,4.175-2.413l7.2,12.465a3.7,3.7,0,0,1,.483,1.81v15.6H10.447V61.882A6.078,6.078,0,0,0,9,57.961ZM24.927,71.162H8.034V68.749H24.927Z" transform="translate(-2 -1.173)" fill="#00b1c4"/>
    <path id="Path_21265" data-name="Path 21265" d="M11,4h2.413V6.413H11Z" transform="translate(-0.14 -1.587)" fill="#00b1c4"/>
    <path id="Path_21266" data-name="Path 21266" d="M13,2h2.413V4.413H13Z" transform="translate(0.274 -2)" fill="#00b1c4"/>
    <path id="Path_21267" data-name="Path 21267" d="M15,4h2.413V6.413H15Z" transform="translate(0.687 -1.587)" fill="#00b1c4"/>
    <path id="Path_21268" data-name="Path 21268" d="M13,6h2.413V8.413H13Z" transform="translate(0.274 -1.173)" fill="#00b1c4"/>
    <path id="Path_21269" data-name="Path 21269" d="M51,4h2.413V6.413H51Z" transform="translate(8.128 -1.587)" fill="#00b1c4"/>
    <path id="Path_21270" data-name="Path 21270" d="M49,2h2.413V4.413H49Z" transform="translate(7.715 -2)" fill="#00b1c4"/>
    <path id="Path_21271" data-name="Path 21271" d="M47,4h2.413V6.413H47Z" transform="translate(7.302 -1.587)" fill="#00b1c4"/>
    <path id="Path_21272" data-name="Path 21272" d="M49,6h2.413V8.413H49Z" transform="translate(7.715 -1.173)" fill="#00b1c4"/>
  </g>
</svg>
