<svg xmlns="http://www.w3.org/2000/svg" width="102.697" height="91.333" viewBox="0 0 102.697 91.333">
  <g id="Group_67091" data-name="Group 67091" transform="translate(-6.05)">
    <g id="_002-tap" data-name="002-tap" transform="translate(39.812) rotate(45)">
      <g id="Group_67078" data-name="Group 67078" transform="translate(8.562 5.118)">
        <g id="Group_67077" data-name="Group 67077">
          <path id="Path_21247" data-name="Path 21247" d="M59.563,15.531,47.111,1.847a6.34,6.34,0,0,0-8.965.02,6.2,6.2,0,0,0-1.6,2.739A6.344,6.344,0,0,0,26.6,7.914a6.346,6.346,0,0,0-8.329.576,6.268,6.268,0,0,0-1.59,2.673L10.816,5.294A6.34,6.34,0,1,0,1.85,14.26L24.4,36.807l-13.373,2.1a7.419,7.419,0,0,0-6.339,7.309,4.974,4.974,0,0,0,4.968,4.968H40.881a18.1,18.1,0,0,0,12.88-5.335l5.21-5.21a18.193,18.193,0,0,0,.593-25.107ZM56.629,38.3l-5.21,5.21a14.806,14.806,0,0,1-10.538,4.365H9.653A1.657,1.657,0,0,1,8,46.216a4.1,4.1,0,0,1,3.52-4.034l16.609-2.61a1.654,1.654,0,0,0,.914-2.805L4.192,11.918A3.028,3.028,0,1,1,8.474,7.636L25.044,24.2a1.656,1.656,0,1,0,2.338-2.345l-6.766-6.766A3.029,3.029,0,0,1,24.9,10.812l6.769,6.769a1.656,1.656,0,1,0,2.338-2.345l-3.454-3.454A3.028,3.028,0,1,1,34.834,7.5L38.3,10.971h0A1.656,1.656,0,1,0,40.608,8.6L40.49,8.47a3.029,3.029,0,1,1,4.226-4.339l12.4,13.628A14.885,14.885,0,0,1,56.629,38.3Z" fill="#00b1c4"/>
        </g>
      </g>
      <g id="Group_67080" data-name="Group 67080">
        <g id="Group_67079" data-name="Group 67079">
          <path id="Path_21248" data-name="Path 21248" d="M28.469,8.787A14.889,14.889,0,1,0,8.786,28.472a1.657,1.657,0,0,0,1.365-3.02,11.577,11.577,0,1,1,15.3-15.3,1.656,1.656,0,1,0,3.017-1.364Z" fill="#00b1c4"/>
        </g>
      </g>
    </g>
    <circle id="Ellipse_1622" data-name="Ellipse 1622" cx="9.237" cy="9.237" r="9.237" transform="translate(59.535 6.597)" fill="#00b1c4"/>
    <circle id="Ellipse_1623" data-name="Ellipse 1623" cx="5.666" cy="5.666" r="5.666" transform="translate(84.219 10.167)" fill="#00b1c4"/>
    <circle id="Ellipse_1624" data-name="Ellipse 1624" cx="3.493" cy="3.493" r="3.493" transform="translate(101.761 12.341)" fill="#00b1c4"/>
  </g>
</svg>
