<svg xmlns="http://www.w3.org/2000/svg" width="30.24" height="31.5" viewBox="0 0 30.24 31.5">
  <path id="Icon_material-add-shopping-cart" data-name="Icon material-add-shopping-cart" d="M16.5,13.5h3V9H24V6H19.5V1.5h-3V6H12V9h4.5ZM10.5,27a3,3,0,1,0,3,3A3,3,0,0,0,10.5,27Zm15,0a3,3,0,1,0,3,3A3,3,0,0,0,25.5,27ZM10.755,22.125l.045-.18L12.15,19.5H23.325a2.986,2.986,0,0,0,2.625-1.545L31.74,7.44,29.13,6h-.015l-1.65,3-4.14,7.5H12.8l-.195-.405L9.24,9,7.815,6,6.4,3H1.5V6h3L9.9,17.385,7.875,21.06A2.9,2.9,0,0,0,7.5,22.5a3.009,3.009,0,0,0,3,3h18v-3H11.13A.381.381,0,0,1,10.755,22.125Z" transform="translate(-1.5 -1.5)" fill="#f9fcfc"/>
</svg>
