<svg xmlns="http://www.w3.org/2000/svg" width="27.102" height="24.866" viewBox="0 0 27.102 24.866"><path d="M22.649,4.5a8.115,8.115,0,0,0-6.1,2.832,8.115,8.115,0,0,0-6.1-2.832A7.381,7.381,0,0,0,3,11.953c0,5.122,4.607,9.3,11.586,15.638l1.965,1.775,1.965-1.789C25.495,21.249,30.1,17.075,30.1,11.953A7.381,7.381,0,0,0,22.649,4.5ZM16.687,25.572l-.136.136-.136-.136C9.965,19.731,5.71,15.869,5.71,11.953A4.631,4.631,0,0,1,10.453,7.21a5.3,5.3,0,0,1,4.838,3.2h2.534a5.264,5.264,0,0,1,4.824-3.2,4.631,4.631,0,0,1,4.743,4.743C27.392,15.869,23.137,19.731,16.687,25.572Z" transform="translate(-3 -4.5)" fill="#15a6b1"/></svg>