<svg xmlns="http://www.w3.org/2000/svg" width="702.681" height="878.094" viewBox="0 0 702.681 878.094">
  <g id="Group_67351" data-name="Group 67351" transform="translate(-6247.944 8086.919)">
    <g id="Group_67350" data-name="Group 67350" transform="translate(6247.943 -8086.919)">
      <path id="Path_21505" data-name="Path 21505" d="M2708.029-1215.054v42.725H2622.4v747.22h613.309v-746.235h-84.98v-42.71c31.251,0,61.664-1.327,91.9.454,20.842,1.227,33.036,15.094,36.482,35.985,1.287,7.792,1.414,15.843,1.414,23.775q.108,356.49.047,712.988c0,45.685-14,59.923-58.93,59.927q-292.76.03-585.524,0c-43.875,0-58.189-14.4-58.193-58.62q-.042-358.486,0-716.971c0-44.088,14.365-58.445,58.341-58.525C2659.393-1215.086,2682.534-1215.054,2708.029-1215.054Z" transform="translate(-2577.898 1259.005)" fill="#15a6b1"/>
      <path id="Path_21506" data-name="Path 21506" d="M2797.012-1095.184c-42.406,0-84.809.136-127.216-.04-29.392-.127-45.9-15.457-47.278-44.31a390.067,390.067,0,0,1,.227-43.7c1.634-25.073,16.716-41.96,41.3-42.2q133.16-1.3,266.343-.1c24.894.211,40.278,16.6,41.956,41.518a354.155,354.155,0,0,1,.073,47.657c-1.75,25.679-18.35,40.9-44.216,41.084C2884.474-1094.957,2840.741-1095.188,2797.012-1095.184Z" transform="translate(-2446.26 1226.096)" fill="#15a6b1"/>
      <path id="Path_21508" data-name="Path 21508" d="M3008.18-1159.522v39.738H2644.519v-39.738Z" transform="translate(-2438.57 1360.066)" fill="#15a6b1"/>
      <path id="Path_21513" data-name="Path 21513" d="M3008.18-1159.522v39.738H2644.519v-39.738Z" transform="translate(-2438.57 1440.899)" fill="#15a6b1"/>
      <path id="Path_21512" data-name="Path 21512" d="M2611.31-1119.755v-39.618h42.653v39.618Z" transform="translate(-2478.206 1360.51)" fill="#15a6b1"/>
      <path id="Path_21514" data-name="Path 21514" d="M2611.31-1119.755v-39.618h42.653v39.618Z" transform="translate(-2478.206 1441.343)" fill="#15a6b1"/>
      <g id="Ellipse_1689" data-name="Ellipse 1689" transform="translate(154.61 373.231)" fill="#15a6b1" stroke="#707070" stroke-width="1">
        <ellipse cx="207.5" cy="207" rx="207.5" ry="207" stroke="none"/>
        <ellipse cx="207.5" cy="207" rx="207" ry="206.5" fill="none"/>
      </g>
      <path id="Path_21515" data-name="Path 21515" d="M6974.587,3094.417l-55.286-63.944c18.007-14.677,39.271-32.007,64.31-52.417L6912,2919.448l63.717-55.686,48.765,62.615,65.126-61.721c16.372,17.144,31.853,33.356,51.383,53.81-18.339,15.167-39.5,32.665-64.56,53.394l71.517,58.627-62.4,54.818c-14.865-17.936-31.891-38.477-54.911-66.249C7009.547,3047.416,6993.038,3069.611,6974.587,3094.417Z" transform="translate(-6667.652 -2398.681)" fill="#fff"/>
    </g>
  </g>
</svg>
