<svg xmlns="http://www.w3.org/2000/svg" width="1228.237" height="980.089" viewBox="0 0 1228.237 980.089">
  <g id="Group_67349" data-name="Group 67349" transform="translate(-6008.263 -2758.5)">
    <path id="Path_21503" data-name="Path 21503" d="M7004.31,3190.43c-6.82,47.85-24.22,92.33-50.07,134.17-22.23,35.98-49.27,68.1-78.7,98.32-39.01,40.06-81.84,75.85-124.74,111.57-41.24,34.35-82.6,68.58-123.22,103.67-29.59,25.57-57.37,53.15-82.33,83.34-19.32,23.37-56.24,22.07-74.35.38-35.02-41.92-75.2-78.7-116.91-113.78-40.79-34.31-82.11-67.99-123-102.18-35.07-29.34-69.08-59.87-100.43-93.23-34.42-36.63-64.97-76.07-87.33-121.39-16.8-34.05-28.14-69.79-32.47-107.54-7.16-62.44.54-122.62,30.09-178.78,32.67-62.09,83.45-103.08,149.89-124.7a290.871,290.871,0,0,1,116.32-13.47c32.22,2.81,62.25,13.38,90.79,28.31,39.88,20.84,74.37,48.78,105.77,80.74,1.14,1.16,2.28,2.31,3.44,3.45a3.058,3.058,0,0,0,.61.4c10.12-9.55,19.79-19.14,29.95-28.17,33.81-30.07,70.79-55.15,113.44-71.16,31.67-11.89,64.36-16.34,98.11-14.1,26.19,1.73,51.8,6.01,76.6,14.11A215.182,215.182,0,0,0,6804,2975C6804,3089.01,6892.34,3182.4,7004.31,3190.43Z" fill="#15a6b1"/>
    <circle id="Ellipse_1687" data-name="Ellipse 1687" cx="193" cy="193" r="193" transform="translate(6836 2773)" fill="none" stroke="#ff6a6a" stroke-width="29"/>
    <path id="Path_21504" data-name="Path 21504" d="M6954.585,3020.7l-37.617-43.509,43.757-35.665L6912,2901.652l43.354-37.89,33.181,42.6,44.313-42c11.14,11.665,21.673,22.7,34.962,36.613l-43.928,36.33,48.661,39.891-42.456,37.3-37.362-45.077Z" transform="translate(36.729 33.767)" fill="#ff6a6a"/>
  </g>
</svg>
