<svg xmlns="http://www.w3.org/2000/svg" width="19.865" height="21.934" viewBox="0 0 19.865 21.934"><defs><style>.a{fill:#7a0553;}</style></defs><path class="a" d="M21.045,18.635a3.016,3.016,0,0,0-2.158.827l-7.913-4.574a3.706,3.706,0,0,0,.111-.772,3.7,3.7,0,0,0-.111-.772l7.8-4.519A3.311,3.311,0,1,0,17.725,6.4a3.684,3.684,0,0,0,.111.772l-7.8,4.519a3.331,3.331,0,0,0-2.269-.882A3.276,3.276,0,0,0,4.5,14.116a3.331,3.331,0,0,0,5.589,2.425l7.858,4.574a2.765,2.765,0,0,0-.111.716,3.209,3.209,0,1,0,3.209-3.2Z" transform="translate(-4.5 -3.094)"/></svg>