<svg xmlns="http://www.w3.org/2000/svg" width="37.31" height="30.387" viewBox="0 0 37.31 30.387"><path d="M26.956-35.572l-5.3-3.527,5.214-6.059L29.743-49.5q-7.013-2.352-7.012-8.32a8.057,8.057,0,0,1,2.248-5.788,7.5,7.5,0,0,1,5.664-2.352,7.51,7.51,0,0,1,6.383,3.165,11.171,11.171,0,0,1,2.068,6.965Q39.093-47.872,26.956-35.572Zm-21.286,0-3.887-5.3A54.627,54.627,0,0,0,9.335-49.6q-7.552-2.158-7.552-8.271A7.91,7.91,0,0,1,4.12-63.532a7.473,7.473,0,0,1,5.574-2.427,7.336,7.336,0,0,1,6.293,2.922,11.7,11.7,0,0,1,2.158,7.147Q18.145-49.237,5.67-35.572Z" transform="translate(39.093 -35.572) rotate(180)" fill="#7a0553"/></svg>