<svg xmlns="http://www.w3.org/2000/svg" width="14.864" height="16.987" viewBox="0 0 14.864 16.987"><path d="M0,15.395a1.593,1.593,0,0,0,1.593,1.593H13.271a1.593,1.593,0,0,0,1.593-1.593V6.37H0Zm10.617-6.5a.4.4,0,0,1,.4-.4h1.327a.4.4,0,0,1,.4.4v1.327a.4.4,0,0,1-.4.4H11.015a.4.4,0,0,1-.4-.4Zm0,4.247a.4.4,0,0,1,.4-.4h1.327a.4.4,0,0,1,.4.4v1.327a.4.4,0,0,1-.4.4H11.015a.4.4,0,0,1-.4-.4ZM6.37,8.892a.4.4,0,0,1,.4-.4H8.1a.4.4,0,0,1,.4.4v1.327a.4.4,0,0,1-.4.4H6.768a.4.4,0,0,1-.4-.4Zm0,4.247a.4.4,0,0,1,.4-.4H8.1a.4.4,0,0,1,.4.4v1.327a.4.4,0,0,1-.4.4H6.768a.4.4,0,0,1-.4-.4ZM2.123,8.892a.4.4,0,0,1,.4-.4H3.849a.4.4,0,0,1,.4.4v1.327a.4.4,0,0,1-.4.4H2.522a.4.4,0,0,1-.4-.4Zm0,4.247a.4.4,0,0,1,.4-.4H3.849a.4.4,0,0,1,.4.4v1.327a.4.4,0,0,1-.4.4H2.522a.4.4,0,0,1-.4-.4ZM13.271,2.123H11.679V.531A.532.532,0,0,0,11.148,0H10.086a.532.532,0,0,0-.531.531V2.123H5.308V.531A.532.532,0,0,0,4.778,0H3.716a.532.532,0,0,0-.531.531V2.123H1.593A1.593,1.593,0,0,0,0,3.716V5.308H14.864V3.716A1.593,1.593,0,0,0,13.271,2.123Z" fill="#7a0553"/></svg>