<svg xmlns="http://www.w3.org/2000/svg" xmlns:xlink="http://www.w3.org/1999/xlink" width="199" height="144" viewBox="0 0 199 144"><defs><filter id="a" x="0" y="0" width="199" height="144" filterUnits="userSpaceOnUse"><feOffset dy="3" input="SourceAlpha"/><feGaussianBlur stdDeviation="3" result="b"/><feFlood flood-opacity="0.161"/><feComposite operator="in" in2="b"/><feComposite in="SourceGraphic"/></filter></defs><g transform="translate(-1273.694 -454)"><g transform="matrix(1, 0, 0, 1, 1273.69, 454)" filter="url(#a)"><rect width="181" height="126" rx="4" transform="translate(9 6)" fill="#fff"/></g><text transform="translate(1371.694 552)" font-size="22" font-family="MicrosoftPhagsPa, Microsoft PhagsPa"><tspan x="-68.868" y="0">Bank Payment</tspan></text><g transform="translate(1340.82 477.099)"><path d="M78.983,86.159l3.738-23.87A4.444,4.444,0,0,0,79.04,57.2h0L28.6,49.1a4.442,4.442,0,0,0-5.09,3.682L21.714,63.946V86.02Z" transform="translate(-19.01 -49.045)" fill="#146aa8"/><path d="M120.453,98.348l-14.327-2.3C96.5,110.773,80.948,120.97,69.019,127.184l51.378.124,3.738-23.87a4.444,4.444,0,0,0-3.682-5.091Z" transform="translate(-60.423 -90.195)" fill="#126099"/><path d="M4.443,159.771H55.531a4.443,4.443,0,0,1,4.443,4.443V193.09a4.443,4.443,0,0,1-4.443,4.443H4.443A4.443,4.443,0,0,1,0,193.09V164.214A4.443,4.443,0,0,1,4.443,159.771Z" transform="translate(0 -145.98)" fill="#4398d1"/><path d="M144.159,159.771h-.888c-10.484,18.613-30.075,31.381-42.034,37.761h42.922a4.443,4.443,0,0,0,4.443-4.442V164.214A4.443,4.443,0,0,0,144.159,159.771Z" transform="translate(-88.628 -145.98)" fill="#3e8cc7"/><rect width="11.106" height="8.885" transform="translate(5.553 19.344)" fill="#fdb62f"/><g transform="translate(5.553 22.676)"><rect width="3.332" height="2.221" fill="#fd7b2f"/><rect width="3.332" height="2.221" transform="translate(7.774)" fill="#fd7b2f"/></g><ellipse cx="5.553" cy="5.553" rx="5.553" ry="5.553" transform="translate(43.315 34.893)" fill="#fdb62f"/><ellipse cx="5.553" cy="5.553" rx="5.553" ry="5.553" transform="translate(36.651 34.893)" fill="#de4c3c"/><g transform="translate(4.443 19.344)"><rect width="6.664" height="2.221" transform="translate(0 16.659)" fill="#87ced9"/><rect width="6.664" height="2.221" transform="translate(11.106 16.659)" fill="#87ced9"/><rect width="6.664" height="2.221" transform="translate(22.213 16.659)" fill="#87ced9"/><rect width="28.876" height="2.221" transform="translate(0 23.323)" fill="#87ced9"/><rect width="2.221" height="4.443" transform="translate(34.429)" fill="#87ced9"/><rect width="2.221" height="4.443" transform="translate(38.872)" fill="#87ced9"/><rect width="2.221" height="4.443" transform="translate(43.314)" fill="#87ced9"/><rect width="2.221" height="4.443" transform="translate(47.757)" fill="#87ced9"/></g></g></g></svg>