<svg xmlns="http://www.w3.org/2000/svg" xmlns:xlink="http://www.w3.org/1999/xlink" width="199" height="144" viewBox="0 0 199 144"><defs><filter id="a" x="0" y="0" width="199" height="144" filterUnits="userSpaceOnUse"><feOffset dy="3" input="SourceAlpha"/><feGaussianBlur stdDeviation="3" result="b"/><feFlood flood-opacity="0.161"/><feComposite operator="in" in2="b"/><feComposite in="SourceGraphic"/></filter></defs><g transform="translate(9 6)"><g transform="matrix(1, 0, 0, 1, -9, -6)" filter="url(#a)"><rect width="181" height="126" rx="4" transform="translate(9 6)" fill="#fff"/></g><text transform="translate(87 91)" font-size="21" font-family="MicrosoftPhagsPa, Microsoft PhagsPa"><tspan x="-65.456" y="0">Cash Payment</tspan></text><g transform="translate(53.772 17.099)"><path d="M296.913,317.919v8.45c0,2.87-7.652,5.261-17.058,5.261s-16.9-2.312-16.9-5.181v-.957l-.159-6.7h.08c1.275,2.471,8.29,4.384,16.739,4.384s17.138-2.391,17.138-5.261h.16Z" transform="translate(-222.7 -281.409)" fill="#e2a63b"/><path d="M180.2,112.074v8.37h-.159c0,2.949-7.891,5.261-17.218,5.261a40.909,40.909,0,0,1-10.761-1.2l-.159.159a18.625,18.625,0,0,0-5.9-3.268v-.159l-.239-8.848c.558,2.71,7.971,4.862,16.979,4.862s17.3-2.312,17.3-5.181Z" transform="translate(-123.527 -106.97)" fill="#f4b844"/><path d="M180.2,83.887h0c0,2.87-7.891,5.181-17.3,5.181s-16.5-2.152-17.058-4.862c0-.08-.08-.239-.08-.319,0-2.87,7.652-5.261,17.138-5.261C172.391,78.547,180.2,80.938,180.2,83.887Z" transform="translate(-123.528 -78.624)" fill="#fedb41"/><path d="M261.99,272.751h0L261.91,271l-.159-7.174c.558,2.71,7.971,4.862,16.979,4.862s16.979-2.312,17.218-5.1h.08v8.29h-.16c0,2.87-7.732,5.261-17.138,5.261S263.266,275.222,261.99,272.751Z" transform="translate(-221.815 -235.364)" fill="#f4b844"/><path d="M188.608,317.938a17.1,17.1,0,0,0,4.7-7.333h.4c1.754.159,3.507.239,5.42.239h.8V312.6l.159,6.7h-.877a41.3,41.3,0,0,1-10.362-1.116Z" transform="translate(-159.831 -275.211)" fill="#e2a63b"/><path d="M226.571,255.217v.4l.159,7.413h-.8c-1.993,0-3.826-.08-5.58-.239h-.4a16.354,16.354,0,0,0,.8-5.181,16.133,16.133,0,0,0-.4-3.428h.4c1.674.159,3.348.239,5.181.239l.717.4A.867.867,0,0,0,226.571,255.217Z" transform="translate(-186.396 -227.396)" fill="#f4b844"/><path d="M186.156,171a40.907,40.907,0,0,0,10.761,1.2c9.326,0,17.218-2.312,17.218-5.261h.159v9.406c-8.689,0-15.783,2.073-16.66,4.7l-.717-.4q-2.63,0-5.022-.239h-.4a16.09,16.09,0,0,0-5.5-9.326Z" transform="translate(-157.619 -153.458)" fill="#e2a63b"/><g transform="translate(0 13.313)"><path d="M34.037,179.514h0a17.447,17.447,0,0,0-5.66-9.486,15.145,15.145,0,0,0-6.058-3.348,15.4,15.4,0,0,0-5.022-.8,17.139,17.139,0,1,0-.319,34.276,17.485,17.485,0,0,0,11.8-4.544,17.31,17.31,0,0,0,4.783-7.573,15.874,15.874,0,0,0,.8-5.1C34.356,181.826,34.037,180.63,34.037,179.514Z" transform="translate(0 -165.883)" fill="#fedb41"/><path d="M295.947,233.762v.16c-.239,2.79-7.971,5.1-17.218,5.1s-16.421-2.152-16.979-4.862v-.4a1.012,1.012,0,0,1,.08-.478c.877-2.631,7.971-4.7,16.66-4.7h.239C288.136,228.581,295.947,230.892,295.947,233.762Z" transform="translate(-221.815 -219.015)" fill="#fedb41"/></g><path d="M5.222,12.721a3.126,3.126,0,0,0,1.2-.264,6.249,6.249,0,0,0,1.247-.706,8.487,8.487,0,0,0,1.175-1.029,8.947,8.947,0,0,0,.99-1.234,6.551,6.551,0,0,0,.68-1.313A3.615,3.615,0,0,0,10.765,6.9a4.206,4.206,0,0,0-.409-1.808l-.277.079a3.109,3.109,0,0,1-.211.765,2.287,2.287,0,0,1-.449.693,2.261,2.261,0,0,1-.726.508,2.505,2.505,0,0,1-1.043.2,2.974,2.974,0,0,1-1.175-.224,2.77,2.77,0,0,1-.9-.607,2.691,2.691,0,0,1-.581-.891,2.853,2.853,0,0,1-.2-1.076,3.65,3.65,0,0,1,.158-.99,2.61,2.61,0,0,1,.594-1.036A3.419,3.419,0,0,1,6.733,1.7a5,5,0,0,1,1.973-.33,5.749,5.749,0,0,1,2.455.482,4.882,4.882,0,0,1,1.7,1.274,5.229,5.229,0,0,1,.99,1.821,7.092,7.092,0,0,1,.323,2.138,7.452,7.452,0,0,1-.422,2.527,8.968,8.968,0,0,1-1.128,2.178,10.23,10.23,0,0,1-1.61,1.788,11.675,11.675,0,0,1-1.867,1.346,9.4,9.4,0,0,1-1.9.845,5.839,5.839,0,0,1-1.716.29,5.659,5.659,0,0,1-1.089-.125,5.867,5.867,0,0,1-1.3-.436,6.061,6.061,0,0,1-1.32-.845A5.606,5.606,0,0,1,.656,13.3a7.364,7.364,0,0,1-.831-1.96A10,10,0,0,1-.493,8.683V.289H-4.148V-2.68H-.493V-7.049l-.079-.04a1.471,1.471,0,0,1-.257.059,1.827,1.827,0,0,1-.257.02,1.629,1.629,0,0,1-.66-.139A1.791,1.791,0,0,1-2.3-7.524a1.865,1.865,0,0,1-.383-.561,1.672,1.672,0,0,1-.145-.693A2.027,2.027,0,0,1-2.67-9.53a2.2,2.2,0,0,1,.482-.726,2.607,2.607,0,0,1,.812-.548,2.8,2.8,0,0,1,1.148-.218,2.625,2.625,0,0,1,1.518.416,3.111,3.111,0,0,1,.977,1.089A5.075,5.075,0,0,1,2.794-8a9.219,9.219,0,0,1,.158,1.7V-2.68h11.72V.289H2.952V8.261a11.063,11.063,0,0,0,.125,1.8,5.819,5.819,0,0,0,.33,1.241,2.676,2.676,0,0,0,.462.779,2.177,2.177,0,0,0,.508.429,1.351,1.351,0,0,0,.475.178A2.636,2.636,0,0,0,5.222,12.721Z" transform="translate(12.969 27.805)" fill="#e2a63b"/></g></g></svg>