<svg xmlns="http://www.w3.org/2000/svg" width="25.881" height="30.913" viewBox="0 0 25.881 30.913">
  <path id="Icon_awesome-user" data-name="Icon awesome-user" d="M11.441,11.121l.279-.006a6.478,6.478,0,0,0,6.259-6.532,6.537,6.537,0,1,0-6.537,6.537Zm4.576,3.4h-.853a8.891,8.891,0,0,1-7.447,0H6.864A6.866,6.866,0,0,0,0,21.383v2.125a2.452,2.452,0,0,0,2.452,2.452H20.43a2.452,2.452,0,0,0,2.452-2.452V21.383A6.866,6.866,0,0,0,16.017,14.518Z" transform="translate(1.5 3.454)" fill="none" stroke="#fff" stroke-width="3"/>
</svg>
