<svg xmlns="http://www.w3.org/2000/svg" width="47.685" height="47.685" viewBox="0 0 47.685 47.685"><g transform="translate(0 29.798) rotate(-45)"><path d="M40.907,4.033a2.8,2.8,0,0,1-2.8-2.8V0H4.033V1.235a2.8,2.8,0,0,1-2.8,2.8H0v17.23H1.235a2.8,2.8,0,0,1,2.8,2.8V25.3H38.108V24.061a2.8,2.8,0,0,1,2.8-2.8h1.235V4.033Z" transform="translate(0 0)" fill="#7a0553"/><path d="M19.836,4.033a2.8,2.8,0,0,1-2.8-2.8V0H0V25.3H17.038V24.061a2.8,2.8,0,0,1,2.8-2.8h1.235V4.033Z" transform="translate(21.071 0)" fill="#4d0033"/><path d="M0,4.157A3.824,3.824,0,0,1,3.965,0,3.824,3.824,0,0,1,7.93,4.157,3.813,3.813,0,0,1,3.965,8.314,3.813,3.813,0,0,1,0,4.157ZM12.727.213h3.6L6.14,15.136h-3.6ZM4.9,4.157C4.9,2.729,4.434,2.3,3.965,2.3s-.938.426-.938,1.855.469,1.855.938,1.855S4.9,5.585,4.9,4.157Zm6.033,7.035A3.824,3.824,0,0,1,14.9,7.035a3.824,3.824,0,0,1,3.965,4.157A3.813,3.813,0,0,1,14.9,15.349,3.813,3.813,0,0,1,10.936,11.192Zm4.9,0c0-1.428-.469-1.855-.938-1.855s-.938.426-.938,1.855.469,1.855.938,1.855S15.839,12.62,15.839,11.192Z" transform="translate(11.637 4.973)" fill="#fff"/><rect width="3.731" height="2.469" transform="translate(0 11.413)" fill="#bf4095"/><rect width="3.731" height="2.469" transform="translate(38.41 11.413)" fill="#bf4095"/><g transform="translate(21.071 5.187)"><path d="M0,10.1,6.9,0h-3.6L0,4.823Z" fill="#9b9b9b"/><path d="M3.965,0A3.824,3.824,0,0,0,0,4.157,3.813,3.813,0,0,0,3.965,8.314,3.813,3.813,0,0,0,7.93,4.157,3.824,3.824,0,0,0,3.965,0Zm0,6.012c-.469,0-.938-.426-.938-1.855S3.5,2.3,3.965,2.3s.938.426.938,1.855S4.434,6.012,3.965,6.012Z" transform="translate(1.503 6.822)" fill="#9b9b9b"/></g></g></svg>