<svg xmlns="http://www.w3.org/2000/svg" width="58" height="58" viewBox="0 0 58 58"><g transform="translate(-943 -807)"><circle cx="29" cy="29" r="29" transform="translate(943 807)" fill="#7a0553"/><g transform="translate(950.625 814.403)"><path d="M34.358,11.554a4.242,4.242,0,1,1-4.242-4.242A4.242,4.242,0,0,1,34.358,11.554Z" transform="translate(5.778)" fill="#fff"/><g transform="translate(3.375 8.726)"><path d="M35.895,16.516a5.889,5.889,0,0,1-1.379-.168l-4.189,4.268a.171.171,0,0,0,0,.247l6.654,7.087a1.147,1.147,0,0,1,0,1.626,1.152,1.152,0,0,1-1.626,0l-6.628-7.061a.181.181,0,0,0-.256,0L26.855,24.16A7.115,7.115,0,0,1,21.782,26.3,7.258,7.258,0,0,1,16.6,24.1l-1.555-1.582a.181.181,0,0,0-.256,0L8.165,29.577a1.152,1.152,0,0,1-1.626,0,1.147,1.147,0,0,1,0-1.626l6.654-7.087a.188.188,0,0,0,0-.247L3.675,10.931a.174.174,0,0,0-.3.124V30.434A2.836,2.836,0,0,0,6.2,33.262H37.309a2.836,2.836,0,0,0,2.828-2.828V14.7A5.863,5.863,0,0,1,35.895,16.516Z" transform="translate(-3.375 -7.811)" fill="#fff"/><path d="M29.8,11.265a5.873,5.873,0,0,1,.725-2.828H5.975a2.759,2.759,0,0,0-1.75.619L18.091,23.169a4.844,4.844,0,0,0,6.91,0l7.114-7.237A5.847,5.847,0,0,1,29.8,11.265Z" transform="translate(-3.157 -8.438)" fill="#fff"/></g></g></g></svg>