<svg xmlns="http://www.w3.org/2000/svg" width="351" height="204.746" viewBox="0 0 351 204.746">
  <g id="Group_67080" data-name="Group 67080" transform="translate(-654.415 -925.055)">
    <path id="Path_21244" data-name="Path 21244" d="M482.324,481.349c15.452,21.249,71,9.994,71,9.994l43.05-38.712,5.795-5.242-9.72-19.839s-3.091.816-8.391,2.272C556.232,437.588,469.281,463.485,482.324,481.349Z" transform="translate(275.467 582.289)" fill="#efb7b9"/>
    <path id="Path_21245" data-name="Path 21245" d="M481,429.822c1.9,6.355,7.108,15.874,12.285,22.809l5.795-5.242-9.72-19.839S486.238,428.366,481,429.822Z" transform="translate(378.56 583.144)" opacity="0.1"/>
    <path id="Path_21248" data-name="Path 21248" d="M449.943,353.406,330.96,334.8V443.051l113.049-5.687Z" transform="translate(512.39 620.634)" fill="#6c63ff"/>
    <path id="Path_21249" data-name="Path 21249" d="M449.943,353.406,330.96,334.8V443.051l113.049-5.687Z" transform="translate(512.39 620.634)" fill="#7a0553"/>
    <path id="Path_21250" data-name="Path 21250" d="M550.647,334.8,407.96,345.061l7.9,94.2,134.791,3.787Z" transform="translate(292.703 620.634)" fill="#6c63ff"/>
    <path id="Path_21251" data-name="Path 21251" d="M550.647,334.8,407.96,345.061l7.9,94.2,134.791,3.787Z" transform="translate(292.703 620.634)" fill="#7a0553"/>
    <path id="Path_21252" data-name="Path 21252" d="M530.1,312.55l43.869,33.04L431.277,355.85,407.96,322.039Z" transform="translate(269.386 612.505)" fill="#bf4095"/>
    <path id="Path_21253" data-name="Path 21253" d="M465.144,327.123,358.028,314.59,303.08,344.6l118.983,18.606Z" transform="translate(540.271 613.274)" fill="#bf4095"/>
    <path id="Path_21254" data-name="Path 21254" d="M330.96,356.833v148l55.736-5.495,24.245-2.375,7.386-.742,24.23-2.391,33.47-3.3V347.33l-118.968,7.781Z" transform="translate(486.307 624.765)" fill="#7a0553"/>
    <path id="Path_21255" data-name="Path 21255" d="M424.84,341.71V486.045l44.673,8.241,21.726,4.009,50.2,9.266v-148Z" transform="translate(275.823 622.239)" fill="#6c63ff"/>
    <path id="Path_21256" data-name="Path 21256" d="M424.84,341.71V486.045l44.673,8.241,21.726,4.009,50.2,9.266v-148Z" transform="translate(275.823 622.239)" fill="#57003a"/>
    <path id="Path_21257" data-name="Path 21257" d="M491.227,378.484,448.147,347.33l-145.067,9.5L324.435,391.4Z" transform="translate(514.187 627.165)" fill="#6c63ff"/>
    <path id="Path_21258" data-name="Path 21258" d="M491.227,378.484,448.147,347.33l-145.067,9.5L324.435,391.4Z" transform="translate(514.187 627.165)" fill="#bf4095"/>
    <path id="Path_21259" data-name="Path 21259" d="M471.088,341.71l116.6,17.849-37.951,32.668-124.9-20.135Z" transform="translate(229.575 624.673)" fill="#6c63ff"/>
    <path id="Path_21260" data-name="Path 21260" d="M471.088,341.71l116.6,17.849-37.951,32.668-124.9-20.135Z" transform="translate(229.575 624.673)" fill="#bf4095"/>
    <path id="Path_21261" data-name="Path 21261" d="M457.33,454.833l21.726,4.009V428l-20.35-4.93Z" transform="translate(288.007 659.311)" fill="#fff" opacity="0.1"/>
    <path id="Path_21262" data-name="Path 21262" d="M373.08,435.96v20.4l24.244-2.376V435.96Z" transform="translate(499.924 665.114)" fill="#fff" opacity="0.1"/>
  </g>
</svg>
