<svg xmlns="http://www.w3.org/2000/svg" width="20.444" height="18.169" viewBox="0 0 20.444 18.169"><path d="M14.29,2.957l3.2,3.2a.347.347,0,0,1,0,.49L9.739,14.4l-3.294.366A.69.69,0,0,1,5.682,14l.366-3.294L13.8,2.957A.347.347,0,0,1,14.29,2.957Zm5.75-.813L18.307.412a1.388,1.388,0,0,0-1.959,0L15.092,1.668a.347.347,0,0,0,0,.49l3.2,3.2a.347.347,0,0,0,.49,0L20.04,4.1A1.388,1.388,0,0,0,20.04,2.144Zm-6.41,10.148V15.9H2.272V4.547h8.156a.436.436,0,0,0,.3-.124L12.149,3a.426.426,0,0,0-.3-.728H1.7A1.7,1.7,0,0,0,0,3.979V16.472a1.7,1.7,0,0,0,1.7,1.7H14.2a1.7,1.7,0,0,0,1.7-1.7v-5.6a.427.427,0,0,0-.728-.3l-1.42,1.42A.436.436,0,0,0,13.629,12.291Z" transform="translate(0 -0.007)" fill="#7a0553"/></svg>