<svg xmlns="http://www.w3.org/2000/svg" xmlns:xlink="http://www.w3.org/1999/xlink" width="48.575" height="45.177" viewBox="0 0 48.575 45.177"><defs><filter id="a" x="0" y="0" width="48.575" height="45.177" filterUnits="userSpaceOnUse"><feOffset dy="3" input="SourceAlpha"/><feGaussianBlur stdDeviation="3" result="b"/><feFlood flood-opacity="0.161"/><feComposite operator="in" in2="b"/><feComposite in="SourceGraphic"/></filter></defs><g transform="matrix(1, 0, 0, 1, 0, 0)" filter="url(#a)"><path d="M28.033,15.994,30.542,4.953A1.274,1.274,0,0,0,29.3,3.4H8.451L7.964,1.019A1.274,1.274,0,0,0,6.716,0H1.274A1.274,1.274,0,0,0,0,1.274v.849A1.274,1.274,0,0,0,1.274,3.4H4.983l3.729,18.23a2.973,2.973,0,1,0,3.559.455H23.4a2.972,2.972,0,1,0,3.376-.552l.293-1.289a1.274,1.274,0,0,0-1.242-1.556H11.578l-.347-1.7h15.56A1.274,1.274,0,0,0,28.033,15.994Z" transform="translate(9 6)" fill="#fff"/></g></svg>