<svg xmlns="http://www.w3.org/2000/svg" width="30.306" height="33.335" viewBox="0 0 30.306 33.335"><g transform="translate(-1373 -508)"><path d="M30.643,12.318a14.372,14.372,0,0,1,2.182-6.569L27.976,1.08a8.908,8.908,0,0,1-5.252,2.1,9.344,9.344,0,0,1-5.144-1,10.007,10.007,0,0,1-5.152,1,9.54,9.54,0,0,1-5-1.9L2.568,5.94A14.065,14.065,0,0,1,4.56,12.318a11.127,11.127,0,0,1-.921,4.248q-.463,1.288-.809,2.614a12.716,12.716,0,0,0-.312,1.758,8.382,8.382,0,0,0,1.7,5.243,19.682,19.682,0,0,0,4.47,3.761,29.6,29.6,0,0,0,5.25,2.139l1.02.457c.32.147.664.292,1.022.449a4.232,4.232,0,0,1,1.6,1.428,4.609,4.609,0,0,1,1.644-1.428q.663-.274,1.315-.574l.77-.331c.263-.125.606-.269,1.024-.428q.775-.3,1.558-.57a13.137,13.137,0,0,0,2.623-1.143,22.526,22.526,0,0,0,4.415-3.708,8.26,8.26,0,0,0,1.755-5.295,18.446,18.446,0,0,0-1.168-4.23,11.08,11.08,0,0,1-.873-4.391Z" transform="translate(1370.481 506.92)" fill="#7a0553"/><text transform="translate(1384 534)" fill="#fff" font-size="27" font-family="SFUIDisplay-Medium, SF UI Display" font-weight="500"><tspan x="0" y="0">!</tspan></text></g></svg>