<svg xmlns="http://www.w3.org/2000/svg" width="22.072" height="20.251" viewBox="0 0 22.072 20.251"><path d="M19,4.5a6.609,6.609,0,0,0-4.966,2.307A6.609,6.609,0,0,0,9.07,4.5,6.011,6.011,0,0,0,3,10.57c0,4.172,3.752,7.571,9.436,12.736l1.6,1.446,1.6-1.457c5.684-5.154,9.436-8.553,9.436-12.725A6.011,6.011,0,0,0,19,4.5ZM14.146,21.661l-.11.11-.11-.11C8.673,16.9,5.207,13.759,5.207,10.57A3.772,3.772,0,0,1,9.07,6.707a4.314,4.314,0,0,1,3.94,2.6h2.064A4.287,4.287,0,0,1,19,6.707a3.772,3.772,0,0,1,3.863,3.863C22.865,13.759,19.4,16.9,14.146,21.661Z" transform="translate(-3 -4.5)" fill="#fff"/></svg>