<svg xmlns="http://www.w3.org/2000/svg" width="50.281" height="43.996" viewBox="0 0 50.281 43.996"><path d="M45.567,0H33a4.715,4.715,0,0,0-4.714,4.714v12.57A4.715,4.715,0,0,0,33,22h7.856v6.285a6.291,6.291,0,0,1-6.285,6.285h-.786a2.351,2.351,0,0,0-2.357,2.357v4.714A2.351,2.351,0,0,0,33.782,44h.786A15.708,15.708,0,0,0,50.281,28.283V4.714A4.715,4.715,0,0,0,45.567,0ZM17.284,0H4.714A4.715,4.715,0,0,0,0,4.714v12.57A4.715,4.715,0,0,0,4.714,22H12.57v6.285a6.291,6.291,0,0,1-6.285,6.285H5.5a2.351,2.351,0,0,0-2.357,2.357v4.714A2.351,2.351,0,0,0,5.5,44h.786A15.708,15.708,0,0,0,22,28.283V4.714A4.715,4.715,0,0,0,17.284,0Z" transform="translate(50.281 43.996) rotate(180)" fill="#7a0553"/></svg>