<svg xmlns="http://www.w3.org/2000/svg" xmlns:xlink="http://www.w3.org/1999/xlink" width="61.687" height="56.938" viewBox="0 0 61.687 56.938"><defs><filter id="a" x="0" y="0" width="61.687" height="56.938" filterUnits="userSpaceOnUse"><feOffset dy="3" input="SourceAlpha"/><feGaussianBlur stdDeviation="3" result="b"/><feFlood flood-opacity="0.161"/><feComposite operator="in" in2="b"/><feComposite in="SourceGraphic"/></filter></defs><g transform="matrix(1, 0, 0, 1, 0, 0)" filter="url(#a)"><path d="M39.133,22.327l3.5-15.412A1.778,1.778,0,0,0,40.9,4.742H11.8l-.679-3.32A1.778,1.778,0,0,0,9.376,0h-7.6A1.778,1.778,0,0,0,0,1.778V2.964A1.778,1.778,0,0,0,1.778,4.742H6.957L12.162,30.19a4.15,4.15,0,1,0,4.968.635H32.664a4.148,4.148,0,1,0,4.713-.771l.409-1.8a1.778,1.778,0,0,0-1.734-2.172H16.162l-.485-2.371H37.4A1.778,1.778,0,0,0,39.133,22.327Z" transform="translate(9.5 6.5)" fill="#bf4095" stroke="#fff" stroke-width="1"/></g></svg>