<svg xmlns="http://www.w3.org/2000/svg" xmlns:xlink="http://www.w3.org/1999/xlink" width="150" height="148" viewBox="0 0 150 148"><defs><filter id="a" x="0" y="0" width="150" height="148" filterUnits="userSpaceOnUse"><feOffset dy="3" input="SourceAlpha"/><feGaussianBlur stdDeviation="3" result="b"/><feFlood flood-opacity="0.161"/><feComposite operator="in" in2="b"/><feComposite in="SourceGraphic"/></filter><clipPath id="c"><rect width="58.656" height="51.786" fill="none"/></clipPath><clipPath id="d"><path d="M303.2,203.466l58.155.037.264,71.743-58.155-.037Z" transform="translate(-303.204 -203.466)" fill="none"/></clipPath><filter id="e" x="48.936" y="81.172" width="62.508" height="43.996" filterUnits="userSpaceOnUse"><feOffset dy="3" input="SourceAlpha"/><feGaussianBlur stdDeviation="3" result="f"/><feFlood flood-opacity="0.161"/><feComposite operator="in" in2="f"/><feComposite in="SourceGraphic"/></filter><clipPath id="g"><rect width="58.656" height="51.786" transform="translate(0 16.606) rotate(-16.446)" fill="none"/></clipPath><clipPath id="h"><path d="M277.706,207.871l55.786-16.429,20.564,68.733L298.27,276.6Z" transform="translate(-277.706 -191.443)" fill="none"/></clipPath></defs><g transform="translate(9.489 5.706)"><g transform="matrix(1, 0, 0, 1, -9.49, -5.71)" filter="url(#a)"><g transform="translate(9 6)" fill="#fff" stroke="#707070" stroke-width="1" stroke-dasharray="2"><rect width="132" height="130" rx="5" stroke="none"/><rect x="0.5" y="0.5" width="131" height="129" rx="4.5" fill="none"/></g></g><g transform="translate(17.583 9.085)"><g transform="translate(10.262 18.216)"><g transform="translate(0 0)"><rect width="69.816" height="82.72" fill="#545454"/></g></g><g transform="translate(15.174 23.37)"><g transform="translate(0)" clip-path="url(#c)"><g transform="translate(0.276 -13.037)"><path d="M303.2,203.466l58.155.037.264,71.743-58.155-.037Z" transform="translate(-303.204 -203.466)" fill="#fff" fill-rule="evenodd"/><g clip-path="url(#d)"><g transform="translate(-2.011 36.205)"><path d="M300.164,300.433s13.011-24.842,16.957-24.419c4.826.517,12.1,20.518,12.1,20.518s5.887-12.4,10.247-12.1c5.534.377,25.32,28.557,25.32,28.557l-65.617-1.009Z" transform="translate(-299.174 -276.009)" fill="#847f83" fill-rule="evenodd"/></g></g></g></g></g><g transform="translate(48.216 35.068)"><g transform="translate(0 0)"><circle cx="8.014" cy="8.014" r="8.014" transform="matrix(0.862, -0.506, 0.506, 0.862, 0, 8.117)" fill="#8c0b4e"/></g></g><g transform="translate(0 10.04)"><g transform="translate(0 0)"><path d="M0,0H69.816V82.72H0Z" transform="translate(0 19.723) rotate(-16.409)" fill="#777676"/><g transform="matrix(1, 0, 0, 1, -27.07, -24.83)" filter="url(#e)"><text transform="translate(81.43 104.5) rotate(-16)" fill="#fff" font-size="13" font-family="SFUIDisplay-Medium, SF UI Display" font-weight="500"><tspan x="-20.716" y="0">Upload</tspan></text></g></g></g><g transform="translate(6.151 16.738)"><g transform="translate(0 0)" clip-path="url(#g)"><g transform="translate(-3.426 -12.405)"><path d="M277.706,207.871l55.786-16.429,20.564,68.733L298.27,276.6Z" transform="translate(-277.706 -191.443)" fill="#fff" fill-rule="evenodd"/><g clip-path="url(#h)"><g transform="translate(16.184 46.614)"><path d="M310.135,313.1s5.446-27.509,9.351-28.22c4.774-.87,17.416,16.253,17.416,16.253s2.137-13.557,6.4-14.507c5.414-1.2,32.369,20.22,32.369,20.22l-63.218,17.609Z" transform="translate(-310.135 -284.844)" fill="#847f83" fill-rule="evenodd"/></g></g></g></g></g><g transform="translate(43.45 31.295)"><circle cx="8.014" cy="8.014" r="8.014" transform="translate(0 11.698) rotate(-46.871)" fill="#b7b7b7"/></g><g transform="translate(50.906 0)"><g transform="translate(0 0)"><circle cx="13.207" cy="13.207" r="13.207" transform="translate(0 19.278) rotate(-46.871)" fill="#8c0b4e"/></g></g><g transform="translate(62.09 10.968)"><path d="M404.761,204.737V211.3h6.316v1.677h-6.316v6.624h-1.789v-6.624h-6.316V211.3h6.316v-6.568Z" transform="translate(-396.656 -204.737)" fill="#fff"/></g></g></g></svg>