<svg xmlns="http://www.w3.org/2000/svg" width="74.948" height="68.765" viewBox="0 0 74.948 68.765"><path d="M57.338,4.5a22.441,22.441,0,0,0-16.863,7.832A22.441,22.441,0,0,0,23.611,4.5,20.411,20.411,0,0,0,3,25.111C3,39.276,15.741,50.818,35.04,68.356l5.434,4.909,5.434-4.947c19.3-17.5,32.04-29.043,32.04-43.208A20.411,20.411,0,0,0,57.338,4.5ZM40.849,62.772l-.375.375-.375-.375c-17.838-16.151-29.6-26.832-29.6-37.662A12.808,12.808,0,0,1,23.611,11.995a14.65,14.65,0,0,1,13.378,8.844H44c1.949-5.134,7.57-8.844,13.341-8.844A12.808,12.808,0,0,1,70.454,25.111C70.454,35.941,58.687,46.621,40.849,62.772Z" transform="translate(-3 -4.5)" fill="#7a0553"/></svg>