<svg xmlns="http://www.w3.org/2000/svg" xmlns:xlink="http://www.w3.org/1999/xlink" width="794.334" height="633.909" viewBox="0 0 794.334 633.909"><defs><linearGradient id="a" x1="0.5" y1="1" x2="0.5" gradientUnits="objectBoundingBox"><stop offset="0" stop-color="gray" stop-opacity="0.251"/><stop offset="0.54" stop-color="gray" stop-opacity="0.122"/><stop offset="1" stop-color="gray" stop-opacity="0.102"/></linearGradient></defs><g transform="translate(0 -0.01)"><path d="M364.314,76.236c24.474-21.81,62.9-26.239,97.872-24.522C572.041,57.176,671.2,110.2,756.972,170.188c31.05,21.715,61.622,45.116,81.779,75.02,41.029,60.883,28.863,145.214-28.2,195.363-19.409,17.063-42.937,30.143-67.1,41.744-42.937,20.618-89.3,37.164-138.05,41.879-34.771,3.355-69.971.628-104.528-4.063-96.576-13.088-191.348-42.07-270.789-91.591-34.843-21.731-67.689-48.741-82.049-83.9s-5.168-79.672,30.446-100.5c14.718-8.6,32.314-12.491,49.537-16.141,25.357-5.375,51.119-10.671,73.995-21.588,23.631-11.283,51.62-33.1,46.913-58.044C343.871,121.55,339.9,97.99,364.314,76.236Z" transform="translate(-108.91 -51.37)" fill="#15a7af" opacity="0.1"/><circle cx="25.047" cy="25.047" r="25.047" transform="translate(113.369 77.845)" fill="#15a7af" opacity="0.1"/><circle cx="15.505" cy="15.505" r="15.505" transform="translate(70.44 27.752)" fill="#15a7af" opacity="0.1"/><circle cx="9.542" cy="9.542" r="9.542" transform="translate(726.406 81.423)" fill="#15a7af" opacity="0.1"/><ellipse cx="66.982" cy="6.679" rx="66.982" ry="6.679" transform="translate(481.594 620.56)" fill="#6c63ff" opacity="0.1"/><path d="M190.235,487.31l-.294,15.863-2.354,128.58-20.149,47.183-69.439.8V494.617l72.468-5.741Z" transform="translate(-20.077 -99.834)" fill="#5f5d7e"/><path d="M190.235,487.31l-.294,15.863-2.354,128.58-20.149,47.183-69.439.8V494.617l72.468-5.741Z" transform="translate(-20.077 -99.834)" opacity="0.1"/><path d="M208.126,487.31l-.294,15.863-2.354,128.58L185.33,678.936l5.3-175.461-.016-.111-2.258-14.487Z" transform="translate(-37.969 -99.834)" fill="#5f5d7e"/><path d="M170.468,488.876l19.767-1.566-.294,15.863-17.215.191L98,504.2v-9.581Z" transform="translate(-20.077 -99.834)" opacity="0.1"/><path d="M978.171,493.763V677.811H962.006L897.33,630.636V488.571l57.782-5.431,3.546,1.63,3.348,1.543Z" transform="translate(-183.837 -98.979)" fill="#5f5d7e"/><rect width="16.165" height="193.041" transform="translate(778.169 385.791)" opacity="0.1"/><path d="M978.171,484.77v10.583l-16.165.183-64.676.716v-7.681l57.782-5.431,3.546,1.63,3.348,1.543V484.77Z" transform="translate(-183.837 -98.979)" opacity="0.1"/><path d="M794.334,473.747v15L0,497.6V478.518l74.742-15.107,650.416-4.771Z" transform="translate(0 -93.96)" fill="#5f5d7e"/><path d="M794.334,477.64v15L0,501.494V482.411Z" transform="translate(0 -97.853)" opacity="0.1"/><rect width="278.232" height="216.029" rx="22.82" transform="translate(290.62 155.028)" fill="#474157"/><rect width="233.863" height="176.224" transform="translate(313.01 174.517)" fill="#ededf4"/><circle cx="3.833" cy="3.833" r="3.833" transform="translate(300.05 258.793)" fill="#e6e8ec"/><circle cx="6.321" cy="6.321" r="6.321" transform="translate(550.913 256.717)" fill="#e6e8ec"/><path d="M852.856,513.128a9.945,9.945,0,0,0-.9-2.8c.6-2.059.994-3.324.994-3.324a4.643,4.643,0,0,0-.1-.8,12.205,12.205,0,0,0-12.364-10.241c-4.771.087-13.819.406-23.854,1.535.573-4.015,1.256-8.818,1.972-13.764l1.312.143a6.284,6.284,0,0,1,.938.048h.422a4.325,4.325,0,0,0,2.91-.891,1.717,1.717,0,0,0-.533-2.815,7.093,7.093,0,0,0,6.226-2.608,5.566,5.566,0,0,0,0-6.472c-1.678-2.385-5.232-3.976-5.423-6.782-.1-1.59.962-3.021,1.8-4.429a18.5,18.5,0,0,0-2.918-22.224,43.527,43.527,0,0,0-3.53-3.141c-1.749-6.425-3.578-12.165-4.119-12.348-.7-.231-1.9-1.741-3.045-3.037a14.626,14.626,0,0,0-.056-3.284c-.843-5.566-6.361-9.542-9.4-14.455s-3.586-10.933-2.807-16.563,2.743-11.076,4.342-16.57c1.193-4.079,2.187-8.412.851-12.46-.946-2.886-3.006-5.383-5.129-7.729-5.1-5.637-10.973-10.917-18.224-14.312a36.217,36.217,0,0,0-16.133-3.451h-.056l-.875.048-.62.04-.62.064-.66.064h0c-.676.087-1.344.191-2.012.326a69.42,69.42,0,0,0-14.75-1.654h-.644a7.554,7.554,0,0,0-4.214.994c-1.765,1.232-1.988,3.443-2.521,5.367a14.893,14.893,0,0,1-5.725,7.951c-1.9,1.368-4.135,2.385-5.948,3.817s-3.228,3.578-2.743,5.693c.406,1.773,2.06,3.093,3.976,3.9-.23.286-.469.565-.692.859.374.151.8.286,1.137.4,2.385.708,4.954.8,7.371,1.439a16.137,16.137,0,0,1,1.956.66,27.926,27.926,0,0,0-3.268,13.136,28.3,28.3,0,0,0,14.805,24.824v.8c.247,8.3-.382,18.4-4.628,20.109s-8.309,3.642-10.814,4.89l-.8.421c-.66-.3-1.32-.62-1.964-.954,0,0-3.379-.4-2.791,2.179,0,0-10.217-1.59-15.823,2.775s-14.805,13.477-16.61,15.855-15.759,7.578-15.759,7.578,4.4-6.146,2.5-13.676c0,0-2.1-9.08-1.1-12.722s3.6-17.159,3.6-17.159.366-14.265-7.419-20.809S665.19,375.634,668.2,382a88.636,88.636,0,0,0,4.405,8.516s-18.614,4.421-12.007,11.323,8.4,6.91,8.4,6.91-2.2,17.04-2.608,20.212-3.976,27.344-3.976,27.344-.2,11.5,1.8,13.279a9.044,9.044,0,0,0,9.605,7.156s15.807-.4,20.212-2.179,19.608-11.3,21.214-10.7a.914.914,0,0,1,.31.207,2.256,2.256,0,0,1,.238.239c-1.59,3.522-5.359,15.481-3.753,21.357,0,0-1.4,16.642,7.005,21.993,0,0,12.205,20.61,7.6,31.7-.366.9-.692,1.725-.994,2.529-6.989-5.8-17.652-11.132-33.936-14.082-1.662-.3-3.316-.668-4.954-1.065-4.628-1.121-17.358-2.147-23.417,17.978a88.551,88.551,0,0,1-5.375,13.613c-2.385,4.826-5.033,11.744-5.089,18.606-.135,9.621,4.834,19.155,22.868,22.653.2,7.156,1.018,15.68,3.467,21.81,5,12.484,13.008,32.7,13.008,32.7s9.605,20.61,10.209,28.927c.39,5.447.962,12.587.564,17.493a7.769,7.769,0,0,1-.079.875,21.085,21.085,0,0,1-2.688,2.441c-1.4.8-6,5.749-6,6.934a21.173,21.173,0,0,0,.3,3.387c-2.179,1.9-3.371,3.976-3.371,6.043,0,10.75,30.509,19.465,68.143,19.465s68.135-8.746,68.135-19.465c0-9.812-25.444-17.922-58.506-19.258,6.894-2.751,13.016-5.637,15.553-7.951a3.722,3.722,0,0,0,1.2-1.638l-6.4-14.861s-.5.111-1.24.326l-.445-.668c-2.847-4.333-8.325-12.969-8.325-15.314,0-.867-1.447-6.409-3.546-14V622.45c20.88,3.18,47.787-1.145,47.787-1.145l.119-.064h.525v-.286c3.618-2,21.715-12.6,27.082-26.661,1.59-4.1-.39-9.979-4.326-16.26,2.751-6.83,9.542-24.474,8.866-31.511,0-.374-.048-.8-.048-1.209a20.71,20.71,0,0,0,.08-2.163c.8-10.337,7.156-29.221,7.156-29.221S852.936,513.605,852.856,513.128ZM717.684,467.2c1.447,2.544,3,5.8,3.61,7.116h0s-2.115-3.9-3.57-7.116ZM719.2,689.917l-.151.056v-.8a47.229,47.229,0,0,1,.151-6.218,7.281,7.281,0,0,0-.684-3.228,76.335,76.335,0,0,1-4.874-19.187c-.8-6.933-1.455-14.5-1.042-16.419.62-2.95,1.129-25.293.358-36.306l12.309,2.767,14.312,29.181s9.208,14.249,12.062,25.492v11.259a27.51,27.51,0,0,1-4.3,9.335c-1.9,2.6-3.753,5.232-5.47,7.951-.525.843-1.105,1.71-1.686,2.521-.191,0-9.6.549-11.2,2.314-.986,1.089-2.7,2.807-2.99,4.532l-.405.064c-1.845-5.494-6.353-13.318-6.353-13.318Z" transform="translate(-213.668 -108.294)" fill="url(#a)"/><path d="M801.248,769.349l-3.181,10.337L784.55,791.413l-19.878,5.709s-9.343-5.113-6.162-6.107a7.845,7.845,0,0,0,3-2.608c-1.113,4.055,7.737-1.169,7.737-1.169s22.86-16.3,25.245-18.089a17.974,17.974,0,0,1,5.089-2.33C800.572,768.371,801.248,769.349,801.248,769.349Z" transform="translate(-235.172 -197.943)" opacity="0.1"/><path d="M795.682,746.4,792.5,756.733l-13.517,11.728-19.878,5.709s-9.343-5.113-6.162-6.107a7.844,7.844,0,0,0,3-2.608,39.769,39.769,0,0,0,2.656-3.833c1.7-2.735,3.546-5.375,5.431-7.951a28.623,28.623,0,0,0,5.017-13.207c1.391-10.933-12.722-33-12.722-33L730.68,654.79l35.781,4.373s19.282,66.194,19.282,69.375c0,2.385,5.439,11.013,8.269,15.362C795.006,745.419,795.682,746.4,795.682,746.4Z" transform="translate(-229.606 -174.991)" fill="#fdc2cc"/><ellipse cx="67.681" cy="19.52" rx="67.681" ry="19.52" transform="translate(478.548 593.566)" fill="#5f5d7e"/><path d="M805.161,782.159a3.816,3.816,0,0,1-1.193,1.646c-4.914,4.508-23.289,11.211-34.644,14.853a80.374,80.374,0,0,1-9.088,2.584c-2.783.2-8.547-1.59-12.523-4.031s-.4-5.908,1.209-7.7,11.132-2.322,11.132-2.322c-4.572,7.609,6.751.93,6.751.93s22.86-16.3,25.245-18.089,6.759-2.783,6.759-2.783Z" transform="translate(-232.724 -198.031)" fill="#15a7af"/><path d="M805.161,782.159a3.816,3.816,0,0,1-1.193,1.646c-4.914,4.508-23.289,11.211-34.644,14.853a80.374,80.374,0,0,1-9.088,2.584c-2.783.2-8.547-1.59-12.523-4.031s-.4-5.908,1.209-7.7,11.132-2.322,11.132-2.322c-4.572,7.609,6.751.93,6.751.93s22.86-16.3,25.245-18.089,6.759-2.783,6.759-2.783Z" transform="translate(-232.724 -198.031)" opacity="0.3"/><path d="M810,788.09c-4.914,4.508-23.289,11.211-34.644,14.853C785.649,794.228,802.9,789.672,810,788.09Z" transform="translate(-238.759 -202.301)" opacity="0.1"/><g transform="translate(-2348.983 -8989.155)"><rect width="234.349" height="177.717" transform="translate(2662.1 9162.896)" fill="#e6e6e6"/><rect width="220.947" height="150.013" transform="translate(2668.801 9181.721)" fill="#fff"/><rect width="234.349" height="9.956" transform="translate(2662 9162.764)" fill="#13a7b1"/><circle cx="1.845" cy="1.845" r="1.845" transform="translate(2667.553 9166.009)" fill="#fff"/><circle cx="1.845" cy="1.845" r="1.845" transform="translate(2674.558 9166.009)" fill="#fff"/><circle cx="1.845" cy="1.845" r="1.845" transform="translate(2681.561 9166.009)" fill="#fff"/><rect width="43.214" height="46.883" transform="translate(2695.986 9199.547)" fill="rgba(21,166,177,0.11)"/><rect width="43.214" height="46.883" transform="translate(2757.667 9199.547)" fill="rgba(21,166,177,0.11)"/><rect width="43.214" height="46.883" transform="translate(2819.348 9199.547)" fill="rgba(21,166,177,0.11)"/><rect width="43.214" height="46.883" transform="translate(2695.986 9274.786)" fill="rgba(21,166,177,0.11)"/><rect width="43.214" height="46.883" transform="translate(2757.667 9274.786)" fill="rgba(21,166,177,0.11)"/><rect width="43.214" height="46.883" transform="translate(2819.348 9274.786)" fill="rgba(21,166,177,0.11)"/><path d="M445.7,390.122,453.6,387l.918,15.608s1.653,4.774,1.1,6.61c0,0,.367,3.122-.551,3.305a15.2,15.2,0,0,1-3.672.367c-.184-.184-.184-.734-.184-.734s-1.836,1.285-2.02,2.754c0,0-7.712,2.387-7.9.184s3.856-4.04,3.856-4.04l3.122-4.774Z" transform="translate(2322.412 8890.359)" fill="#006d74"/><path d="M491.669,390.122l7.9-3.122.918,15.608s1.652,4.774,1.1,6.61c0,0,.367,3.122-.551,3.305a15.2,15.2,0,0,1-3.672.367c-.184-.184-.184-.734-.184-.734s-1.836,1.285-2.02,2.754c0,0-7.712,2.387-7.9.184s3.856-4.04,3.856-4.04l3.122-4.774Z" transform="translate(2293.152 8890.359)" fill="#006d74"/><path d="M474.03,228.675s-1.681,4.7.267,6.816l-1.624,5.58s5.77,17.31,4.121,19.728c0,0-6.155,3.077-18.464-1.1l5-19.4-.714-8.188.989-3.847,2.2-.22s-1.319,4.946,1.1,5.715,4.777-5.592,4.777-5.592Z" transform="translate(2311.564 8978.698)" fill="#3f3d56"/><path d="M287.921,258.489l2.122.868,10.126-13.308,3.182,15.623,2.122-.386c1.361-13.469,2.471-27.207,1.109-33.7l-7.86-.338-3.568,11.38-1.736,7.715Z" transform="translate(2420.031 8979.183)" fill="#006d74"/><path d="M637.346,227.875s-2.9,4.025-2.754,5.65,1.977,28.107,1.977,28.107l4.308.212-1.271-19.068,1.059-5.155,2.613,24.011,5.3.141-4.731-31.144-.918-2.754Z" transform="translate(2199.374 8978.803)" fill="#006d74"/><path d="M639.785,399.95a5.98,5.98,0,0,0-3.359-1.691,18.057,18.057,0,0,0-3.925-.755l-1.469-1.17-4.513,2.343-2.536-1.726-1.178.418c.048-.208-3.657.434-3.657.434-.708.025-1.612.07-2.624.148-3.544.273-3.816,9.45-3.816,9.45a14.484,14.484,0,0,1,5.13-1.074L618.8,417.3a50.782,50.782,0,0,1,15.447,1.272l2.511-8.63,5.848-2.274S641.6,402.13,639.785,399.95Z" transform="translate(2213.301 8884.022)" fill="#3f3d56"/><path d="M302.872,386.684a4.927,4.927,0,0,0-2.768-1.393,14.877,14.877,0,0,0-3.234-.622l-1.21-.964-3.718,1.931-2.09-1.422-.971.345a18.589,18.589,0,0,0-3.013.357c-.583.021-1.328.057-2.162.122-2.92.225-3.144,7.786-3.144,7.786a11.935,11.935,0,0,1,4.227-.885l.789,22.141a41.845,41.845,0,0,1,12.727,1.048l2.069-20.206,4.819-1.874S304.37,388.481,302.872,386.684Z" transform="translate(2424.716 8892.606)" fill="#006d74"/></g><ellipse cx="13.541" cy="3.904" rx="13.541" ry="3.904" transform="translate(532.689 602.893)" opacity="0.1"/><rect width="13.915" height="102.969" transform="translate(538.7 503.828)" fill="#5f5d7e"/><path d="M791.915,690.113V702.04c-2.783-.859-9.136-4.477-13.915-7.323V685h2.9Z" transform="translate(-239.3 -181.18)" opacity="0.1"/><path d="M754.27,622.989s45.943-11.824,57.376-20.673,56.335,32.791,50.4,48.5-27.527,27.09-27.527,27.09-59.722,9.716-69.892-10.551S754.27,622.989,754.27,622.989Z" transform="translate(-234.439 -163.991)" fill="#474157"/><path d="M754.27,622.989s45.943-11.824,57.376-20.673,56.335,32.791,50.4,48.5-27.527,27.09-27.527,27.09-59.722,9.716-69.892-10.551S754.27,622.989,754.27,622.989Z" transform="translate(-234.439 -163.991)" opacity="0.1"/><path d="M749.27,616.989s45.943-11.824,57.376-20.673,56.335,32.791,50.4,48.5-27.527,27.09-27.527,27.09-59.722,9.716-69.892-10.551S749.27,616.989,749.27,616.989Z" transform="translate(-233.414 -162.761)" fill="#474157"/><path d="M688.864,466.991l-4.97-1.8a18.074,18.074,0,0,0,2.489-13.716s-2.091-9.112-1.1-12.8,3.578-17.215,3.578-17.215.051-14.668-7.685-21.228-13.1-11.927-10.122-5.566a97.692,97.692,0,0,0,4.539,9s-18.338,4.328-11.778,11.262,8.349,6.926,8.349,6.926-2.187,17.1-2.584,20.276-3.976,27.432-3.976,27.432-.2,11.529,1.789,13.318a8.993,8.993,0,0,0,9.542,7.156C678.352,490.01,695.225,471.364,688.864,466.991Z" transform="matrix(0.391, 0.921, -0.921, 0.391, 643.508, -452.963)" fill="#fdc2cc"/><path d="M827.525,432v11.132L816,446.888l-19.64,14.455-5.208,3.832-23.258-9.343-14.71-15.505s.716-.39,1.956-1.034l.8-.421c2.489-1.248,6.409-3.18,10.742-4.906s4.842-11.839,4.6-20.172V413c-.2-5.844-.8-10.623-.8-10.623s2.425-.461,5.956-.986c9.788-1.455,28.052-3.419,26.446,2.576a13.81,13.81,0,0,0,0,6.194c.048.223.1.453.151.676,1.654,7.228,6.774,14.8,6.774,14.8l15.9,5.725.445.159Z" transform="translate(-234.215 -122.768)" fill="#fdc2cc"/><path d="M844.17,443.608v-3.379a11.131,11.131,0,0,1,3.777,0c1.391.4,4.031,4.572,5.224,4.97s8.492,27.631,7.7,30.016-8.309,56.239-8.309,56.239l-15.147,16.7-2.982-45.919L844.17,475Z" transform="translate(-250.861 -131.001)" fill="#fdc2cc"/><path d="M744.776,601.77s-13.843,2.982-12.086,7.355,9.5,4.572,9.5,4.572Z" transform="translate(-229.986 -164.129)" fill="#fdc2cc"/><path d="M753.434,482.51l-10.535,22.7-12.523,9.144-2.187-14.129s-4.23-9.343-6.051-10.925a.915.915,0,0,0-.31-.207c-1.59-.6-16.7,8.945-21.071,10.734s-19.123-2.964-19.123-2.964l6-19.7s13.915-5.168,15.7-7.554,10.933-11.529,16.5-15.9,15.72-2.783,15.72-2.783l.159.064,2.608,1.129,7.554,18.487Z" transform="translate(-219.362 -133.168)" fill="#fdc2cc"/><path d="M726.294,743a47.438,47.438,0,0,0-.151,6.234c.056,2.218.151,4.1.151,4.1l-4.572,9.542s-15.7,5.168-13.12,2.982c.9-.755,1.36-2.719,1.59-5.319.39-4.914-.175-12.078-.565-17.54-.6-8.349-10.138-29.022-10.138-29.022s-7.951-20.276-12.921-32.8-3.18-35.184-3.18-35.184.8-17.1,4.373-22.264,17.493-6.957,17.493-6.957l6.528,21.651s5.367,20.276,7.355,23.258,1.391,38.564.6,42.341c-.406,1.932.278,9.542,1.042,16.475a77.377,77.377,0,0,0,4.834,19.242A7.346,7.346,0,0,1,726.294,743Z" transform="translate(-219.853 -167.202)" fill="#fdc2cc"/><path d="M732.8,787.463,728.226,797s-15.7,5.168-13.12,2.982c.9-.755,1.36-2.719,1.59-5.319.565-.565,1.169-1.185,1.789-1.821a40.145,40.145,0,0,1,14.193-9.486h0C732.7,785.578,732.8,787.463,732.8,787.463Z" transform="translate(-226.356 -201.331)" opacity="0.1"/><path d="M738.2,801.85a.465.465,0,0,1,0,.111c-.8,3.777-13.915,8.945-13.915,8.945s-8.349,1.391-13.12,2.584a3.3,3.3,0,0,1-1.121.1c-3.682-.278-3.849-7.363-3.849-8.452s4.572-6.162,5.964-6.957a42.651,42.651,0,0,0,4.421-4.238,41.029,41.029,0,0,1,14.487-9.677h0S738.84,797.93,738.2,801.85Z" transform="translate(-224.59 -201.518)" fill="#15a7af"/><path d="M738.2,801.846a.465.465,0,0,1,0,.111c-.8,3.777-13.915,8.945-13.915,8.945s-8.349,1.391-13.12,2.584a3.3,3.3,0,0,1-1.121.1c-3.682-.278-3.849-7.363-3.849-8.452s4.572-6.162,5.964-6.957a42.149,42.149,0,0,0,4.484-4.3,40.208,40.208,0,0,1,14.2-9.542l.223-.087S738.84,797.926,738.2,801.846Z" transform="translate(-224.59 -201.514)" opacity="0.3"/><path d="M739.2,806.346a.465.465,0,0,1,0,.111c-.8,3.777-13.915,8.945-13.915,8.945s-8.349,1.391-13.12,2.584a3.3,3.3,0,0,1-1.121.1c4.326-2.966,14.813-10.082,16.229-10.241S735.657,805.686,739.2,806.346Z" transform="translate(-225.582 -206.013)" opacity="0.1"/><path d="M807.52,410.837c-4.914,4.047-9.43,3.467-16.292,3.467-4.962,0-11.41,1.741-15.473-.493-.167-6.21-.8-11.434-.8-11.434s34.588-6.56,32.4,1.59A14.456,14.456,0,0,0,807.52,410.837Z" transform="translate(-238.677 -122.768)" opacity="0.1"/><path d="M814.284,377.737a28.426,28.426,0,0,1-28.426,28.426,19.8,19.8,0,0,1-2.179-.08h0a28.426,28.426,0,1,1,30.612-28.346Z" transform="translate(-235.088 -112.408)" fill="#fdc2cc"/><path d="M756.563,470.712l7.554,11.927-10.535,22.7-12.523,9.144-2.187-14.169s-4.23-9.343-6.051-10.925c.525-1.28.883-1.869.883-1.4,0,1.988,4.89,10.933,4.89,10.933,15.107-5.168,10.416-25.245,10.416-25.245s-1.876-17.89-2.608-22.6l2.608,1.129Z" transform="translate(-230.044 -133.257)" opacity="0.1"/><path d="M827.525,440.147v11.132L816,455.04,796.355,469.5l-5.208,3.832-23.258-9.343L753.18,448.48s.716-.39,1.956-1.034l.8-.421c10.233,4.652,21.31,6.361,29.221,6.973a88.256,88.256,0,0,0,10.941.247c29.952-4.771,30.843-12.006,30.1-14.575Z" transform="translate(-234.215 -130.919)" opacity="0.1"/><path d="M822.393,620.384a222.875,222.875,0,0,1-23.059,9.74c-13.716,4.97-43.931-1.59-47.708-2.584s-32.8-12.523-43.931-16.9-13.915-.8-16.5-1.193-4.373-5.367-4.771-6.759,7.156-13.517,11.331-19.679,16.7-4.97,18.487-5.367,14.312,0,14.312,0-.8-3.976,3.777-15.107-7.554-31.805-7.554-31.805c-8.349-5.367-6.957-22.065-6.957-22.065-1.988-7.355,4.373-24.251,4.373-22.264s4.89,10.933,4.89,10.933c15.107-5.168,10.416-25.245,10.416-25.245s-2.187-20.872-2.767-23.456,2.767-2.187,2.767-2.187q.97.5,1.956.954c10.464,4.93,21.914,6.727,30.04,7.347a88.257,88.257,0,0,0,10.941.246c36.313-5.86,29.881-15.2,29.642-15.537l1.765.628c13.12,9.542,9.144,41.148,9.144,41.148l-4.914,23.591-3.65,17.572s12.921,78.32,14.114,82.3S822.393,620.384,822.393,620.384Z" transform="translate(-220.536 -130.876)" fill="#14a7b0"/><path d="M734.245,622c-.8.6-9.74,19.083-3.181,24.251S734.245,622,734.245,622Z" transform="translate(-229.195 -168.273)" opacity="0.1"/><path d="M743.68,625.27c.2.6,18.686,30.016,28.823,32.4Z" transform="translate(-232.269 -168.943)" opacity="0.1"/><path d="M798.928,332.451l-2.958.628a19.941,19.941,0,0,1,2.5-.739Z" transform="translate(-242.982 -108.931)" opacity="0.1"/><path d="M833.729,462.769l-5.566,23.576a28.8,28.8,0,0,1-7.729-5.176c-1.773-1.686-3.363-3.618-5.645-4.723-2.934-1.423-6.472-1.232-9.8-1.352a47.169,47.169,0,0,1-12.261-2.1,8.652,8.652,0,0,1-3.18-1.543c-1.892-1.67-1.765-4.365-1.59-6.719a103.031,103.031,0,0,0,.119-13.748c-.048-.859-.111-1.717-.183-2.576-.318-3.84-1.352-8.293-5.28-9.939-2.02-.8-4.429-.732-6.361-1.694a5.256,5.256,0,0,1-.8-.493c-2.862-2-3.125-6.019-3.014-9.4q.254-6.965.485-13.939a40.513,40.513,0,0,0-.151-6.878h0a15.271,15.271,0,0,0-1.24-4.389c-1.725-3.689-5.319-6.767-5.963-10.663a4.312,4.312,0,0,1-.072-.549c-.334-3.483,1.861-6.727,2.632-10.154,1.543-6.894-3.642-14.447-11.267-16.427-2.385-.62-4.946-.739-7.323-1.447a11.769,11.769,0,0,1-1.121-.4c5.757-7.681,15.624-12.722,26.828-12.722,17.755,0,32.155,12.722,32.155,28.426,0,8.905-4.636,16.849-11.879,22.065.048.223.1.453.167.676,1.869,7.228,7.665,14.8,7.665,14.8l18,5.725,2,.636C838.23,431.178,833.729,462.769,833.729,462.769Z" transform="translate(-233.24 -112.409)" opacity="0.1"/><path d="M867.869,520.7a2.7,2.7,0,0,1-.509-.072A1.057,1.057,0,0,1,867.869,520.7Z" transform="translate(-257.607 -147.504)" opacity="0.1"/><path d="M781.184,331.033a68.382,68.382,0,0,0-15.171-1.773,8.4,8.4,0,0,0-4.771,1c-1.757,1.232-1.98,3.459-2.5,5.383a14.932,14.932,0,0,1-5.685,7.951c-1.884,1.376-4.1,2.385-5.908,3.833s-3.181,3.594-2.727,5.709,2.831,3.745,5.216,4.421,4.922.8,7.323,1.447c7.625,1.98,12.8,9.542,11.259,16.419-.8,3.427-2.966,6.671-2.632,10.154.39,4.159,4.23,7.363,6.035,11.219,1.646,3.514,1.535,7.458,1.407,11.259L772.541,422c-.127,3.673.191,8.094,3.817,9.891,1.94.954,4.357.851,6.361,1.694,3.928,1.638,4.962,6.1,5.28,9.931a102.649,102.649,0,0,1,.064,16.324c-.183,2.385-.31,5.049,1.59,6.719a8.524,8.524,0,0,0,3.181,1.543,47.165,47.165,0,0,0,12.261,2.1c3.34.127,6.87-.064,9.8,1.352,2.282,1.105,3.872,3.045,5.645,4.723a31.2,31.2,0,0,0,18.431,8.071c1.471.127,3.141.1,4.166-.851s.422-2.99-1.042-2.87a7.069,7.069,0,0,0,6.695-2.56,5.645,5.645,0,0,0,0-6.5c-1.662-2.385-5.192-3.976-5.383-6.806-.1-1.59.954-3.029,1.781-4.445a18.693,18.693,0,0,0-2.894-22.264c-3.729-3.856-9.319-6.782-10.623-11.728-.867-3.308.445-6.782-.056-10.146-.8-5.566-6.305-9.542-9.335-14.5s-3.562-10.965-2.791-16.61,2.727-11.132,4.318-16.618c1.185-4.095,2.163-8.444.843-12.507-.946-2.886-2.982-5.391-5.1-7.753-5.065-5.653-10.893-10.949-18.1-14.312s-15.982-4.667-23.631-2.179" transform="translate(-232.402 -108.3)" fill="#474157"/><path d="M781.184,331.033a68.382,68.382,0,0,0-15.171-1.773,8.4,8.4,0,0,0-4.771,1c-1.757,1.232-1.98,3.459-2.5,5.383a14.932,14.932,0,0,1-5.685,7.951c-1.884,1.376-4.1,2.385-5.908,3.833s-3.181,3.594-2.727,5.709,2.831,3.745,5.216,4.421,4.922.8,7.323,1.447c7.625,1.98,12.8,9.542,11.259,16.419-.8,3.427-2.966,6.671-2.632,10.154.39,4.159,4.23,7.363,6.035,11.219,1.646,3.514,1.535,7.458,1.407,11.259L772.541,422c-.127,3.673.191,8.094,3.817,9.891,1.94.954,4.357.851,6.361,1.694,3.928,1.638,4.962,6.1,5.28,9.931a102.649,102.649,0,0,1,.064,16.324c-.183,2.385-.31,5.049,1.59,6.719a8.524,8.524,0,0,0,3.181,1.543,47.165,47.165,0,0,0,12.261,2.1c3.34.127,6.87-.064,9.8,1.352,2.282,1.105,3.872,3.045,5.645,4.723a31.2,31.2,0,0,0,18.431,8.071c1.471.127,3.141.1,4.166-.851s.422-2.99-1.042-2.87a7.069,7.069,0,0,0,6.695-2.56,5.645,5.645,0,0,0,0-6.5c-1.662-2.385-5.192-3.976-5.383-6.806-.1-1.59.954-3.029,1.781-4.445a18.693,18.693,0,0,0-2.894-22.264c-3.729-3.856-9.319-6.782-10.623-11.728-.867-3.308.445-6.782-.056-10.146-.8-5.566-6.305-9.542-9.335-14.5s-3.562-10.965-2.791-16.61,2.727-11.132,4.318-16.618c1.185-4.095,2.163-8.444.843-12.507-.946-2.886-2.982-5.391-5.1-7.753-5.065-5.653-10.893-10.949-18.1-14.312s-15.982-4.667-23.631-2.179" transform="translate(-232.402 -108.3)" opacity="0.1"/><path d="M737.18,552.5s6.759,2.584,13.915-4.572S737.18,552.5,737.18,552.5Z" transform="translate(-230.937 -152.623)" opacity="0.1"/><g transform="translate(511.809 221.008)" opacity="0.1"><path d="M794.03,331.2a28.285,28.285,0,0,1,3.976-.5,30.165,30.165,0,0,0-5.566.175Z" transform="translate(-754.067 -329.59)"/><path d="M824.011,476.292c-1.781-1.678-3.363-3.618-5.653-4.723-2.926-1.415-6.464-1.225-9.8-1.352a46.911,46.911,0,0,1-12.261-2.1,8.524,8.524,0,0,1-3.181-1.543c-1.892-1.67-1.757-4.357-1.59-6.719a102.664,102.664,0,0,0-.064-16.324c-.326-3.832-1.352-8.293-5.288-9.931-2.012-.843-4.421-.739-6.361-1.694-3.626-1.8-3.976-6.218-3.824-9.891q.246-6.973.485-13.939c.135-3.809.239-7.752-1.407-11.267-1.805-3.856-5.645-7.053-6.035-11.219-.326-3.475,1.868-6.727,2.64-10.154,1.543-6.894-3.642-14.44-11.267-16.419-2.385-.62-4.946-.747-7.323-1.447s-4.683-2.21-5.176-4.373.914-4.262,2.719-5.717,4.023-2.457,5.916-3.832a14.876,14.876,0,0,0,5.677-7.951c.533-1.924.8-4.143,2.5-5.383a6.361,6.361,0,0,1,3.26-.954c-.708,0-1.415-.04-2.115-.04a8.46,8.46,0,0,0-4.771.994c-1.757,1.24-1.98,3.459-2.5,5.383a14.932,14.932,0,0,1-5.685,7.951c-1.884,1.376-4.1,2.385-5.908,3.833s-3.181,3.594-2.727,5.717,2.807,3.666,5.184,4.373,4.922.8,7.323,1.447c7.625,1.98,12.8,9.542,11.259,16.419-.8,3.427-2.966,6.679-2.632,10.154.39,4.166,4.23,7.363,6.035,11.219,1.646,3.514,1.542,7.458,1.407,11.267q-.246,6.965-.485,13.939c-.127,3.673.191,8.094,3.817,9.891,1.94.954,4.357.851,6.361,1.694,3.928,1.638,4.962,6.1,5.28,9.931a102.648,102.648,0,0,1,.064,16.324c-.183,2.385-.31,5.049,1.59,6.719a8.526,8.526,0,0,0,3.181,1.543,46.843,46.843,0,0,0,12.261,2.1c3.339.127,6.87-.064,9.8,1.352,2.282,1.105,3.872,3.045,5.653,4.723a31.153,31.153,0,0,0,18.423,8.071,8.515,8.515,0,0,0,2.664-.1,31.1,31.1,0,0,1-17.445-7.967Z" transform="translate(-744.18 -329.32)"/></g><path d="M688.007,484s-6.361,5.836-5.431,8.222S688.007,484,688.007,484Z" transform="translate(-219.731 -140.001)" opacity="0.1"/><path d="M688.179,578.22c-4.588-1.121-17.238-2.155-23.258,18.034a89.31,89.31,0,0,1-5.335,13.652c-5.773,11.855-13.231,36.234,19.568,41.6l78.718,17.89s42.142,5.168,44.925,3.181,2.385-6.361,2.385-6.361-46.515,0-55.659-14.312-9.542-33.793-9.542-33.793,1.145-30.08-46.913-38.818C691.479,578.992,689.809,578.618,688.179,578.22Z" transform="translate(-214.004 -159.201)" fill="#474157"/><path d="M688.179,578.39c-4.588-1.121-17.238-2.155-23.258,18.042a89.306,89.306,0,0,1-5.335,13.652c-5.773,11.847-13.231,36.226,19.568,41.593l78.718,17.89s42.142,5.168,44.925,3.18,2.385-6.361,2.385-6.361-46.515,0-55.659-14.312-9.542-33.793-9.542-33.793,1.145-30.08-46.913-38.818C691.479,579.162,689.809,578.772,688.179,578.39Z" transform="translate(-214.004 -159.236)" opacity="0.1"/><path d="M876.078,549.832a12.158,12.158,0,0,0-12.285-10.273c-11.323.207-46.173,1.717-62.362,12.293,0,0-12.324,7.951-15.9,7.951s-52.081,41.347,19.878,78.32c0,0,38.564,10.973,53.671-14.789,0,0,10.734-27.671,9.939-37.252s7.156-35.423,7.156-35.423S876.157,550.349,876.078,549.832Z" transform="translate(-236.889 -151.383)" fill="#474157"/><path d="M876.078,558.8c-.906-5.566-6.2-9.589-12.285-9.486-11.323.191-46.173,1.59-62.362,11.346,0,0-12.324,7.339-15.9,7.339s-52.081,38.166,19.878,72.3c0,0,38.564,10.13,53.671-13.652,0,0,10.734-25.547,9.939-34.389s7.156-32.7,7.156-32.7S876.157,559.273,876.078,558.8Z" transform="translate(-236.889 -153.381)" opacity="0.1"/><rect width="12.722" height="27.09" transform="translate(587.998 486.732)" fill="#5f5d7e"/><ellipse cx="35.813" cy="2.298" rx="35.813" ry="2.298" transform="translate(99.55 371.979)" opacity="0.1"/><path d="M295.756,409.093a13.659,13.659,0,0,0-1.813,3.411c-.111.3-.223.636-.334.962a2.931,2.931,0,0,0-.628-.215,9.018,9.018,0,0,0-2.839-.246c0-.366.048-.8.056-1.161.119-4.19-.374-10.035-4.373-7.562-3.833,2.385-1.1,6.361,1.376,8.913l.636.62c-2.258,1.59-2.688,5.351-3.061,9.255s-3.689,8.182-5.892,10.607c-.223.246-.421.469-.62.676a8.039,8.039,0,0,0-6.4-1.646c-.087-.342-.191-.7-.294-1.081-1.781-6.425-5.478-17.564-10.194-20.005l.62-.8c2-2.624,4.262-6.512.93-7.514s-3.634,3.379-3.451,6.655c0,.413.064.8.1,1.161a4.906,4.906,0,0,0-3.483,1.7l-.517-.6c-2.7-3.181-7.657-8.245-9.16-4.421-1.4,3.562,2.966,8.182,6.035,10.862l.191.167c-2.059,8.373,6.91,15.211,11.776,18.169l.628.382c-6.679,7.872-10.806,22.621-10.806,22.621l18.7,3.34s12.4-10.695,10.814-20.745h.127c12.4-2.481,15.211-15.7,13.279-23.544l.223-.087a14.106,14.106,0,0,0,5.741-4.341C306.586,409.8,299.3,404.362,295.756,409.093Z" transform="translate(-130.338 -123.441)" fill="#6c63ff"/><path d="M295.756,409.093a13.659,13.659,0,0,0-1.813,3.411c-.111.3-.223.636-.334.962a2.931,2.931,0,0,0-.628-.215,9.018,9.018,0,0,0-2.839-.246c0-.366.048-.8.056-1.161.119-4.19-.374-10.035-4.373-7.562-3.833,2.385-1.1,6.361,1.376,8.913l.636.62c-2.258,1.59-2.688,5.351-3.061,9.255s-3.689,8.182-5.892,10.607c-.223.246-.421.469-.62.676a8.039,8.039,0,0,0-6.4-1.646c-.087-.342-.191-.7-.294-1.081-1.781-6.425-5.478-17.564-10.194-20.005l.62-.8c2-2.624,4.262-6.512.93-7.514s-3.634,3.379-3.451,6.655c0,.413.064.8.1,1.161a4.906,4.906,0,0,0-3.483,1.7l-.517-.6c-2.7-3.181-7.657-8.245-9.16-4.421-1.4,3.562,2.966,8.182,6.035,10.862l.191.167c-2.059,8.373,6.91,15.211,11.776,18.169l.628.382c-6.679,7.872-10.806,22.621-10.806,22.621l18.7,3.34s12.4-10.695,10.814-20.745h.127c12.4-2.481,15.211-15.7,13.279-23.544l.223-.087a14.106,14.106,0,0,0,5.741-4.341C306.586,409.8,299.3,404.362,295.756,409.093Z" transform="translate(-130.338 -123.441)" opacity="0.1"/><path d="M258.83,415.327l-2.163,6.4s-1.217-.859-2.751-2.21c-3.069-2.68-7.434-7.3-6.035-10.861,1.5-3.825,6.456,1.224,9.16,4.421C258.106,414.342,258.83,415.327,258.83,415.327Z" transform="translate(-130.639 -124.284)" fill="#026f75"/><path d="M266.861,410.838a30.948,30.948,0,0,1-2.131,2.5,33.558,33.558,0,0,1-.39-3.363c-.183-3.276.167-7.625,3.451-6.655S268.832,408.214,266.861,410.838Z" transform="translate(-134.058 -123.445)" fill="#026f75"/><path d="M301.383,411.98c-.064,2.107-.27,3.785-.27,3.785a27.03,27.03,0,0,1-2.727-2.433c-2.473-2.568-5.208-6.528-1.376-8.913C301,401.945,301.494,407.789,301.383,411.98Z" transform="translate(-140.369 -123.576)" fill="#026f75"/><path d="M316.6,415.66a14.106,14.106,0,0,1-5.757,4.333,16.047,16.047,0,0,1-1.924.692l-2.576-3.618a26.279,26.279,0,0,1,1.065-3.515,13.663,13.663,0,0,1,1.813-3.411C312.8,405.419,320.064,410.858,316.6,415.66Z" transform="translate(-142.671 -124.498)" fill="#026f75"/><path d="M258.641,414.57c1.089,1.264,1.813,2.25,1.813,2.25l-2.163,6.4s-1.217-.859-2.751-2.21A12.523,12.523,0,0,1,258,415.389,7.46,7.46,0,0,1,258.641,414.57Z" transform="translate(-132.263 -125.777)" opacity="0.1"/><path d="M266.871,412.589a30.937,30.937,0,0,1-2.131,2.5,33.567,33.567,0,0,1-.39-3.363,4.342,4.342,0,0,1,2.521.859Z" transform="translate(-134.068 -125.195)" opacity="0.1"/><path d="M275.741,438.295,270.3,440.68s-1.185-.572-2.894-1.638c-5.717-3.522-17.207-12.372-9.5-22.8s14.129,8.285,16.658,17.429C275.367,436.41,275.741,438.295,275.741,438.295Z" transform="translate(-132.22 -125.489)" fill="#047176"/><path d="M299.22,415.432a4.429,4.429,0,0,1,3-1.352c-.064,2.107-.27,3.785-.27,3.785a27.023,27.023,0,0,1-2.727-2.433Z" transform="translate(-141.212 -125.677)" opacity="0.1"/><path d="M310.84,421.341a16.058,16.058,0,0,1-1.924.692l-2.576-3.618a26.279,26.279,0,0,1,1.065-3.514C309.083,415.886,310.308,418.3,310.84,421.341Z" transform="translate(-142.671 -125.845)" opacity="0.1"/><path d="M292.183,445.1l-.914.159c-18.232,2.775-6.011-7.061-6.011-7.061s.8-.755,1.932-2c2.2-2.425,5.51-6.679,5.892-10.607.573-5.908,1.232-11.45,8.206-9.82C308.165,417.374,309.477,441.641,292.183,445.1Z" transform="translate(-137.53 -125.965)" fill="#026f75"/><rect width="34.835" height="9.16" transform="translate(119.508 364.521)" fill="#474157"/><rect width="45.513" height="31.964" transform="translate(113.974 334.751)" fill="#474157"/><rect width="34.835" height="9.16" transform="translate(119.174 364.521)" opacity="0.1"/><rect width="45.513" height="31.964" transform="translate(113.831 334.759)" opacity="0.1"/><rect width="34.835" height="9.16" transform="translate(121.798 364.521)" fill="#474157"/><path d="M277.716,439c.8,2.735,1.177,4.62,1.177,4.62l-5.439,2.385s-1.185-.573-2.894-1.638C272.691,441.64,275.092,439.6,277.716,439Z" transform="translate(-135.34 -130.782)" opacity="0.1"/><path d="M292.183,450.438l-.914.159c-18.232,2.775-6.011-7.061-6.011-7.061s.8-.755,1.932-2C290.592,444.291,292.031,447.336,292.183,450.438Z" transform="translate(-137.53 -131.302)" opacity="0.1"/><path d="M257.76,467.578S267.969,431,282.29,442.292s-5.828,28.625-5.828,28.625Z" transform="translate(-132.718 -131.013)" fill="#026f75"/><circle cx="1.145" cy="1.145" r="1.145" transform="translate(129.049 295.337)" opacity="0.1"/><circle cx="1.145" cy="1.145" r="1.145" transform="translate(128.954 300.688)" opacity="0.1"/><circle cx="1.145" cy="1.145" r="1.145" transform="translate(162.167 296.386)" opacity="0.1"/><circle cx="1.145" cy="1.145" r="1.145" transform="translate(135.442 323.779)" opacity="0.1"/><circle cx="1.145" cy="1.145" r="1.145" transform="translate(159.781 305.268)" opacity="0.1"/><circle cx="1.145" cy="1.145" r="1.145" transform="translate(147.95 317.099)" opacity="0.1"/><circle cx="1.145" cy="1.145" r="1.145" transform="translate(132.961 297.627)" opacity="0.1"/><circle cx="1.145" cy="1.145" r="1.145" transform="translate(159.018 299.829)" opacity="0.1"/><circle cx="1.145" cy="1.145" r="1.145" transform="translate(155.106 308.703)" opacity="0.1"/><circle cx="1.145" cy="1.145" r="1.145" transform="translate(143.076 322.92)" opacity="0.1"/><circle cx="1.145" cy="1.145" r="1.145" transform="translate(140.595 317.29)" opacity="0.1"/><circle cx="1.145" cy="1.145" r="1.145" transform="translate(134.679 304.6)" opacity="0.1"/><rect width="34.835" height="3.347" transform="translate(121.798 364.521)" opacity="0.1"/><rect width="45.513" height="31.964" transform="translate(116.264 334.751)" fill="#474157"/><circle cx="1.145" cy="1.145" r="1.145" transform="translate(144.602 328.072)" opacity="0.1"/><circle cx="1.145" cy="1.145" r="1.145" transform="translate(137.732 329.504)" opacity="0.1"/><path d="M408.37,626s5.669,7.419-2.616,18.614-15.107,20.673-12.372,27.639c0,0,12.515-20.8,22.7-21.087S419.574,638.515,408.37,626Z" transform="translate(-160.377 -169.093)" fill="#14a7b0"/><path d="M408.45,626a9.138,9.138,0,0,1,1.161,2.322c9.931,11.672,15.227,22.566,5.677,22.844-8.9.278-19.568,16.181-22.128,20.156.087.31.191.62.3.914,0,0,12.515-20.8,22.7-21.087S419.654,638.515,408.45,626Z" transform="translate(-160.458 -169.093)" opacity="0.1"/><path d="M425.314,637.469c0,2.608-.294,4.723-.652,4.723s-.652-2.115-.652-4.723.366-1.384.724-1.384S425.314,634.853,425.314,637.469Z" transform="translate(-166.778 -171.1)" fill="#ffd037"/><path d="M429.048,641.358c-2.29,1.248-4.286,2-4.461,1.686s1.543-1.59,3.84-2.839,1.384-.342,1.59,0S431.345,640.11,429.048,641.358Z" transform="translate(-166.893 -171.872)" fill="#ffd037"/><path d="M371.419,626s-5.669,7.419,2.616,18.614,15.107,20.673,12.364,27.639c0,0-12.507-20.8-22.693-21.087S360.215,638.515,371.419,626Z" transform="translate(-153.394 -169.093)" fill="#14a7b0"/><path d="M371.419,626a9.138,9.138,0,0,0-1.161,2.322c-9.931,11.672-15.227,22.566-5.677,22.844,8.9.278,19.568,16.181,22.128,20.156a8.82,8.82,0,0,1-.31.914s-12.507-20.793-22.693-21.063S360.215,638.515,371.419,626Z" transform="translate(-153.394 -169.093)" opacity="0.1"/><path d="M361.44,637.469c0,2.608.294,4.723.652,4.723s.652-2.115.652-4.723-.366-1.384-.724-1.384S361.44,634.853,361.44,637.469Z" transform="translate(-153.959 -171.1)" fill="#ffd037"/><path d="M356.523,641.358c2.29,1.248,4.286,2,4.461,1.686s-1.543-1.59-3.84-2.839-1.384-.342-1.59,0S354.225,640.11,356.523,641.358Z" transform="translate(-152.66 -171.872)" fill="#ffd037"/><ellipse cx="59.317" cy="9.104" rx="59.317" ry="9.104" transform="translate(173.688 541.716)" fill="#6c63ff" opacity="0.1"/><path d="M416.2,670.717l-.286,2.314-.4,3.276-.159,1.36-.406,3.276-.167,1.368-.4,3.268-4.5,37.212c-.406,3.324-5.836,5.908-12.38,5.908H373.88c-6.552,0-11.927-2.584-12.372-5.908l-4.548-37.212-.4-3.268-.167-1.368-.406-3.276-.159-1.36-.4-3.276-.286-2.314c-.231-1.876,2.7-3.467,6.417-3.467H409.8C413.493,667.25,416.435,668.84,416.2,670.717Z" transform="translate(-152.667 -177.544)" fill="#65617d"/><path d="M315.5,623.15l-.4,3.268h-59.69l-.4-3.268Z" transform="translate(-52.244 -127.663)" fill="#9d9cb5"/><path d="M315.082,628.98l-.4,3.276H256.116l-.406-3.276Z" transform="translate(-52.388 -128.858)" fill="#9d9cb5"/><path d="M314.657,634.81l-.4,3.276H256.828l-.4-3.276Z" transform="translate(-52.535 -130.052)" fill="#9d9cb5"/></g></svg>