<svg xmlns="http://www.w3.org/2000/svg" width="24.813" height="29.775" viewBox="0 0 24.813 29.775"><path d="M27.271,13.126h-1.34V7.772A7.593,7.593,0,0,0,18.876.72H12.995c-3.52,0-6.913,3.53-6.913,7.052v5.355H4.6a1.33,1.33,0,0,0-1,1.03V29.948c0,.371.579.547,1,.547H27.271c.421,0,1.141-.176,1.141-.547V14.156a1.516,1.516,0,0,0-1.141-1.03ZM18.93,28.014H12.943L14.2,21.831a3.207,3.207,0,0,1-1.256-2.546,3.039,3.039,0,0,1,2.993-3.036,2.953,2.953,0,0,1,2.994,2.934,3.449,3.449,0,0,1-1.255,2.666Zm2.659-14.888H10.424V7.772a2.536,2.536,0,0,1,2.631-2.71h5.762a2.65,2.65,0,0,1,2.773,2.71Z" transform="translate(-3.6 -0.72)" fill="#13a7b1"/></svg>