<svg xmlns="http://www.w3.org/2000/svg" width="149.811" height="32.681" viewBox="0 0 149.811 32.681"><defs><style>.a{fill:#fff;}</style></defs><path class="a" d="M1.938-52.233a1.792,1.792,0,0,1,.536-.685l4.348-.06.953.089a1.668,1.668,0,0,1,.849.149A1.124,1.124,0,0,1,9-52.293L12-41.216l4.288-11.226a.927.927,0,0,1,.357-.387,7.058,7.058,0,0,1,2.025-.089h2.8l.238.179a1.4,1.4,0,0,1-.447,1.846v16.02l-5.36.119V-40.68l-.119-.387-.864,3.752-.089.506-1.7,6.343A1.747,1.747,0,0,1,12.36-29.3a3.243,3.243,0,0,1-2.144-.387q-.119-.417-.6-2.352t-1.34-5.539l-.06-.506-.268-.953v7.98A1.571,1.571,0,0,1,8.578-29.6a1.985,1.985,0,0,1-1.876.6H2.474l-.417-.387a2.455,2.455,0,0,1-.119-.983,1.422,1.422,0,0,1,.625-.685V-50.893A2.181,2.181,0,0,1,1.938-52.233ZM18.762-40.054l2.472-.476.03.268a12.069,12.069,0,0,1,0,2.948v4.735a10.792,10.792,0,0,0,.923,5q3.246,4.7,7.832.8a1.3,1.3,0,0,1,1.042.179,1.471,1.471,0,0,1,.089.983q-3.782,4.02-9.707,2.561a7.878,7.878,0,0,1-3.365-1.578,6.467,6.467,0,0,1-1.965-3.931l-.089-1.072-.119-.685v-9.469Zm4.943,5.9q-1.7-8.01,5.807-10.75,6.164-1.012,8.665,3.782a7.548,7.548,0,0,1,.328,4.08,7.17,7.17,0,0,1-2.233.119H29.333a7.655,7.655,0,0,0,.774,3.573q3.782,3.573,7.206-1.012h.476a2.074,2.074,0,0,1,1.1,1.638,8.334,8.334,0,0,1-7.8,3.9Q25.939-28.739,23.705-34.158Zm9.052-6.164A2.4,2.4,0,0,0,31.09-43a4.21,4.21,0,0,0-1.816,3.841h3.484A3.8,3.8,0,0,0,32.758-40.322ZM56.52-50.953q.387-2.055-1.846-2.055H50.565q-2.025,1.608.328,2.055v7.236l-.089.625a6.441,6.441,0,0,0-7.325-.625q-4.467,3.395-2.948,9.707,4.02,8.07,12.745,3.722,1.459,2.174,3.335,1.1Q56.52-29.93,56.52-50.953ZM46.158-36.094q-.357-5.449,3.454-5.449a4.379,4.379,0,0,1,1.28.893v7.117L50.8-32.461a7.409,7.409,0,0,1-1.1,1.37Q46.039-30.466,46.158-36.094ZM58.337-47.588a3.6,3.6,0,0,0,4.02,1.816,3.116,3.116,0,0,0,2.5-3.067A3.448,3.448,0,0,0,60.391-51.4,3.216,3.216,0,0,0,58.337-47.588ZM57.622-43.3a2.3,2.3,0,0,0,1.34.715v11.732a1.413,1.413,0,0,0-1.34,1.37,1.192,1.192,0,0,0,.625.506h5.3a9.584,9.584,0,0,0,2.352-.089,2.866,2.866,0,0,0,.208-1.042,2.472,2.472,0,0,0-1.34-.744V-42.079a8.861,8.861,0,0,0,.03-1.236q-.03-.551-.089-1.027l-.328-.208-.506-.119H58.337A1.643,1.643,0,0,0,57.622-43.3Zm16.765-.208a7.6,7.6,0,0,1,3.037-1.548q8.576,0,7.831,9.588-2.2,8.725-10.958,5.956v3.335l.179.685a3.79,3.79,0,0,0,2.323.834q1.072.506.03,1.459h-10.3q-.536-1.221.387-1.34a3.262,3.262,0,0,0,.938-.313,2.318,2.318,0,0,0,.759-.64V-41.156a2.787,2.787,0,0,0-1.846-2.025q-1.578-.834.3-1.489l6.521-.208.506.089A3.225,3.225,0,0,1,74.387-43.508Zm4.884,6.164q0-3.633-3.067-4.348A4.247,4.247,0,0,0,74.3-40.68v7.8q1.608,3.484,4.169.625a11.677,11.677,0,0,0,.655-2.4A13.191,13.191,0,0,0,79.27-37.344Zm9.052-2.62Q88-43.9,93.236-44.67q10.3-1.459,8.9,8.248v4.169l.089.536a4.478,4.478,0,0,0,2.233.506v1.816q-4.824,2.114-7.563-.893a6.634,6.634,0,0,1-4.854,1.638,4.382,4.382,0,0,1-4.348-2.8q-.655-5.032,5.032-6.372l2.859-.834q.179-.06.432-.164t.551-.223a5.55,5.55,0,0,0-.06-1.578,1.918,1.918,0,0,0-1.846-2.114,3.42,3.42,0,0,0-.893.417,3.608,3.608,0,0,1-.417,3.454Q90.318-37.076,88.323-39.965Zm8.248,3.722-.06-.387a4.143,4.143,0,0,0-3.037,3.037q.387,3.127,3.037.983v-3.216Zm11.613-9.707,3.305-4.377h.268v4.407l3.544-.03.03,2.769h-3.484v9.41a7.56,7.56,0,0,0,.357,1.1,5.094,5.094,0,0,0,3.186.328,7.328,7.328,0,0,1-1.37,2.859q-4.467,1.965-7-2l-.357-1.846v-9.767l-1.429.03Zm9.856-5.032V-31.21q-1.757.238-1.37,1.787.179.119.372.223a1.856,1.856,0,0,0,.432.164h6.551l.6-.506q.089-1.4-1.1-1.519v-9.291a5.22,5.22,0,0,1,1.965-1.4,1.986,1.986,0,0,1,2.144,1.578V-30.7l.119.685.089,1.072,1.072,2.859a7.1,7.1,0,0,0,4.407,2.65q6.1,1.459,9.976-2.561a1.471,1.471,0,0,0-.089-.983,1.547,1.547,0,0,0-1.072-.179q-4.7,3.931-8.04-.8a10.376,10.376,0,0,1-.953-5V-37.7a12.069,12.069,0,0,0,0-2.948v-.3l-.506-1.578q-3.722-4.735-9.112-.6v-7.861q.179-1.876-1.191-2.084h-4.7Q115.956-51.667,118.041-50.983ZM133.7-42.7a3.759,3.759,0,0,1,1.906,1.072l5.777,13.281.3.983Q141-26.178,140.6-25.448t-.521.968q-2.084-2.948-4.884-1.489-2,2.888.506,5.181a5.368,5.368,0,0,0,4.08,0l.417-.3a2.336,2.336,0,0,0,.685-.6l.893-1.012.208-.387,1.1-1.7,6.879-16.943a5.146,5.146,0,0,1,1.787-1.1V-44.7h-4.377a6.454,6.454,0,0,0-2.293.089v1.787a6.008,6.008,0,0,1,1.965.893q0,.119-2.382,7.087l-3.186-7.385a7.41,7.41,0,0,1,.864-.342q.417-.134.834-.253a3.872,3.872,0,0,0,0-1.787,2.3,2.3,0,0,0-1.31-.089H133.7Z" transform="translate(-1.938 53.067)"/></svg>