<svg xmlns="http://www.w3.org/2000/svg" width="33.231" height="33.148" viewBox="0 0 33.231 33.148"><g transform="translate(13102 -3256.164)"><g transform="translate(-13102 3256.164)"><path d="M11,43V53.313h4.584V43Z" transform="translate(-6.416 -20.165)" fill="#ff9811"/><path d="M3,45H7.584v8.021H3Z" transform="translate(-3 -21.02)" fill="#ed1c24"/><path d="M8,45H9.719v8.021H8Z" transform="translate(-5.135 -21.02)" fill="#ed1c24"/><path d="M37.988,16.654h0l-1.552.416-.664.178.814,3.042h2.378Z" transform="translate(-16.994 -8.914)" fill="#ed1c24"/><path d="M21.292,23,19,27.584h9.74L31.032,23h-9.74Z" transform="translate(-9.833 -11.625)" fill="#15a6b1" opacity="0.31"/><path d="M40.768,23H40l2.292,4.584h9.74L49.74,23Z" transform="translate(-18.8 -11.625)" fill="#15a6b1" opacity="0.31"/><path d="M40,23V38.47h9.74V27.584H42.292Z" transform="translate(-18.8 -11.625)" fill="#006d74"/><path d="M30.449,27.584H23V38.47h9.74V23Z" transform="translate(-11.541 -11.625)" fill="#15a6b1"/><path d="M42.292,27.584,40,23v1.719L42.292,29.3H49.74V27.584Z" transform="translate(-18.8 -11.625)" fill="#15a6b1"/><path d="M30.449,27.584H23V29.3h7.449l2.292-4.584V23Z" transform="translate(-11.541 -11.625)" fill="#006d74"/><path d="M34.248,10.857,30.373,11.9a1.719,1.719,0,1,0,.89,3.32l2.322-.622,1.552-.417Z" transform="translate(-14.145 -6.439)" fill="#ed1c24"/><path d="M48.964,12.021a.573.573,0,0,0,.405-.7L47.293,3.571a.573.573,0,0,0-.7-.405l-1.107.3,2.373,8.855Z" transform="translate(-21.142 -3.147)" fill="#ed1c24"/><path d="M38.976,11.119v0l5.72,1.432L42.324,3.7,38.085,7.8l.889,3.32Z" transform="translate(-17.983 -3.382)" fill="#ff9811"/></g><g transform="translate(-13093.15 3279.599)"><path d="M42.652,44.759a1.715,1.715,0,0,0-2.343-.63l-6.114,3.529h0a1.711,1.711,0,0,0-1.2-1.18l-8.549-2.292a3.438,3.438,0,0,0-1.723-.014L19,45.1v6.876l1.566.783a3.442,3.442,0,0,0,1.537.363h8.581a3.434,3.434,0,0,0,1.719-.458l9.626-5.558A1.719,1.719,0,0,0,42.652,44.759Z" transform="translate(-19 -43.899)" fill="#ffbcab"/><path d="M-14640.413,5203.888a4.669,4.669,0,0,1,1.795.023c.713.223,8.264,2.213,8.264,2.213a2.636,2.636,0,0,1,1.685,1.042,2.6,2.6,0,0,1,.389,1.1,2.409,2.409,0,0,1-.428,1.563,2.266,2.266,0,0,1-2.425.842c-.949-.25-6.8-1.829-6.8-1.829a.618.618,0,0,1-.436-.747c.151-.569.8-.353.911-.318s6.772,1.812,6.772,1.812a1.142,1.142,0,0,0,1.252-.879c.3-1.027-.832-1.369-1.1-1.443s-8.231-2.189-8.231-2.189a3.034,3.034,0,0,0-1.6-.016c-.967.22-.231.055-.309.072A7.445,7.445,0,0,1-14640.413,5203.888Z" transform="translate(14644.401 -5203.807)" fill="#ffb09c"/></g></g></svg>