<svg xmlns="http://www.w3.org/2000/svg" width="28.691" height="24.685" viewBox="0 0 28.691 24.685"><g transform="translate(14031.303 -3355.012)"><g transform="translate(-14031.303 3355.012)"><g transform="translate(7.082 3.063)"><path d="M128.748,97.364l4.132-4.132V90.855l-6.509,6.509Z" transform="translate(-126.371 -90.83)" fill="#d2d2d7"/><path d="M275.568,96.949l-6.534-6.534v2.377l4.156,4.156Z" transform="translate(-261.04 -90.415)" fill="#b9b9be"/></g><g transform="translate(0 8.657)"><path d="M260.906,190.229H246.561l-.56,9,.56,7.028h14.346Z" transform="translate(-232.215 -190.229)" fill="#006d74"/><path d="M0,190.229H14.346v16.028H0Z" transform="translate(0 -190.229)" fill="#13a7b1"/></g><g transform="translate(11.332 0)"><path d="M246.561,35.75,246,38.966l.56,2.812a3.014,3.014,0,0,0,0-6.027Z" transform="translate(-243.547 -35.75)" fill="#f7b030"/><path d="M202.22,38.764a3.017,3.017,0,0,0,3.014,3.014V35.75A3.017,3.017,0,0,0,202.22,38.764Z" transform="translate(-202.22 -35.75)" fill="#eb423f"/></g></g><g transform="translate(-14024.242 3364.806)"><path d="M-1984.1-53.9v0Z" transform="translate(1991.179 57.081)" fill="#f2f2f2"/><path d="M-2127.1-91.1a3.133,3.133,0,0,1-3.128-3.128,3.117,3.117,0,0,1,.746-2.024.107.107,0,0,1-.048-.044,3.192,3.192,0,0,0-.765,2.072,3.2,3.2,0,0,0,3.2,3.2,3.177,3.177,0,0,0,1.085-.189V-91.3A3.088,3.088,0,0,1-2127.1-91.1Z" transform="translate(2130.3 97.428)" fill="#f2f2f2"/><path d="M-2102.753-118.743a3.191,3.191,0,0,0-2.179-.857,3.176,3.176,0,0,0-2.068.76c.005,0,.01.01.01.015h0a.239.239,0,0,1,.029.034,3.116,3.116,0,0,1,2.024-.746,3.138,3.138,0,0,1,3.06,2.489.1.1,0,0,1,.063-.015A3.124,3.124,0,0,0-2102.753-118.743Z" transform="translate(2108.128 119.6)" fill="#f2f2f2"/><path d="M-2035.152-58.571a.959.959,0,0,0-.126-.024.235.235,0,0,0-.058,0h-.16l-1.1,0v.508h.266c.01,0,.014.01.01.019a1.035,1.035,0,0,0-.131.5v2.823l.61-.349.015-.828.01-.605v-.024a.044.044,0,0,1,.053-.044h.005a1.029,1.029,0,0,0,.3.058h.043a1.037,1.037,0,0,0,1.036-1.036A1.028,1.028,0,0,0-2035.152-58.571Zm-.135,1.491a.546.546,0,0,1-.155.024h-.019a.507.507,0,0,1-.45-.305.493.493,0,0,1-.043-.169v-.048a.519.519,0,0,1,.518-.518h0a.506.506,0,0,1,.174.029.966.966,0,0,1,.1.048.514.514,0,0,1,.242.436A.536.536,0,0,1-2035.287-57.08Z" transform="translate(2041.136 61.554)" fill="#f2f2f2"/><path d="M-2018.785-43.8a.314.314,0,0,0-.315.315.314.314,0,0,0,.315.315.314.314,0,0,0,.315-.315A.321.321,0,0,0-2018.785-43.8Zm0,.571a.261.261,0,0,1-.262-.261.261.261,0,0,1,.262-.261.26.26,0,0,1,.261.261A.266.266,0,0,1-2018.785-43.229Z" transform="translate(2024.484 47.47)" fill="#f2f2f2"/><path d="M.368-2.352a.1.1,0,0,1-.009.044.088.088,0,0,1-.027.032.12.12,0,0,1-.041.019A.192.192,0,0,1,.24-2.25l-.032,0L.182-2.259l-.02-.008L.15-2.274a.023.023,0,0,1-.006-.011.091.091,0,0,1,0-.022.142.142,0,0,1,0-.015.039.039,0,0,1,0-.009.009.009,0,0,1,0,0h0l.011,0,.018.009.025.009a.109.109,0,0,0,.032,0l.02,0L.274-2.32a.028.028,0,0,0,.01-.011.034.034,0,0,0,0-.015.025.025,0,0,0-.006-.017.054.054,0,0,0-.016-.012l-.023-.01L.216-2.4.189-2.408a.1.1,0,0,1-.023-.018A.081.081,0,0,1,.15-2.452a.094.094,0,0,1-.006-.036.091.091,0,0,1,.008-.039.085.085,0,0,1,.024-.03.113.113,0,0,1,.038-.02.169.169,0,0,1,.05-.007l.027,0,.024,0,.018.006.01.006,0,0,0,.006v.009s0,.008,0,.013,0,.011,0,.015a.038.038,0,0,1,0,.009.008.008,0,0,1,0,0h0l-.009,0L.317-2.513.295-2.521a.105.105,0,0,0-.028,0l-.02,0a.037.037,0,0,0-.014.007.028.028,0,0,0-.008.01.03.03,0,0,0,0,.012.025.025,0,0,0,.006.017.058.058,0,0,0,.017.012l.023.01.026.01.026.013a.1.1,0,0,1,.023.018.083.083,0,0,1,.017.025A.089.089,0,0,1,.368-2.352ZM.9-2.269a.009.009,0,0,1,0,.006l-.007,0-.013,0H.839l-.013,0-.007,0a.01.01,0,0,1,0-.006v-.175a.121.121,0,0,0,0-.027.064.064,0,0,0-.009-.021.041.041,0,0,0-.015-.014.043.043,0,0,0-.021,0A.05.05,0,0,0,.74-2.5a.2.2,0,0,0-.033.034v.2a.009.009,0,0,1,0,.006l-.007,0-.013,0H.646l-.013,0-.007,0a.009.009,0,0,1,0-.006v-.175a.121.121,0,0,0,0-.027.066.066,0,0,0-.008-.021A.039.039,0,0,0,.6-2.506a.043.043,0,0,0-.021,0,.05.05,0,0,0-.03.012.193.193,0,0,0-.033.034v.2a.009.009,0,0,1,0,.006l-.007,0-.013,0H.452l-.013,0-.007,0a.009.009,0,0,1,0-.006v-.3a.01.01,0,0,1,0-.006l.006,0,.011,0H.484l.011,0,.005,0a.01.01,0,0,1,0,.006v.034a.2.2,0,0,1,.049-.04A.1.1,0,0,1,.6-2.583a.13.13,0,0,1,.033,0,.094.094,0,0,1,.026.011.082.082,0,0,1,.02.017.1.1,0,0,1,.014.022A.25.25,0,0,1,.72-2.554a.153.153,0,0,1,.025-.017A.115.115,0,0,1,.77-2.58a.1.1,0,0,1,.025,0,.112.112,0,0,1,.05.01.087.087,0,0,1,.033.027.109.109,0,0,1,.018.04A.214.214,0,0,1,.9-2.458Zm.165,0a.009.009,0,0,1,0,.006l-.007,0-.013,0H1l-.013,0-.007,0a.009.009,0,0,1,0-.006v-.295a.009.009,0,0,1,0-.006l.007,0,.013,0h.04l.013,0,.007,0a.009.009,0,0,1,0,.006Zm.006-.4a.047.047,0,0,1-.01.035.057.057,0,0,1-.038.01.057.057,0,0,1-.038-.009.045.045,0,0,1-.01-.033A.048.048,0,0,1,.986-2.7a.056.056,0,0,1,.038-.01.056.056,0,0,1,.038.009A.045.045,0,0,1,1.072-2.664Zm.16.4a.009.009,0,0,1,0,.006l-.007,0-.013,0h-.04l-.013,0-.007,0a.009.009,0,0,1,0-.006V-2.7a.01.01,0,0,1,0-.006l.007,0,.013,0h.04l.013,0,.007,0a.01.01,0,0,1,0,.006Zm.356-.156a.032.032,0,0,1-.007.023.024.024,0,0,1-.019.007h-.18a.123.123,0,0,0,0,.034.065.065,0,0,0,.014.026.062.062,0,0,0,.025.016.108.108,0,0,0,.037.006.208.208,0,0,0,.038,0l.029-.007.02-.007.013,0h0l0,0a.028.028,0,0,1,0,.008s0,.008,0,.014,0,.009,0,.012a.078.078,0,0,1,0,.009.021.021,0,0,1,0,.006l0,0-.012.006-.025.008L1.5-2.253l-.041,0a.217.217,0,0,1-.069-.01.123.123,0,0,1-.05-.03.125.125,0,0,1-.03-.051.24.24,0,0,1-.01-.072.229.229,0,0,1,.01-.071.149.149,0,0,1,.03-.054.128.128,0,0,1,.048-.034.164.164,0,0,1,.063-.012.165.165,0,0,1,.063.011.114.114,0,0,1,.043.03.122.122,0,0,1,.025.046.2.2,0,0,1,.008.058Zm-.081-.024A.086.086,0,0,0,1.494-2.5a.054.054,0,0,0-.047-.02.06.06,0,0,0-.028.006A.057.057,0,0,0,1.4-2.5a.073.073,0,0,0-.012.024.119.119,0,0,0,0,.029Zm.576.024a.032.032,0,0,1-.007.023.024.024,0,0,1-.019.007h-.18a.123.123,0,0,0,0,.034.065.065,0,0,0,.014.026.062.062,0,0,0,.025.016.108.108,0,0,0,.037.006.208.208,0,0,0,.038,0l.029-.007.02-.007.013,0h0l0,0a.028.028,0,0,1,0,.008s0,.008,0,.014,0,.009,0,.012a.078.078,0,0,1,0,.009.021.021,0,0,1,0,.006l0,0-.012.006-.025.008-.034.007-.041,0a.217.217,0,0,1-.069-.01.123.123,0,0,1-.05-.03.125.125,0,0,1-.03-.051.24.24,0,0,1-.01-.072.229.229,0,0,1,.01-.071.149.149,0,0,1,.03-.054.128.128,0,0,1,.048-.034.164.164,0,0,1,.063-.012.165.165,0,0,1,.063.011.114.114,0,0,1,.043.03.122.122,0,0,1,.025.046.2.2,0,0,1,.008.058ZM2-2.449A.086.086,0,0,0,1.989-2.5a.054.054,0,0,0-.047-.02.06.06,0,0,0-.028.006.057.057,0,0,0-.02.016.073.073,0,0,0-.012.024.119.119,0,0,0,0,.029Zm.418-.116s0,0,0,0v.012l0,.008-.089.267a.026.026,0,0,1,0,.009.019.019,0,0,1-.009.005l-.018,0H2.239l-.017,0a.019.019,0,0,1-.009-.005.026.026,0,0,1,0-.009l-.089-.267,0-.012V-2.56s0,0,0,0a.01.01,0,0,1,0-.006l.006,0,.013,0h.042l.013,0a.013.013,0,0,1,.007,0l0,.007.067.217,0,.008,0-.008.066-.217a.018.018,0,0,1,0-.007l.007,0,.012,0H2.4l.012,0,.006,0A.01.01,0,0,1,2.421-2.565Zm.316.139A.032.032,0,0,1,2.73-2.4a.024.024,0,0,1-.019.007h-.18a.123.123,0,0,0,0,.034.065.065,0,0,0,.014.026.062.062,0,0,0,.025.016.108.108,0,0,0,.037.006.208.208,0,0,0,.038,0l.029-.007L2.7-2.33l.013,0h0l0,0a.028.028,0,0,1,0,.008s0,.008,0,.014,0,.009,0,.012a.078.078,0,0,1,0,.009.021.021,0,0,1,0,.006l0,0L2.7-2.267l-.025.008-.034.007-.041,0a.217.217,0,0,1-.069-.01.123.123,0,0,1-.05-.03.125.125,0,0,1-.03-.051.24.24,0,0,1-.01-.072.23.23,0,0,1,.01-.071.149.149,0,0,1,.03-.054.128.128,0,0,1,.048-.034A.164.164,0,0,1,2.6-2.583a.165.165,0,0,1,.063.011.114.114,0,0,1,.043.03.122.122,0,0,1,.025.046.2.2,0,0,1,.008.058Zm-.081-.024A.086.086,0,0,0,2.642-2.5a.054.054,0,0,0-.047-.02.06.06,0,0,0-.028.006.057.057,0,0,0-.02.016.073.073,0,0,0-.012.024.119.119,0,0,0,0,.029Zm.339-.088q0,.012,0,.02a.06.06,0,0,1,0,.012.012.012,0,0,1,0,.006l-.005,0H2.977l-.007,0-.009,0H2.95l-.014,0-.014.009a.107.107,0,0,0-.016.016.259.259,0,0,0-.017.025v.184a.009.009,0,0,1,0,.006l-.007,0-.013,0h-.04l-.013,0-.007,0a.009.009,0,0,1,0-.006v-.3a.01.01,0,0,1,0-.006l.006,0,.011,0h.035l.011,0,.005,0a.01.01,0,0,1,0,.006v.037A.236.236,0,0,1,2.9-2.555a.124.124,0,0,1,.02-.017.061.061,0,0,1,.019-.009l.019,0h.009l.01,0,.009,0,.006,0,0,0v.005a.081.081,0,0,1,0,.01S2.995-2.545,2.995-2.537Zm.226.279-.036.1a.022.022,0,0,1-.016.012.156.156,0,0,1-.039,0H3.108l-.012,0a.009.009,0,0,1,0-.007.021.021,0,0,1,0-.01l.039-.1-.008-.006a.029.029,0,0,1-.005-.009l-.1-.272a.056.056,0,0,1,0-.018.012.012,0,0,1,0-.01.026.026,0,0,1,.013,0H3.08l.013,0a.014.014,0,0,1,.007.006.062.062,0,0,1,0,.012l.07.2h0l.064-.2a.022.022,0,0,1,.005-.011.022.022,0,0,1,.01,0H3.3a.028.028,0,0,1,.014,0,.012.012,0,0,1,0,.01.048.048,0,0,1,0,.014Zm.447-.163a.269.269,0,0,1-.009.071.163.163,0,0,1-.025.054.111.111,0,0,1-.04.034.118.118,0,0,1-.054.012.131.131,0,0,1-.028,0,.1.1,0,0,1-.025-.009.136.136,0,0,1-.023-.016A.219.219,0,0,1,3.442-2.3v.032a.01.01,0,0,1,0,.006l-.006,0-.011,0H3.389l-.011,0-.006,0a.011.011,0,0,1,0-.006V-2.7a.01.01,0,0,1,0-.006l.007,0,.013,0h.04l.013,0,.007,0a.01.01,0,0,1,0,.006v.163a.174.174,0,0,1,.023-.019L3.5-2.574a.1.1,0,0,1,.023-.007l.025,0A.11.11,0,0,1,3.6-2.57a.108.108,0,0,1,.037.035.157.157,0,0,1,.021.052A.286.286,0,0,1,3.668-2.421Zm-.086.006a.23.23,0,0,0,0-.036.1.1,0,0,0-.01-.031A.06.06,0,0,0,3.551-2.5a.046.046,0,0,0-.028-.008l-.016,0A.06.06,0,0,0,3.49-2.5l-.017.015a.208.208,0,0,0-.019.022v.1a.177.177,0,0,0,.034.034.056.056,0,0,0,.034.012.045.045,0,0,0,.027-.008.067.067,0,0,0,.019-.022.1.1,0,0,0,.011-.03A.175.175,0,0,0,3.581-2.415Zm.452,0a.226.226,0,0,1-.01.069.145.145,0,0,1-.03.054.134.134,0,0,1-.051.035.19.19,0,0,1-.071.012A.2.2,0,0,1,3.8-2.261a.123.123,0,0,1-.048-.032.131.131,0,0,1-.028-.051.239.239,0,0,1-.009-.07.224.224,0,0,1,.01-.069.145.145,0,0,1,.03-.054.135.135,0,0,1,.051-.035.189.189,0,0,1,.071-.012.2.2,0,0,1,.069.011A.12.12,0,0,1,4-2.541a.132.132,0,0,1,.028.051A.24.24,0,0,1,4.033-2.42Zm-.086,0a.217.217,0,0,0,0-.04.1.1,0,0,0-.012-.032A.059.059,0,0,0,3.91-2.51a.071.071,0,0,0-.035-.008.073.073,0,0,0-.032.007.058.058,0,0,0-.023.02.1.1,0,0,0-.013.031.178.178,0,0,0,0,.042.207.207,0,0,0,0,.04.1.1,0,0,0,.012.032.056.056,0,0,0,.022.021.072.072,0,0,0,.034.007.074.074,0,0,0,.033-.007.059.059,0,0,0,.023-.02.091.091,0,0,0,.013-.031A.185.185,0,0,0,3.947-2.416Zm.432.147a.011.011,0,0,1,0,.006l-.006,0-.011,0H4.327l-.011,0-.006,0a.01.01,0,0,1,0-.006V-2.3a.19.19,0,0,1-.048.038.114.114,0,0,1-.055.014.115.115,0,0,1-.057-.013A.109.109,0,0,1,4.11-2.3a.153.153,0,0,1-.021-.052.286.286,0,0,1-.007-.062.274.274,0,0,1,.008-.071.16.16,0,0,1,.025-.054.109.109,0,0,1,.04-.034.124.124,0,0,1,.056-.012.1.1,0,0,1,.045.01.16.16,0,0,1,.04.03V-2.7a.01.01,0,0,1,0-.006l.007,0,.013,0h.04l.013,0,.007,0a.01.01,0,0,1,0,.006Zm-.083-.2A.183.183,0,0,0,4.262-2.5a.057.057,0,0,0-.034-.012A.048.048,0,0,0,4.2-2.5a.059.059,0,0,0-.019.022.116.116,0,0,0-.011.03.168.168,0,0,0,0,.034.215.215,0,0,0,0,.036.113.113,0,0,0,.01.031.059.059,0,0,0,.018.022.047.047,0,0,0,.028.008l.017,0,.017-.008a.111.111,0,0,0,.017-.015l.02-.022Zm.338.209-.036.1a.022.022,0,0,1-.016.012.156.156,0,0,1-.039,0H4.522l-.012,0a.009.009,0,0,1,0-.007.021.021,0,0,1,0-.01l.039-.1L4.54-2.264a.029.029,0,0,1-.005-.009l-.1-.272a.056.056,0,0,1,0-.018.012.012,0,0,1,0-.01.026.026,0,0,1,.013,0h.048l.013,0a.014.014,0,0,1,.007.006.062.062,0,0,1,0,.012l.07.2h0l.064-.2a.022.022,0,0,1,.005-.011.022.022,0,0,1,.01,0h.049a.028.028,0,0,1,.014,0,.012.012,0,0,1,0,.01.048.048,0,0,1,0,.014Z" transform="translate(11.188 7.894)" fill="#f2f2f2"/><circle cx="0.281" cy="0.281" r="0.281" transform="translate(1.946 1.419)" fill="none"/><circle cx="0.281" cy="0.281" r="0.281" transform="translate(3.883 1.419)" fill="none"/><path d="M-2020.565-45.837a.428.428,0,0,0-.082-.039.451.451,0,0,0-.14-.024h0a.415.415,0,0,0-.412.416v.039a.433.433,0,0,0,.034.136.41.41,0,0,0,.363.242h.014a.362.362,0,0,0,.126-.019.411.411,0,0,0,.29-.4A.415.415,0,0,0-2020.565-45.837Z" transform="translate(2026.482 49.469)" fill="none"/><path d="M-2118.639-108.578a1.135,1.135,0,0,1,.082-.416h-.126v.223a1.251,1.251,0,0,1-.174.659,1.206,1.206,0,0,1-.484.45,1.476,1.476,0,0,1-.692.16,1.469,1.469,0,0,1-.688-.16,1.193,1.193,0,0,1-.479-.45,1.251,1.251,0,0,1-.175-.659v-1.516a.079.079,0,0,1,.024-.053.094.094,0,0,1,.053-.024h.635v1.569a.686.686,0,0,0,.169.494.61.61,0,0,0,.46.174.628.628,0,0,0,.465-.174.666.666,0,0,0,.169-.494v-1.569h.644a.074.074,0,0,1,.072.073v.586l1.1,0h.169c.02,0,.043,0,.063,0a1.238,1.238,0,0,1,.131.024,2.832,2.832,0,0,0-2.813-2.518,2.83,2.83,0,0,0-2.828,2.963,2.84,2.84,0,0,0,2.7,2.7,2.815,2.815,0,0,0,1.516-.363v-1.675Zm-.417-2.561a.281.281,0,0,1,.281.281.281.281,0,0,1-.281.281.281.281,0,0,1-.281-.281A.284.284,0,0,1-2119.056-111.14Zm-1.937,0a.281.281,0,0,1,.281.281.281.281,0,0,1-.281.281.281.281,0,0,1-.281-.281A.281.281,0,0,1-2120.993-111.14Z" transform="translate(2123.22 112.558)" fill="#f2f2f2"/><circle cx="0.165" cy="0.165" r="0.165" transform="translate(0.784 0.799)" fill="#f2f2f2"/><g transform="translate(6.793 2.958)"><path d="M-1945.051-56.5a.749.749,0,0,0,.077.015.936.936,0,0,0,.126,0,.978.978,0,0,0,.126,0,.742.742,0,0,0,.077-.015.094.094,0,0,0,.044-.024.052.052,0,0,0,.014-.034v-1.133a1.553,1.553,0,0,1,.107-.15.6.6,0,0,1,.1-.1.279.279,0,0,1,.087-.053.281.281,0,0,1,.087-.019.3.3,0,0,1,.068,0l.058.015a.216.216,0,0,1,.043.015.108.108,0,0,0,.039,0,.069.069,0,0,0,.034-.01c.01,0,.015-.019.02-.039s.01-.044.014-.073a.853.853,0,0,0,0-.121v-.116c0-.029,0-.048,0-.063a.306.306,0,0,0-.01-.034c0-.01-.01-.015-.014-.024a.21.21,0,0,0-.034-.019.51.51,0,0,0-.058-.015.282.282,0,0,0-.063-.01c-.019,0-.039,0-.058,0a.479.479,0,0,0-.116.015.418.418,0,0,0-.116.053.775.775,0,0,0-.121.107,1.383,1.383,0,0,0-.135.169v-.228a.067.067,0,0,0-.01-.034.061.061,0,0,0-.034-.024.505.505,0,0,0-.068-.015.685.685,0,0,0-.107,0,.685.685,0,0,0-.106,0c-.029,0-.048.01-.068.015a.076.076,0,0,0-.039.024.094.094,0,0,0-.01.034v1.821a.045.045,0,0,0,.015.034C-1945.085-56.52-1945.07-56.51-1945.051-56.5Z" transform="translate(1947.273 58.5)" fill="#f2f2f2" fill-rule="evenodd"/><path d="M-1915.439-56.012c-.01-.015-.015-.024-.029-.029a.089.089,0,0,0-.034-.01h-.717l.678-1.051a.4.4,0,0,0,.034-.063.3.3,0,0,0,.024-.058l.014-.058a.318.318,0,0,0,0-.073v-.1a.318.318,0,0,0,0-.073.091.091,0,0,0-.019-.044.088.088,0,0,0-.034-.024.15.15,0,0,0-.049,0h-1.114a.092.092,0,0,0-.039.01.063.063,0,0,0-.024.034.573.573,0,0,0-.014.063.553.553,0,0,0,0,.1.376.376,0,0,0,.024.155.07.07,0,0,0,.063.048h.644l-.683,1.051c-.014.024-.029.044-.039.063a.326.326,0,0,0-.024.058l-.014.058c0,.019,0,.044,0,.068v.092a.193.193,0,0,0,.029.121.1.1,0,0,0,.082.039h1.191a.114.114,0,0,0,.039-.01.063.063,0,0,0,.024-.034.2.2,0,0,0,.014-.068.645.645,0,0,0,0-.1.645.645,0,0,0,0-.1C-1915.424-55.973-1915.434-56-1915.439-56.012Z" transform="translate(1920.344 57.644)" fill="#f2f2f2" fill-rule="evenodd"/><path d="M-1882.281-58.239a.734.734,0,0,0-.3-.194A1.247,1.247,0,0,0-1883-58.5a1.079,1.079,0,0,0-.436.077.789.789,0,0,0-.31.213.959.959,0,0,0-.189.329,1.33,1.33,0,0,0-.063.426,1.422,1.422,0,0,0,.058.426.8.8,0,0,0,.174.315.734.734,0,0,0,.3.194,1.238,1.238,0,0,0,.421.068,1.12,1.12,0,0,0,.441-.077.789.789,0,0,0,.31-.213.881.881,0,0,0,.184-.329,1.464,1.464,0,0,0,.063-.426,1.47,1.47,0,0,0-.058-.431A.811.811,0,0,0-1882.281-58.239Zm-.324,1.026a.546.546,0,0,1-.083.194.375.375,0,0,1-.14.121.451.451,0,0,1-.2.044.476.476,0,0,1-.213-.044.32.32,0,0,1-.136-.131.611.611,0,0,1-.073-.2,1.345,1.345,0,0,1-.024-.247,1,1,0,0,1,.029-.257.542.542,0,0,1,.082-.194.336.336,0,0,1,.14-.121.443.443,0,0,1,.2-.044.409.409,0,0,1,.213.048.321.321,0,0,1,.135.131.605.605,0,0,1,.073.2,1.355,1.355,0,0,1,.019.247A.727.727,0,0,1-1882.6-57.212Z" transform="translate(1889.132 58.5)" fill="#f2f2f2" fill-rule="evenodd"/><path d="M-1833.7-58.025a.821.821,0,0,0-.111-.247.546.546,0,0,0-.208-.165.758.758,0,0,0-.315-.063.7.7,0,0,0-.324.082,1.073,1.073,0,0,0-.305.247v-.208a.07.07,0,0,0-.01-.034.062.062,0,0,0-.034-.024.515.515,0,0,0-.068-.015.687.687,0,0,0-.107,0,.689.689,0,0,0-.107,0c-.029,0-.048.01-.068.015a.077.077,0,0,0-.039.024.093.093,0,0,0-.01.034v1.821a.044.044,0,0,0,.014.034.1.1,0,0,0,.044.024.749.749,0,0,0,.077.015.936.936,0,0,0,.126,0,.976.976,0,0,0,.126,0,.776.776,0,0,0,.077-.015.093.093,0,0,0,.043-.024.052.052,0,0,0,.015-.034v-1.211a1.047,1.047,0,0,1,.208-.208.335.335,0,0,1,.2-.073.3.3,0,0,1,.135.029.266.266,0,0,1,.1.082.413.413,0,0,1,.058.131.8.8,0,0,1,.019.208v1.036a.044.044,0,0,0,.015.034.076.076,0,0,0,.039.024.773.773,0,0,0,.078.015.974.974,0,0,0,.126,0,.861.861,0,0,0,.121,0,.753.753,0,0,0,.077-.015.06.06,0,0,0,.039-.024.052.052,0,0,0,.015-.034v-1.123A1.611,1.611,0,0,0-1833.7-58.025Z" transform="translate(1842.886 58.5)" fill="#f2f2f2" fill-rule="evenodd"/><path d="M-1986.887-55.968a1.777,1.777,0,0,1-.838-.174,1.319,1.319,0,0,1-.383-.32l0,0a1.106,1.106,0,0,1-.232-.668c0-.281-.015-.562-.02-.838a.5.5,0,0,0-.145-.344s-.01-.01-.015-.01a.326.326,0,0,0-.068-.053.747.747,0,0,0-.184-.077,1.344,1.344,0,0,0-.368-.044,1.19,1.19,0,0,0-.232.019,1.905,1.905,0,0,0-.208.048,1.127,1.127,0,0,0-.169.068.423.423,0,0,0-.1.063.141.141,0,0,0-.039.068.509.509,0,0,0-.01.1.522.522,0,0,0,0,.087.2.2,0,0,0,.019.063.134.134,0,0,0,.029.039.055.055,0,0,0,.039.015.186.186,0,0,0,.083-.029c.034-.019.077-.039.131-.063a1.276,1.276,0,0,1,.179-.063.835.835,0,0,1,.227-.029.548.548,0,0,1,.165.019.257.257,0,0,1,.106.063.318.318,0,0,1,.058.107.66.66,0,0,1,.02.15v.111h-.179a2.2,2.2,0,0,0-.426.039.979.979,0,0,0-.305.111.5.5,0,0,0-.184.194.555.555,0,0,0-.063.276.606.606,0,0,0,.048.257.524.524,0,0,0,.135.184.616.616,0,0,0,.208.111.931.931,0,0,0,.266.039.771.771,0,0,0,.32-.068.612.612,0,0,0,.073-.039.844.844,0,0,0,.2-.165,1.925,1.925,0,0,0,.087.189,1.732,1.732,0,0,0,.852.731,1.89,1.89,0,0,0,.935.107,1.7,1.7,0,0,0,1.128-.571A2.873,2.873,0,0,1-1986.887-55.968Zm-1.961-1.06a.758.758,0,0,1-.184.16.35.35,0,0,1-.2.053.272.272,0,0,1-.2-.063.227.227,0,0,1-.073-.179.335.335,0,0,1,.024-.121.233.233,0,0,1,.082-.087.37.37,0,0,1,.14-.053.914.914,0,0,1,.213-.019h.194Z" transform="translate(1990 58.5)" fill="#f2f2f2" fill-rule="evenodd"/><path d="M-1907.735-15.255c-.034-.039-.208,0-.291.019-.024,0-.029-.015-.01-.034a.458.458,0,0,1,.4-.077.439.439,0,0,1-.1.387c-.019.019-.039.01-.034-.01.02-.073.073-.247.039-.286" transform="translate(1912.015 17.454)" fill="#f2f2f2" fill-rule="evenodd"/></g></g><path d="M-67.927-20.838h-1.9V-22h1.8v-.577h-1.8v-1.1h1.9v-.614h-2.63v4.063h2.63Zm.4.614h.791l.969-1.492h.023l.957,1.492h.836l-1.332-2.019v-.02l1.354-2.024h-.814l-.952,1.526h-.023l-.94-1.526h-.859l1.312,2.007v.02Zm4.08-4.063v4.063h.726v-1.343h.881a1.313,1.313,0,0,0,1.4-1.36,1.3,1.3,0,0,0-1.366-1.36Zm.726.594H-62a.722.722,0,0,1,.819.766.728.728,0,0,1-.822.774h-.718Zm3.533-.006h.822a.665.665,0,0,1,.743.693.649.649,0,0,1-.726.7h-.839Zm0,1.946h.805l.8,1.529h.831l-.887-1.639a1.179,1.179,0,0,0,.766-1.16,1.238,1.238,0,0,0-1.4-1.264h-1.633v4.063h.726Zm5.527.915h-1.9V-22h1.8v-.577h-1.8v-1.1h1.9v-.614h-2.63v4.063h2.63Zm.465-.529c.031.749.645,1.211,1.579,1.211.983,0,1.6-.484,1.6-1.256,0-.605-.349-.946-1.174-1.135l-.467-.107c-.5-.118-.7-.276-.7-.546,0-.338.31-.563.769-.563s.783.228.816.608h.693c-.017-.715-.608-1.2-1.5-1.2s-1.512.487-1.512,1.208c0,.58.355.94,1.1,1.112l.526.124c.512.121.721.29.721.583,0,.338-.341.58-.831.58s-.87-.245-.915-.619Zm3.562,0c.031.749.645,1.211,1.579,1.211.983,0,1.6-.484,1.6-1.256,0-.605-.349-.946-1.174-1.135l-.467-.107c-.5-.118-.7-.276-.7-.546,0-.338.31-.563.769-.563s.783.228.816.608h.693c-.017-.715-.608-1.2-1.5-1.2s-1.512.487-1.512,1.208c0,.58.355.94,1.1,1.112l.527.124c.512.121.721.29.721.583,0,.338-.341.58-.831.58s-.87-.245-.915-.619Z" transform="translate(-13956.72 3397.62)" fill="#f2f2f2"/></g></svg>