<svg xmlns="http://www.w3.org/2000/svg" width="25.563" height="33.456" viewBox="0 0 25.563 33.456"><path d="M71.6,104.5l-4.843,2.359a2.1,2.1,0,0,0-.977,1.029l-6.042,15.146a2.8,2.8,0,0,0,1.423,3.693l6.01,2.663h4.463Z" transform="translate(-59.501 -97.57)" fill="#faa515"/><path d="M189.17,120.455v2.918a3.014,3.014,0,0,1-2.984,2.984H173.918A2.958,2.958,0,0,1,171,123.373V106.2a2.146,2.146,0,0,1,.471-1.393l3.689-4.469a2.186,2.186,0,0,1,1.676-.835h6.432a2.186,2.186,0,0,1,1.676.835l3.689,4.469a2.211,2.211,0,0,1,.538,1.393v14.257Z" transform="translate(-163.606 -92.902)" fill="#eb423f"/><g transform="translate(11.588 17.122)"><path d="M238.105,264.711h0l-.017-.017-.027-.027-.686-.686-.1.194a2.145,2.145,0,0,0-.726-.126h-.066a2.154,2.154,0,0,0-2.037,2.858l-.2.1.71.712.009.009.01.01h0a2.148,2.148,0,0,0,1.509.618h.066a2.154,2.154,0,0,0,1.554-3.646Zm-1.554,2.652h-.066a1.16,1.16,0,0,1,0-2.321h.066a1.16,1.16,0,1,1,0,2.321Z" transform="translate(-234.247 -263.596)" fill="#faa515" fill-rule="evenodd"/><path d="M247.551,258.86l-.663-.663-9.192,9.191.663.663a.5.5,0,0,0,.7,0l8.488-8.488A.5.5,0,0,0,247.551,258.86Z" transform="translate(-237.467 -258.197)" fill="#faa515" fill-rule="evenodd"/><path d="M336.256,344.124h0l-.549-.556.036.226a2.142,2.142,0,0,0-.9-.2h-.066a2.154,2.154,0,0,0-1.974,3.019l-.243-.035.66.659q.035.037.072.072l.015.015h0a2.147,2.147,0,0,0,1.47.581h.066a2.154,2.154,0,0,0,1.411-3.783Zm-1.411,2.788h-.066a1.161,1.161,0,0,1,0-2.321h.066a1.161,1.161,0,0,1,0,2.321Z" transform="translate(-326.042 -337.906)" fill="#faa515" fill-rule="evenodd"/></g><g transform="translate(11.008 16.91)"><path d="M236,265.483a.5.5,0,0,1-.352-.849l8.488-8.488a.5.5,0,1,1,.7.7l-8.488,8.488A.5.5,0,0,1,236,265.483Z" transform="translate(-234.836 -255.934)" fill="#ffd691"/><path d="M227.721,259.31h-.066a2.155,2.155,0,0,1,0-4.31h.066a2.155,2.155,0,1,1,0,4.31Zm-.066-3.316a1.16,1.16,0,0,0,0,2.321h.066a1.16,1.16,0,1,0,0-2.321Z" transform="translate(-225.5 -255)" fill="#ffd691"/><path d="M325.722,338.31h-.066a2.155,2.155,0,1,1,0-4.31h.066a2.155,2.155,0,0,1,0,4.31Zm-.066-3.316a1.16,1.16,0,1,0,0,2.321h.066a1.16,1.16,0,1,0,0-2.321Z" transform="translate(-317.001 -328.761)" fill="#ffd691"/></g><path d="M316.8,10.642a.5.5,0,0,1-.138-.975c.056-.016.113-.034.169-.053a3.747,3.747,0,0,0,2.535-3.547V.5a.5.5,0,0,1,.995,0v5.57a4.741,4.741,0,0,1-3.209,4.488c-.07.024-.142.047-.214.067A.5.5,0,0,1,316.8,10.642Z" transform="translate(-299.272 0.001)" fill="#faa515"/><path d="M286.058,135.117a1.558,1.558,0,1,1,1.558-1.558A1.56,1.56,0,0,1,286.058,135.117Z" transform="translate(-269.579 -123.247)" fill="#f5f5f5"/></svg>