<svg xmlns="http://www.w3.org/2000/svg" width="29.086" height="32.148" viewBox="0 0 29.086 32.148"><g transform="translate(12911.49 -3256.164)"><path d="M152.675,42.206a.51.51,0,0,1-.51-.51v-5.1a3.572,3.572,0,1,0-7.144,0v5.1a.51.51,0,0,1-1.021,0v-5.1a4.593,4.593,0,1,1,9.185,0v5.1A.51.51,0,0,1,152.675,42.206Z" transform="translate(-13048.346 3224.164)" fill="#006d74" opacity="0.17"/><path d="M41.35,172.411H24L25.021,152H40.329Z" transform="translate(-12935.49 3115.9)" fill="#eb423f"/><path d="M285.1,172.411h-4.082L280,152h4.082Z" transform="translate(-13175.671 3111.818)" fill="#d13330"/><path d="M305.561,169.859h-.031a.51.51,0,0,1-.509-.48L304,152.03c0-.01,0-.02,0-.03h1.022l1.019,17.32A.511.511,0,0,1,305.561,169.859Z" transform="translate(-13198.141 3111.818)" fill="#a82a27"/><path d="M413.1,277.267h-4.082l-.064-.825h0L408,264h4.082l.941,12.227h0Z" transform="translate(-13295.507 3006.962)" fill="#eba72e"/><path d="M433.582,274.713l-.052,0a.51.51,0,0,1-.507-.459l-.018-.182-1-10.023a.46.46,0,0,1,0-.051h1.023l1,10.028.013.127A.51.51,0,0,1,433.582,274.713Z" transform="translate(-13317.976 3006.962)" fill="#e09f2c"/><path d="M427.146,419.572h-.614L425.1,417.43l-1.427,2.142h-.614l-.064-.825h0l1.579-2.368.1-.152a.511.511,0,0,1,.85,0l.07.105,1.466,2.2h0Z" transform="translate(-13309.55 2864.657)" fill="#e09f2c"/><path d="M229.267,277.267H216L217.021,264h11.226Z" transform="translate(-13115.753 3006.962)" fill="#f7b030"/><path d="M275.572,311.144h-1.021A2.554,2.554,0,0,1,272,308.593V304.51a.51.51,0,0,1,1.021,0v4.082a1.533,1.533,0,0,0,1.531,1.531h1.021a1.533,1.533,0,0,0,1.531-1.531V304.51a.51.51,0,1,1,1.021,0v4.082A2.554,2.554,0,0,1,275.572,311.144Z" transform="translate(-13168.182 2969.513)" fill="#006d74"/><path d="M96,184h1.021v3.062H96Z" transform="translate(-13003.407 3081.859)" fill="#dadcde"/><path d="M96.51,42.206A.51.51,0,0,1,96,41.7v-5.1a4.593,4.593,0,1,1,9.185,0v5.1a.51.51,0,1,1-1.021,0v-5.1a3.572,3.572,0,0,0-7.144,0v5.1A.51.51,0,0,1,96.51,42.206Z" transform="translate(-13003.407 3224.164)" fill="#006d74"/><path d="M83.062,221.1H80v-4.082L81.531,216l1.531,1.021Z" transform="translate(-12988.428 3051.9)" fill="#f7b030"/></g></svg>