<svg xmlns="http://www.w3.org/2000/svg" width="33.82" height="23.873" viewBox="0 0 33.82 23.873"><path d="M215.889,98.873H195.995L195,86.936,195.995,75h19.894v6.963l-.663.995.663.995V98.873Z" transform="translate(-182.069 -75)" fill="#fdbf00"/><path d="M11.936,98.873H0V83.952l.663-.995L0,81.963V75H11.936l.9,11.936Z" transform="translate(0 -75)" fill="#ffda2d"/><path d="M180.995,98.873H180V75h.995l.663,11.936Z" transform="translate(-168.064 -75)" fill="#ed1c24"/><path d="M5.143,181.989H0V180H5.143l.825.995Z" transform="translate(0 -173.037)" fill="#ed1c24"/><path d="M313.926,181.989h-13.1l-.825-.995.825-.995h13.1v1.989Z" transform="translate(-280.106 -173.037)" fill="#ee8700"/><path d="M295.942,290.968H285V285h10.942v5.968Z" transform="translate(-266.101 -271.074)" fill="#ecf2ff"/><path d="M75,152.984A2.984,2.984,0,0,1,77.984,150a5.828,5.828,0,0,1,2.656,1.179,24.367,24.367,0,0,1,2.318,1.805,24.365,24.365,0,0,1-2.318,1.805,5.828,5.828,0,0,1-2.656,1.179A2.984,2.984,0,0,1,75,152.984Z" transform="translate(-70.026 -145.026)" fill="#ee8700"/><path d="M195.995,98.873H195V75h.995V98.873Z" transform="translate(-182.069 -75)" fill="#ee8700"/><path d="M202.958,152.984a2.984,2.984,0,0,1-2.984,2.984,5.828,5.828,0,0,1-2.656-1.179A24.368,24.368,0,0,1,195,152.984a24.367,24.367,0,0,1,2.318-1.805A5.828,5.828,0,0,1,199.974,150a2.984,2.984,0,0,1,2.984,2.984Z" transform="translate(-182.069 -145.026)" fill="#ed1c24"/></svg>