<?xml version="1.0" encoding="utf-8"?>
<!-- Generator: Adobe Illustrator 24.0.2, SVG Export Plug-In . SVG Version: 6.00 Build 0)  -->
<svg version="1.1" id="Layer_1" xmlns="http://www.w3.org/2000/svg" xmlns:xlink="http://www.w3.org/1999/xlink" x="0px" y="0px"
	 viewBox="0 0 200 60" style="enable-background:new 0 0 200 60;" xml:space="preserve">
<style type="text/css">
	.st0{fill:#FFFFFF;}
</style>
<g>
	<g>
		<g>
			<path class="st0" d="M44.1,28.8c-0.9,2.8-2.3,5.4-4.1,7.8c-2.7,3.7-5.9,7-9.5,10c-2.1,1.8-4.3,3.6-6.5,5.4
				c-0.1,0.1-0.2,0.1-0.2,0.1v-2.3c0.1,0,0.1,0,0.2-0.1c2-1.8,4.2-3.5,6.1-5.4c4.6-4.4,8.1-9.6,10-15.8c0.3-1,0.5-2.1,0.7-3.1
				c0.2-1.8-0.3-3.5-1.5-4.9c-1.9-2.3-4.3-3.5-7.6-3.7c-0.5,0.1-1.4,0.2-2.2,0.4c-0.7,0.2-1.3,0-1.5-0.6C27.8,16,28,15.4,28.6,15
				c1.9-1.2,4.1-1.7,6.4-1.5c4.5,0.4,8.6,3.9,9.6,8.7C45,24.5,44.7,26.7,44.1,28.8z"/>
			<path class="st0" d="M23.8,49.8v2.3c-0.1,0-0.1,0-0.2-0.1c-2.7-2.3-5.4-4.5-8-6.8c-3.3-3-6.2-6.3-8.5-10.2
				c-1.4-2.4-2.4-4.8-2.9-7.5C3.7,24.1,4,21,6,18.2c2.3-3.3,5.5-4.9,9.5-4.7c1.7,0.1,3.3,0.6,4.7,1.5c0.5,0.3,0.7,0.7,0.6,1.2
				c-0.1,0.8-0.8,1.2-1.6,1c-4.1-1.3-8.5,0.9-10.4,4.2c-0.8,1.5-1,3.1-0.8,4.8c1,6.6,3.9,12.2,8.4,17c1.6,1.7,3.5,3.2,5.2,4.7
				c0.6,0.6,1.3,1.1,1.9,1.7C23.7,49.7,23.8,49.8,23.8,49.8z"/>
			<path class="st0" d="M31.4,31.7c0.7,1.3,1.7,2.3,3,3.2c0.5,0.3,1,0.6,1.5,0.9c0.1,0.1,0.2,0.1,0.3,0.2c0.1,0.1,0.2,0.3,0.1,0.4
				c0,0.1-0.2,0.2-0.3,0.2c-0.7,0.1-1.4-0.1-2-0.3c-1.4-0.6-2.5-1.4-3.4-2.7c-0.2-0.3-0.4-0.6-0.6-0.8c-0.3-0.3-0.7-0.5-1.2-0.4
				c-0.5,0.1-0.6,0.5-0.7,1c-0.1,1.3-0.2,2.7-0.2,4c0,0.9,0.1,1.7,0.2,2.7c0,0,0.1,1.5-0.6,0.3c-0.3-0.7-0.6-1.3-0.8-2
				c-0.5-1.5-0.5-3.1-0.3-4.7c0.3-2.8,0.5-5.5,0.4-8.3c-0.1-1.9-0.1-3.8-0.1-5.7c0-0.7,0.1-1.5,0.2-2.2c0-0.1,0-0.2,0.1-0.3
				c0.5,0.3,0.6,0.8,0.6,1.3c0.1,1,0.1,2,0.2,2.9c0.1,0.8,0.3,1.7,0.6,2.4c0.8,2,2.5,2.8,4.6,2.2c0.9-0.3,1.7-0.6,2.5-1
				c1.5-0.7,3.1-1,4.8-0.7c0.1,0,0.3,0.1,0.4,0.1c0,0,0,0.1,0,0.1c-0.2,0.1-0.5,0.2-0.7,0.2c-2.6,0.4-5,1.5-7.2,2.8
				C31,28.4,30.6,30,31.4,31.7z"/>
			<path class="st0" d="M17.3,31.5c-0.7,1.3-1.7,2.3-3,3.2c-0.5,0.3-1,0.6-1.5,0.9c-0.1,0.1-0.2,0.1-0.3,0.2
				c-0.1,0.1-0.2,0.3-0.1,0.4c0,0.1,0.2,0.2,0.3,0.2c0.7,0.1,1.4-0.1,2-0.3c1.4-0.6,2.5-1.4,3.4-2.7c0.2-0.3,0.4-0.6,0.6-0.8
				c0.3-0.3,0.7-0.5,1.2-0.4c0.5,0.1,0.6,0.5,0.7,1c0.1,1.3,0.2,2.7,0.2,4c0,0.9-0.1,1.7-0.2,2.7c0,0-0.1,1.5,0.6,0.3
				c0.3-0.7,0.6-1.3,0.8-2c0.5-1.5,0.5-3.1,0.3-4.7c-0.3-2.8-0.5-5.5-0.4-8.3c0.1-1.9,0.1-3.8,0.1-5.7c0-0.7-0.1-1.5-0.2-2.2
				c0-0.1,0-0.2-0.1-0.3c-0.5,0.3-0.6,0.8-0.6,1.3c-0.1,1-0.1,2-0.2,2.9c-0.1,0.8-0.3,1.7-0.6,2.4c-0.8,2-2.5,2.8-4.6,2.2
				c-0.9-0.3-1.7-0.6-2.5-1c-1.5-0.7-3.1-1-4.8-0.7c-0.1,0-0.3,0.1-0.4,0.1c0,0,0,0.1,0,0.1c0.2,0.1,0.5,0.2,0.7,0.2
				c2.6,0.4,5,1.5,7.2,2.8C17.7,28.3,18.2,29.9,17.3,31.5z"/>
			<path class="st0" d="M26.7,10.9c0,1.3-1.1,2.4-2.4,2.3c-1.3,0-2.4-1.1-2.4-2.4c0-1.3,1.1-2.4,2.5-2.4
				C25.7,8.5,26.7,9.5,26.7,10.9z"/>
			<path class="st0" d="M32.4,24.5c0,0.7-0.5,1.2-1.2,1.2c-0.7,0-1.2-0.5-1.2-1.2c0-0.7,0.5-1.2,1.2-1.2
				C31.8,23.2,32.4,23.8,32.4,24.5z"/>
			<path class="st0" d="M18.8,24.4c0,0.7-0.5,1.2-1.2,1.2c-0.7,0-1.2-0.5-1.2-1.2c0-0.7,0.5-1.2,1.2-1.2
				C18.2,23.2,18.8,23.7,18.8,24.4z"/>
			<g>
				<g>
					<path class="st0" d="M24.6,7.1v0.8c0,0.2-0.2,0.4-0.4,0.4c-0.2,0-0.4-0.2-0.4-0.4V7.1H24.6z"/>
					<path class="st0" d="M24.6,6.3v0.8h-0.7V6.3C23.9,6.1,24,6,24.2,6c0.1,0,0.2,0,0.3,0.1C24.5,6.1,24.6,6.2,24.6,6.3z"/>
				</g>
				<path class="st0" d="M27.5,8.8l-0.6,0.5c-0.2,0.1-0.4,0.1-0.5,0c-0.1-0.2-0.1-0.4,0-0.5L27,8.2L27.5,8.8z"/>
				<path class="st0" d="M28.1,8.3l-0.6,0.5L27,8.2l0.6-0.5c0.2-0.1,0.4-0.1,0.5,0c0.1,0.1,0.1,0.2,0.1,0.3
					C28.2,8.1,28.2,8.2,28.1,8.3z"/>
				<path class="st0" d="M27.9,12l-0.8-0.2c-0.2,0-0.3-0.2-0.3-0.4c0-0.2,0.2-0.3,0.4-0.3l0.8,0.2L27.9,12z"/>
				<path class="st0" d="M28.7,12.2L27.9,12l0.1-0.7l0.8,0.2c0.2,0,0.3,0.2,0.3,0.4c0,0.1-0.1,0.2-0.2,0.2
					C28.9,12.2,28.8,12.2,28.7,12.2z"/>
				<path class="st0" d="M25.8,14.4l-0.4-0.7c-0.1-0.2-0.1-0.4,0.1-0.5c0.2-0.1,0.4-0.1,0.5,0.1l0.4,0.7L25.8,14.4z"/>
				<path class="st0" d="M26.2,15l-0.4-0.7l0.6-0.4l0.4,0.7c0.1,0.2,0.1,0.4-0.1,0.5c-0.1,0.1-0.2,0.1-0.3,0
					C26.4,15.2,26.3,15.1,26.2,15z"/>
				<g>
					<path class="st0" d="M21.1,9l-0.6-0.5c-0.2-0.1-0.2-0.3-0.1-0.5c0.1-0.2,0.3-0.2,0.5-0.1l0.6,0.5L21.1,9z"/>
					<path class="st0" d="M21.7,9.5L21.1,9l0.4-0.6l0.6,0.5c0.2,0.1,0.2,0.3,0.1,0.5c-0.1,0.1-0.1,0.1-0.2,0.1
						C21.9,9.5,21.8,9.5,21.7,9.5z"/>
				</g>
				<path class="st0" d="M23.2,14.4l-0.4,0.7c-0.1,0.2-0.3,0.2-0.5,0.2c-0.2-0.1-0.2-0.3-0.2-0.5l0.4-0.7L23.2,14.4z"/>
				<path class="st0" d="M23.5,13.7l-0.4,0.7l-0.6-0.3l0.4-0.7c0.1-0.2,0.3-0.2,0.5-0.2c0.1,0,0.1,0.1,0.2,0.2
					C23.6,13.5,23.6,13.6,23.5,13.7z"/>
				<g>
					<path class="st0" d="M20.9,12.2l-0.8,0.2c-0.2,0-0.4-0.1-0.4-0.3c0-0.2,0.1-0.4,0.3-0.4l0.8-0.2L20.9,12.2z"/>
					<path class="st0" d="M21.6,12l-0.8,0.2l-0.1-0.7l0.8-0.2c0.2,0,0.4,0.1,0.4,0.3c0,0.1,0,0.2-0.1,0.3C21.8,12,21.7,12,21.6,12z"
						/>
				</g>
				<g>
					<path class="st0" d="M23.2,14.4l-0.4,0.7c-0.1,0.2-0.3,0.2-0.5,0.1s-0.2-0.3-0.1-0.5l0.4-0.7L23.2,14.4z"/>
					<path class="st0" d="M23.5,13.7l-0.4,0.7L22.5,14l0.4-0.7c0.1-0.2,0.3-0.2,0.5-0.1c0.1,0,0.1,0.1,0.2,0.2
						C23.6,13.5,23.6,13.6,23.5,13.7z"/>
				</g>
			</g>
			<g>
				<path class="st0" d="M25.9,38.9"/>
			</g>
			<g>
				<path class="st0" d="M28.6,37.4"/>
			</g>
			<path class="st0" d="M30.8,42.7L27,44.5l-1.3-2.7l3.8-1.8c0.7-0.3,1.6,0,2,0.7l0,0.1C31.9,41.4,31.6,42.3,30.8,42.7z"/>
			<path class="st0" d="M17.8,42.5l3.8,1.8l1.3-2.7l-3.8-1.8c-0.7-0.3-1.6,0-2,0.7l0,0.1C16.8,41.3,17.1,42.1,17.8,42.5z"/>
			<g>
				<circle class="st0" cx="26.4" cy="43.7" r="0.3"/>
				<circle class="st0" cx="25.7" cy="43.5" r="0.3"/>
				<circle class="st0" cx="22.4" cy="46.2" r="0.2"/>
				<circle class="st0" cx="24.9" cy="43.3" r="0.2"/>
				<circle class="st0" cx="25.2" cy="44.4" r="0.2"/>
				<circle class="st0" cx="24.9" cy="47.3" r="0.2"/>
				<circle class="st0" cx="25.5" cy="45" r="0.2"/>
				<circle class="st0" cx="25.1" cy="45.5" r="0.2"/>
				<circle class="st0" cx="25.1" cy="46.1" r="0.1"/>
				<circle class="st0" cx="24.8" cy="46.8" r="0.3"/>
				<circle class="st0" cx="23.5" cy="47.7" r="0.1"/>
				<circle class="st0" cx="24.4" cy="49.2" r="0.1"/>
				<circle class="st0" cx="24.3" cy="47.4" r="0.1"/>
				<circle class="st0" cx="23.6" cy="48.3" r="0.1"/>
				<circle class="st0" cx="25" cy="47.9" r="0.2"/>
				<circle class="st0" cx="23.9" cy="49.2" r="0.3"/>
				<circle class="st0" cx="23.3" cy="48.6" r="0.2"/>
				<circle class="st0" cx="24.5" cy="43.1" r="0.2"/>
				<circle class="st0" cx="24.7" cy="43.9" r="0.2"/>
				<circle class="st0" cx="24.1" cy="44.2" r="0.2"/>
				<circle class="st0" cx="25.3" cy="44.1" r="0.1"/>
				<circle class="st0" cx="26.7" cy="44.2" r="0.1"/>
				<circle class="st0" cx="25.9" cy="44.2" r="0.1"/>
				<circle class="st0" cx="26.1" cy="44.7" r="0.1"/>
				<circle class="st0" cx="24.2" cy="44.8" r="0.3"/>
				<circle class="st0" cx="24.7" cy="44.3" r="0.1"/>
				<circle class="st0" cx="25.8" cy="42.7" r="0.2"/>
				<circle class="st0" cx="25.1" cy="42.7" r="0.2"/>
				<circle class="st0" cx="24.8" cy="44.9" r="0.2"/>
				<circle class="st0" cx="23.9" cy="46.4" r="0.2"/>
				<circle class="st0" cx="24.6" cy="45.8" r="0.2"/>
				<circle class="st0" cx="25.2" cy="46.5" r="0.2"/>
				<circle class="st0" cx="24.7" cy="46.2" r="0.2"/>
				<circle class="st0" cx="24.2" cy="46.8" r="0.1"/>
				<circle class="st0" cx="24.4" cy="47.9" r="0.1"/>
				<circle class="st0" cx="23.5" cy="49.4" r="0.1"/>
				<circle class="st0" cx="24.4" cy="45.5" r="0.2"/>
				<circle class="st0" cx="25.1" cy="42.2" r="0.3"/>
			</g>
			<g>
				<circle class="st0" cx="21.3" cy="43.5" r="0.3"/>
				<circle class="st0" cx="22" cy="43.2" r="0.3"/>
				<circle class="st0" cx="24.3" cy="46.2" r="0.2"/>
				<circle class="st0" cx="22.7" cy="43.1" r="0.2"/>
				<circle class="st0" cx="22.5" cy="44.2" r="0.2"/>
				<circle class="st0" cx="23.9" cy="46.9" r="0.2"/>
				<circle class="st0" cx="22.2" cy="44.8" r="0.2"/>
				<circle class="st0" cx="22.6" cy="45.3" r="0.2"/>
				<circle class="st0" cx="22.6" cy="45.9" r="0.1"/>
				<circle class="st0" cx="22.9" cy="46.6" r="0.3"/>
				<circle class="st0" cx="24.1" cy="47.5" r="0.1"/>
				<circle class="st0" cx="23.4" cy="47.1" r="0.1"/>
				<circle class="st0" cx="24.1" cy="48" r="0.1"/>
				<circle class="st0" cx="23.1" cy="47.5" r="0.2"/>
				<circle class="st0" cx="24.1" cy="48.6" r="0.3"/>
				<circle class="st0" cx="23.7" cy="47.8" r="0.2"/>
				<circle class="st0" cx="23.2" cy="42.9" r="0.2"/>
				<circle class="st0" cx="23" cy="43.6" r="0.2"/>
				<circle class="st0" cx="23.6" cy="44" r="0.2"/>
				<circle class="st0" cx="22.4" cy="43.9" r="0.1"/>
				<circle class="st0" cx="21.8" cy="43.9" r="0.1"/>
				<circle class="st0" cx="21.9" cy="44.4" r="0.1"/>
				<circle class="st0" cx="23.6" cy="44.9" r="0.3"/>
				<circle class="st0" cx="23" cy="44" r="0.1"/>
				<circle class="st0" cx="26.8" cy="44.5" r="0.1"/>
				<circle class="st0" cx="21.9" cy="42.5" r="0.2"/>
				<circle class="st0" cx="22.6" cy="42.5" r="0.2"/>
				<circle class="st0" cx="23.1" cy="44.7" r="0.2"/>
				<circle class="st0" cx="23.8" cy="45.4" r="0.2"/>
				<circle class="st0" cx="23" cy="45.5" r="0.2"/>
				<circle class="st0" cx="23.8" cy="46" r="0.2"/>
				<circle class="st0" cx="23.1" cy="46.2" r="0.2"/>
				<circle class="st0" cx="23.5" cy="46.5" r="0.1"/>
				<circle class="st0" cx="23.4" cy="45.9" r="0.2"/>
				<circle class="st0" cx="22.6" cy="41.9" r="0.3"/>
			</g>
			<line class="st0" x1="23.8" y1="49.8" x2="23.8" y2="49.7"/>
		</g>
	</g>
	<g>
		<path class="st0" d="M55.8,25.4v4.4h7.1v4.1h-7.1v4.8h8v4.2H50.5V21.1h13.3v4.2H55.8z"/>
		<path class="st0" d="M91.8,21.1v21.7h-5.3v-13l-4.9,13h-4.3l-4.9-13v13h-5.3V21.1h6.2l6.1,15l6-15H91.8z"/>
		<path class="st0" d="M100.9,25.4v4.4h7.1v4.1h-7.1v4.8h8v4.2H95.6V21.1h13.3v4.2H100.9z"/>
		<path class="st0" d="M126.5,22.5c1.7,0.9,3,2.2,4,3.8c0.9,1.6,1.4,3.5,1.4,5.7c0,2.1-0.5,4-1.4,5.7c-0.9,1.6-2.3,2.9-4,3.8
			c-1.7,0.9-3.7,1.4-6,1.4h-8.1V21.1h8.1C122.8,21.1,124.8,21.6,126.5,22.5z M124.8,36.6c1.1-1.1,1.7-2.6,1.7-4.6
			c0-2-0.6-3.6-1.7-4.7c-1.1-1.1-2.7-1.7-4.7-1.7h-2.5v12.6h2.5C122.1,38.2,123.7,37.7,124.8,36.6z"/>
		<path class="st0" d="M140.1,21.1v21.7h-5.3V21.1H140.1z"/>
		<path class="st0" d="M149.2,38.7h6.9v4.1h-12.2V21.1h5.3V38.7z"/>
		<path class="st0" d="M164,21.1v21.7h-5.3V21.1H164z"/>
		<path class="st0" d="M181.9,21.1v4.2h-8.8v4.6h6.6V34h-6.6v8.8h-5.3V21.1H181.9z"/>
		<path class="st0" d="M190,25.4v4.4h7.1v4.1H190v4.8h8v4.2h-13.3V21.1H198v4.2H190z"/>
	</g>
</g>
</svg>
