<svg xmlns="http://www.w3.org/2000/svg" xmlns:xlink="http://www.w3.org/1999/xlink" width="72.004" height="70.206" viewBox="0 0 72.004 70.206"><defs><filter id="a" x="0" y="0" width="72.004" height="70.206" filterUnits="userSpaceOnUse"><feOffset dy="3" input="SourceAlpha"/><feGaussianBlur stdDeviation="3" result="b"/><feFlood flood-opacity="0.161"/><feComposite operator="in" in2="b"/><feComposite in="SourceGraphic"/></filter></defs><g transform="matrix(1, 0, 0, 1, 0, 0)" filter="url(#a)"><path d="M41.592,45.2a5.3,5.3,0,1,1-5.4,5.3A5.367,5.367,0,0,1,41.592,45.2ZM57.379,3.6V8.9h-5.4L42.257,28.235l4.064,6.495A5.018,5.018,0,0,1,47,37.249c0,3.549-2.47,5.3-5.82,5.3H9.6v-5.1H40.516a.633.633,0,0,0,.676-.663,3.278,3.278,0,0,0-.286-.663l-2.7-4.18H18.091a5.311,5.311,0,0,1-4.725-2.783L3.645,12.747a3.049,3.049,0,0,1-.27-1.325,2.575,2.575,0,0,1,2.7-2.52h39.96L48.6,3.6ZM15,45.2a5.3,5.3,0,1,1-5.4,5.3A5.367,5.367,0,0,1,15,45.2Z" transform="translate(5.63 2.4)" fill="#fff"/></g></svg>