<svg xmlns="http://www.w3.org/2000/svg" width="331.381" height="512" viewBox="0 0 331.381 512">
  <g id="shopping-bag" transform="translate(-90.31 0)">
    <g id="Group_67341" data-name="Group 67341">
      <g id="Group_67335" data-name="Group 67335">
        <g id="Group_67334" data-name="Group 67334">
          <g id="Group_67333" data-name="Group 67333">
            <path id="Path_21480" data-name="Path 21480" d="M386.34,512H125.66a35.349,35.349,0,0,1-35.349-35.349V122.49a10.3,10.3,0,0,1,10.3-10.3H411.393a10.3,10.3,0,0,1,10.3,10.3V476.651A35.351,35.351,0,0,1,386.34,512Z" fill="#15a6b1"/>
            <path id="Path_21481" data-name="Path 21481" d="M421.689,122.493V476.649A35.352,35.352,0,0,1,386.337,512H350.429a35.349,35.349,0,0,0,35.341-35.352V122.493a10.288,10.288,0,0,0-10.3-10.3H411.39a10.3,10.3,0,0,1,10.3,10.3Z" fill="#19868d"/>
            <path id="Path_21482" data-name="Path 21482" d="M421.687,122.491v57.178H90.313V122.491a10.287,10.287,0,0,1,10.3-10.291H411.386a10.287,10.287,0,0,1,10.3,10.291Z" fill="#006d74"/>
            <path id="Path_21483" data-name="Path 21483" d="M226.214,130.254A28.33,28.33,0,1,1,176.059,112.2h43.649A28.213,28.213,0,0,1,226.214,130.254Z" fill="#045155"/>
            <g id="Group_67329" data-name="Group 67329">
              <path id="Path_21484" data-name="Path 21484" d="M133.636,145.928v33.736H90.31Z" fill="#045155"/>
            </g>
            <g id="Group_67330" data-name="Group 67330">
              <path id="Path_21485" data-name="Path 21485" d="M378.364,145.928v33.736H421.69Z" fill="#045155"/>
            </g>
            <g id="Group_67331" data-name="Group 67331">
              <path id="Path_21486" data-name="Path 21486" d="M411.392,112.193l-33.028,33.736,43.326,33.736V122.49a10.3,10.3,0,0,0-10.3-10.3Z" fill="#19868d"/>
            </g>
            <g id="Group_67332" data-name="Group 67332">
              <path id="Path_21487" data-name="Path 21487" d="M100.608,112.193l33.028,33.736L90.31,179.664V122.49a10.3,10.3,0,0,1,10.3-10.3Z" fill="#19868d"/>
            </g>
          </g>
        </g>
      </g>
      <g id="Group_67336" data-name="Group 67336">
        <path id="Path_21488" data-name="Path 21488" d="M256,421.256a83.126,83.126,0,0,1-83.032-83.032V277a7.723,7.723,0,0,1,15.446,0v61.226a67.586,67.586,0,1,0,135.172,0v-61.6a7.723,7.723,0,0,1,15.446,0v61.6A83.126,83.126,0,0,1,256,421.256Z" fill="#006d74"/>
      </g>
      <path id="Path_21489" data-name="Path 21489" d="M256,395.4a83.014,83.014,0,0,1-82.92-82.92V251.254a7.611,7.611,0,1,1,15.222,0V312.48a67.7,67.7,0,0,0,135.394,0v-61.6a7.611,7.611,0,0,1,15.223,0V312.48A83.012,83.012,0,0,1,256,395.4Z" fill="#f8f3f1"/>
      <g id="Group_67338" data-name="Group 67338">
        <g id="Group_67337" data-name="Group 67337">
          <circle id="Ellipse_1687" data-name="Ellipse 1687" cx="17.19" cy="17.19" r="17.19" transform="translate(314.119 216.875)" fill="#b9acac"/>
        </g>
      </g>
      <g id="Group_67340" data-name="Group 67340">
        <g id="Group_67339" data-name="Group 67339">
          <circle id="Ellipse_1688" data-name="Ellipse 1688" cx="17.19" cy="17.19" r="17.19" transform="translate(163.501 216.875)" fill="#b9acac"/>
        </g>
      </g>
    </g>
    <g id="Group_67342" data-name="Group 67342">
      <path id="Path_21497" data-name="Path 21497" d="M28.328,0A28.328,28.328,0,1,1,0,28.328,28.328,28.328,0,0,1,28.328,0Z" transform="translate(169.553 80.889)" fill="#15a6b1"/>
      <path id="Path_21490" data-name="Path 21490" d="M226.207,109.214a28.315,28.315,0,0,1-42.693,24.415,25.064,25.064,0,0,0,.013-48.83,28.322,28.322,0,0,1,42.68,24.415Z" fill="#19868d"/>
    </g>
    <g id="Group_67343" data-name="Group 67343">
      <circle id="Ellipse_1690" data-name="Ellipse 1690" cx="22.355" cy="22.355" r="22.355" transform="translate(300.105 20.393)" fill="#15a6b1"/>
      <path id="Path_21491" data-name="Path 21491" d="M344.813,42.746a22.345,22.345,0,0,1-33.691,19.267,19.779,19.779,0,0,0,.01-38.534,22.35,22.35,0,0,1,33.681,19.267Z" fill="#19868d"/>
    </g>
    <g id="Group_67344" data-name="Group 67344">
      <path id="Path_21492" data-name="Path 21492" d="M314.728,179.665a22.355,22.355,0,1,0-41.624,0Z" fill="#a8e7ef"/>
      <path id="Path_21493" data-name="Path 21493" d="M297.891,171.5a19.712,19.712,0,0,1-1.759,8.161h18.6a22.351,22.351,0,0,0-32.138-27.428A19.776,19.776,0,0,1,297.891,171.5Z" fill="#70d9e6"/>
    </g>
    <g id="Group_67345" data-name="Group 67345">
      <circle id="Ellipse_1691" data-name="Ellipse 1691" cx="22.355" cy="22.355" r="22.355" transform="translate(111.265 25.542)" fill="#a8e7ef"/>
      <path id="Path_21494" data-name="Path 21494" d="M155.973,47.9a22.345,22.345,0,0,1-33.691,19.267,19.779,19.779,0,0,0,.01-38.534A22.35,22.35,0,0,1,155.973,47.9Z" fill="#70d9e6"/>
    </g>
    <g id="Group_67346" data-name="Group 67346">
      <path id="Path_21495" data-name="Path 21495" d="M245.053,2.23a7.612,7.612,0,0,0-10.764,0l-4.118,4.118L226.053,2.23a7.611,7.611,0,1,0-10.764,10.764l4.118,4.118-4.118,4.118a7.611,7.611,0,0,0,10.764,10.764l4.118-4.118,4.118,4.118A7.611,7.611,0,0,0,245.053,21.23l-4.118-4.118,4.118-4.118a7.61,7.61,0,0,0,0-10.764Z" fill="#10b3bf"/>
      <path id="Path_21496" data-name="Path 21496" d="M410.791,71.621l4.118-4.118a7.611,7.611,0,0,0-10.764-10.764l-4.118,4.118-4.118-4.118A7.611,7.611,0,1,0,385.145,67.5l4.118,4.118-4.118,4.118A7.611,7.611,0,0,0,395.909,86.5l4.118-4.118,4.118,4.118a7.611,7.611,0,0,0,10.764-10.764Z" fill="#10b3bf"/>
    </g>
  </g>
</svg>
