<svg xmlns="http://www.w3.org/2000/svg" width="21.267" height="24.45" viewBox="0 0 21.267 24.45"><path d="M18.989,12.225H7.216V7.3a3.418,3.418,0,1,1,6.836-.043v.764a1.14,1.14,0,0,0,1.139,1.146H16.71a1.14,1.14,0,0,0,1.139-1.146V7.259A7.216,7.216,0,1,0,3.418,7.33v4.895H2.279A2.286,2.286,0,0,0,0,14.517v7.641A2.286,2.286,0,0,0,2.279,24.45h16.71a2.286,2.286,0,0,0,2.279-2.292V14.517A2.286,2.286,0,0,0,18.989,12.225Zm-6.456,7.259a1.9,1.9,0,1,1-3.8,0V17.191a1.9,1.9,0,1,1,3.8,0Z" transform="translate(0 0)" fill="#272727"/></svg>