<svg xmlns="http://www.w3.org/2000/svg" width="18.958" height="16.849" viewBox="0 0 18.958 16.849"><path d="M13.251,2.742,16.22,5.711a.322.322,0,0,1,0,.454L9.032,13.354l-3.054.339a.64.64,0,0,1-.708-.708l.339-3.054L12.8,2.742A.322.322,0,0,1,13.251,2.742Zm5.332-.754L16.977.382a1.287,1.287,0,0,0-1.817,0L13.995,1.547a.322.322,0,0,0,0,.454L16.964,4.97a.322.322,0,0,0,.454,0l1.165-1.165a1.287,1.287,0,0,0,0-1.817ZM12.639,11.4v3.351H2.106V4.217H9.67A.4.4,0,0,0,9.95,4.1l1.317-1.317a.4.4,0,0,0-.28-.675H1.58A1.58,1.58,0,0,0,0,3.69V15.276a1.58,1.58,0,0,0,1.58,1.58H13.165a1.58,1.58,0,0,0,1.58-1.58V10.082a.4.4,0,0,0-.675-.28l-1.317,1.317A.4.4,0,0,0,12.639,11.4Z" transform="translate(0 -0.007)" fill="#fff"/></svg>