<svg xmlns="http://www.w3.org/2000/svg" width="21.76" height="21.394" viewBox="0 0 21.76 21.394"><path d="M12.294,9.65h2.159V6.594H17.69V4.556H14.452V1.5H12.294V4.556H9.055V6.594h3.238ZM7.976,18.819a2.04,2.04,0,1,0,0,4.075,2.041,2.041,0,1,0,0-4.075Zm10.794,0a2.041,2.041,0,1,0,2.159,2.037A2.1,2.1,0,0,0,18.77,18.819ZM8.16,15.508l.032-.122.971-1.661H17.2a2.171,2.171,0,0,0,1.889-1.049L23.26,5.534l-1.878-.978h-.011L20.184,6.594,17.2,11.687H9.628l-.14-.275L7.069,6.594,6.044,4.556,5.029,2.519H1.5V4.556H3.659l3.886,7.732-1.457,2.5a1.884,1.884,0,0,0-.27.978A2.107,2.107,0,0,0,7.976,17.8H20.928V15.762H8.429A.267.267,0,0,1,8.16,15.508Z" transform="translate(-1.5 -1.5)" fill="#272727"/></svg>