<svg xmlns="http://www.w3.org/2000/svg" width="21.587" height="18.694" viewBox="0 0 21.587 18.694"><path d="M18.651,4.5a6.627,6.627,0,0,0-4.857,2.129A6.627,6.627,0,0,0,8.936,4.5,5.721,5.721,0,0,0,3,10.1c0,3.851,3.67,6.989,9.228,11.756l1.565,1.335,1.565-1.345c5.559-4.758,9.228-7.9,9.228-11.746A5.721,5.721,0,0,0,18.651,4.5ZM13.9,20.341l-.108.1-.108-.1C8.548,15.951,5.159,13.047,5.159,10.1A3.59,3.59,0,0,1,8.936,6.537a4.231,4.231,0,0,1,3.853,2.4h2.018a4.2,4.2,0,0,1,3.843-2.4A3.59,3.59,0,0,1,22.428,10.1C22.428,13.047,19.039,15.951,13.9,20.341Z" transform="translate(-3 -4.5)" fill="#272727"/></svg>